<?xml version="1.0" standalone="no"?>
<!DOCTYPE svg PUBLIC "-//W3C//DTD SVG 1.1//EN" "http://www.w3.org/Graphics/SVG/1.1/DTD/svg11.dtd" >
<svg xmlns="http://www.w3.org/2000/svg">
<metadata>
This is a custom SVG webfont generated by Font Squirrel.
Designer    : Haley Fiege
Foundry     : Haley Fiege
</metadata>
<defs>
<font id="webfont" horiz-adv-x="746" >
<font-face units-per-em="1000" ascent="750" descent="-250" />
<missing-glyph horiz-adv-x="428" />
<glyph unicode=" "  horiz-adv-x="428" />
<glyph unicode="&#x09;" horiz-adv-x="428" />
<glyph unicode="&#xa0;" horiz-adv-x="428" />
<glyph unicode="!" horiz-adv-x="446" d="M62 408q-7 26 -8 58q-1 18 -1 36v24q1 33 4 68q6 45 25 80q8 15 20.5 29.5t29.5 25.5t40 18t52 7q35 -3 67 -19q27 -14 53 -41.5t39 -78.5q11 -49 13 -93q1 -17 1 -33q0 -24 -2 -44q-4 -40 -12 -74q-12 -35 -33 -62q-18 -23 -48.5 -42t-77.5 -19q-53 0 -85 25t-49 55 q-20 35 -28 80zM353 77q0 -23 -10 -42.5t-28 -34t-41.5 -23t-50.5 -8.5t-50.5 8.5t-41 23t-27.5 34t-10 42.5q0 22 10 42t27.5 34.5t41 23t50.5 8.5t50.5 -8.5t41.5 -23t28 -34.5t10 -42z" />
<glyph unicode="&#x22;" horiz-adv-x="448" d="M201 678v-14q0 -12 -1 -25q-1 -22 -5.5 -43.5t-10 -40.5t-11.5 -31q-6 -13 -16 -23q-8 -9 -21 -16q-10 -6 -25 -6h-4q-18 1 -29.5 10.5t-17.5 20.5q-8 13 -11 29q-8 30 -12 61q-4 23 -4 50q0 3 1 6q0 31 8 58q7 24 19.5 36t26.5 16q12 4 24 4h6q14 -1 25 -5 q9 -4 18.5 -9.5t17.5 -14.5t14 -24t8 -39zM404 678v-14v-25q-2 -22 -6.5 -43.5t-10 -40.5t-11.5 -31q-6 -13 -16 -23q-8 -9 -20 -16q-11 -6 -26 -6h-4q-18 1 -29.5 10.5t-17.5 20.5q-8 13 -11 29q-8 30 -12 61q-4 23 -4 50v6q1 31 9 58q7 24 19.5 36t27.5 16q11 4 23 4h5 q15 -1 26 -5q9 -4 18.5 -9.5t17.5 -14.5t14 -24t8 -39z" />
<glyph unicode="#" horiz-adv-x="759" d="M656 384q-14 -2 -28 -2.5t-28 -1.5q-2 -13 -4.5 -25.5t-5.5 -24.5q4 -1 7 -1.5t6 -0.5q29 -5 44 -17t21 -25q7 -15 7 -33q1 -5 1 -9q0 -14 -5 -27q-5 -14 -19.5 -27t-43.5 -15l-26 -2l-26 -2l-7 -27l-5 -19l-5 -17q-7 -27 -20.5 -40.5t-27.5 -18.5q-15 -5 -30 -5h-5 q-18 3 -32 13q-12 8 -22 24t-10 42q-1 10 -1 21t1 23h-42q-20 0 -40 1q-4 -14 -6.5 -25t-4.5 -19q-3 -9 -4 -16q-7 -27 -20.5 -40.5t-27.5 -18.5q-15 -5 -30 -5h-5q-18 3 -32 13q-12 8 -22 24t-11 42v25q0 13 1 27q-8 1 -13.5 1t-9.5 1q-4 0 -8 1q-28 2 -43 13t-23 24 q-9 15 -12 33q0 18 7 34q6 14 20 26.5t40 17.5q25 6 62 9q3 25 9 51h-10q-2 0 -3 1q-28 2 -43 13t-23 24q-9 15 -11 33q0 18 7 34q6 14 19.5 26.5t39.5 17.5q25 4 60 9q9 36 21 69q9 28 23.5 40.5t28.5 16.5q9 2 19 2q7 0 15 -1q20 -1 35 -10q13 -8 23 -25q7 -13 7 -35v-10 l-2 -19l-2 -19q20 0 39 -0.5t39 -0.5l9 32l10 29q9 28 23.5 40.5t28.5 16.5q9 2 19 2q7 0 15 -1q20 -1 35 -10q13 -8 23 -25q7 -13 7 -35v-10l-2 -25q-1 -13 -3 -26l27 -3q29 -5 44 -17t21 -25q7 -15 7 -33q1 -5 1 -9q0 -14 -5 -27q-5 -14 -19.5 -27t-43.5 -15zM349 344 q16 0 32 -0.5t32 -0.5q2 8 3 16t3 16q-17 1 -33 1t-31 1q-3 -18 -6 -33z" />
<glyph unicode="$" horiz-adv-x="584" d="M371 421q65 -16 98 -43.5t47 -53.5q17 -32 16 -66q0 -51 -19 -85t-46 -54.5t-57 -30.5t-52 -14q-2 -13 -2.5 -22t-1.5 -16q-1 -8 -1 -13q-4 -29 -15 -43.5t-23 -20.5q-14 -7 -30 -7h-8q-13 0 -25 5q-13 6 -24 20.5t-12 45.5q-1 14 -1 27.5t-1 27.5q-72 11 -108.5 34.5 t-51.5 46.5q-16 24 -16 52v6q0 23 7 39t19 27.5t27.5 18t31.5 9.5q23 5 51 5q17 0 35 -2q-58 15 -87.5 43t-41.5 56q-13 31 -13 64q0 38 17 69q14 27 36 45t48.5 28.5t51.5 16.5q2 19 2.5 34.5t1.5 28.5q3 35 14.5 54t24.5 27q15 10 32 10q19 -1 34 -12q13 -9 24 -27.5 t13 -53.5q1 -14 1.5 -27.5t0.5 -27.5q50 -6 81.5 -18.5t49 -28.5t23.5 -34t6 -34q0 -30 -16 -49t-39.5 -29.5t-51 -14.5t-50.5 -5v-8z" />
<glyph unicode="%" horiz-adv-x="743" d="M273 55q-15 -21 -31 -28.5t-29 -7.5q-15 0 -29 7t-23 19q-8 11 -12 29q-1 5 -1 12q0 14 5 31q9 30 29 74t46 95l55 104l57 101l50 87q24 40 39 62q17 26 35.5 35t34.5 9q18 0 36 -9q15 -5 24 -17q8 -11 11 -30q1 -3 1 -8q0 -16 -9 -40q-32 -87 -80.5 -178.5t-95.5 -169.5 q-55 -91 -113 -177zM307 514q-6 -34 -22 -56t-38.5 -34.5t-48.5 -15.5h-18q-18 0 -36 3q-55 11 -86 51q-22 29 -22 68q0 13 2 27q5 27 18 51t33.5 40.5t48.5 23.5q14 3 30 3q15 0 32 -3q33 -6 56 -21.5t36 -36.5t16 -47q2 -11 2 -22q0 -15 -3 -31zM666 119q-6 -34 -22 -56.5 t-38.5 -34.5t-49.5 -15q-9 -1 -19 -1q-17 0 -34 3q-28 5 -49.5 18.5t-36 32.5t-19.5 44q-3 12 -3 26q0 12 2 25q5 27 18 51t33.5 40.5t47.5 23.5q15 4 32 4q15 0 31 -3q33 -6 56 -21.5t36 -36.5t17 -47q1 -11 1 -22q0 -15 -3 -31z" />
<glyph unicode="&#x26;" horiz-adv-x="798" d="M175 467q-20 42 -27 83q-3 18 -3 36.5t3 39.5q6 40 40 74q30 30 67 44.5t75 15.5h2q36 0 70 -14q36 -13 62 -40q28 -31 39 -69q7 -21 7 -48q0 -13 -2 -27q-5 -44 -44 -95q20 -20 38 -43q16 -20 34 -46.5t32 -56.5q31 29 63 44q26 13 55 13h2q31 -1 57 -33q12 -17 16 -33 q2 -10 2 -19q0 -7 -1 -14q-3 -16 -10.5 -31.5t-17.5 -28.5q-24 -32 -62 -61q36 -36 53 -74q7 -16 11 -34q1 -10 1 -19t-1 -17q-3 -18 -14.5 -36.5t-33.5 -34.5q-20 -15 -39 -19q-13 -4 -26 -4q-5 0 -11 1q-18 2 -34 9t-30 17q-33 23 -60 61q-46 -32 -99 -48q-23 -7 -49 -11 q-19 -3 -40 -3h-16q-29 2 -60.5 11t-64.5 27q-43 25 -72 65q-12 17 -23 38.5t-17.5 48.5t-7.5 59v7q0 29 7 63q6 33 22 67q14 29 39 65t68 70zM308 258q-23 -11 -30 -23q-7 -11 -7 -20q0 -11 9 -25q11 -15 24 -16h1q12 0 21 6q11 6 23 20z" />
<glyph unicode="'" horiz-adv-x="224" d="M198 678v-14v-25q-2 -22 -6.5 -43.5t-10 -40.5t-11.5 -31q-6 -13 -16 -23q-8 -9 -20 -16q-11 -6 -26 -6h-4q-18 1 -29.5 10.5t-17.5 20.5q-8 13 -11 29q-8 30 -12 61q-4 23 -4 50v6q1 31 9 58q7 24 19.5 36t27.5 16q11 4 23 4h5q15 -1 26 -5q9 -4 18.5 -9.5t17.5 -14.5 t14 -24t8 -39z" />
<glyph unicode="(" horiz-adv-x="444" d="M146 746q13 22 31.5 38.5t40.5 25.5q20 8 43 8h5q27 -1 57 -14q36 -17 49.5 -41t15.5 -47v-10q0 -22 -7 -46q-22 -62 -33 -120t-14 -111q-2 -26 -2 -51.5t2 -48.5q3 -47 10 -87q16 -93 50 -171q9 -20 9 -41q0 -5 -1 -11q-2 -22 -17.5 -45t-55.5 -39q-25 -10 -48 -10 q-13 0 -26 3q-35 9 -63.5 31t-49.5 51.5t-33 53.5q-33 68 -48.5 133.5t-18.5 126.5q-2 22 -2 44q0 37 4 72q6 54 18 101q27 110 84 205z" />
<glyph unicode=")" horiz-adv-x="447" d="M300 -3q-14 -22 -32 -38.5t-40 -25.5q-20 -8 -43 -8h-5q-27 1 -57 14q-37 16 -50 40.5t-15 47.5v10q0 22 7 46q22 62 33 120t14 111q2 26 2 51t-2 49q-3 47 -10 87q-16 93 -50 171q-9 20 -9 41q0 5 1 11q2 22 17 44.5t56 39.5q25 10 48 10q13 0 26 -3q35 -9 63.5 -31 t49.5 -51.5t33 -53.5q33 -68 48.5 -134t18.5 -127q2 -22 2 -43q0 -37 -4 -72q-6 -55 -18 -102q-27 -110 -84 -204z" />
<glyph unicode="*" horiz-adv-x="625" d="M244 590q-3 16 -3 31t3 28q3 11 8 22t15 19.5t24 13.5t35 5q33 -2 55 -17q19 -13 29 -40q4 -10 4 -24q0 -22 -10 -52q29 8 53 8q9 0 18 -1q13 -2 26 -6.5t23.5 -14.5t16.5 -25.5t6 -38.5t-5.5 -39t-14 -26.5t-19.5 -16t-22 -8.5q-12 -3 -26 -3q-17 0 -35 4q20 -26 28 -52 q4 -12 4 -24q0 -11 -3 -23q-6 -24 -39 -44q-25 -14 -44 -14q-9 0 -16 2q-25 9 -42 27q-19 21 -32 55q-16 -28 -38 -42q-19 -12 -45 -12l-1 -1q-27 0 -59 29q-17 20 -22 42q-2 8 -2 16q0 12 4 26q8 24 42 49q-37 14 -60 33q-10 8 -18 18.5t-12 23.5q-2 7 -2 16q0 5 1 10 q2 15 13 32q22 35 50 42q15 3 28 3t25 -3q29 -7 59 -28z" />
<glyph unicode="+" horiz-adv-x="618" d="M576 358v-5q0 -23 -8 -44q-8 -20 -25.5 -39t-52.5 -27l-28 -6q-14 -3 -28 -5q-3 -32 -6 -48q-2 -10 -3 -17q-5 -35 -24 -53t-39 -26q-22 -8 -46 -8h-6q-21 1 -40 8q-17 6 -33.5 19t-27.5 38q-7 15 -11.5 34t-8.5 42q-14 1 -25 2t-19 3l-15 3q-35 5 -52.5 24t-25.5 39 q-8 22 -8 46v6q1 21 8 40q6 17 19 33.5t38 27.5q14 7 33.5 11.5t41.5 8.5q2 17 4.5 32.5t6.5 29.5q8 32 24.5 49.5t33.5 25.5q20 10 43 11h5q23 0 44 -8q20 -8 39 -25.5t27 -52.5l6 -28q3 -14 5 -28q40 -5 68 -12q32 -8 50 -24.5t26 -33.5q10 -20 10 -43z" />
<glyph unicode="," horiz-adv-x="326" d="M272 117q1 -13 1 -26q0 -31 -4 -55q-5 -35 -15.5 -59t-24 -39.5t-28.5 -24.5q-27 -17 -63 -17q-8 0 -17 1q-14 2 -19 8t-7 13q-2 8 1 17q4 13 15 17q4 2 10 2q14 0 15.5 10.5t0.5 20.5q-57 4 -86.5 39.5t-29.5 86.5q0 52 32 88.5t93 36.5q60 0 92 -34.5t34 -84.5z" />
<glyph unicode="-" horiz-adv-x="526" d="M395 404q34 -9 53 -26t27 -34q10 -20 11 -42v-12q0 -18 -4 -34q-5 -19 -20.5 -37t-47.5 -27q-74 -20 -138 -20t-135 11q-35 5 -54.5 22t-27.5 35q-11 21 -11 46v9q0 21 7 40q8 20 26.5 39t58.5 28q51 11 97 12q20 1 37 1q24 0 44 -1q41 -3 77 -10z" />
<glyph unicode="." horiz-adv-x="352" d="M301 116q0 -26 -8 -49t-24 -40t-39.5 -27t-54.5 -10q-30 0 -53.5 10t-39.5 27t-24.5 40t-8.5 49t8.5 49t24.5 40t39.5 27t53.5 10q31 0 54.5 -10t39.5 -27t24 -40t8 -49z" />
<glyph unicode="/" horiz-adv-x="429" d="M187 16q-13 -27 -29.5 -38t-30.5 -14q-8 -2 -16 -2q-10 0 -19 3q-17 5 -30 16q-11 10 -20 29q-5 12 -5 31q0 9 1 19q4 36 17 89.5t31 116.5t40 129l42 126l39 109q18 49 30 77q14 33 33.5 46.5t36.5 17.5q8 2 16 2q13 0 26 -4q19 -3 31 -14q11 -10 18 -31q3 -11 3 -28 q0 -12 -2 -28q-8 -52 -22 -107.5t-30.5 -111t-34.5 -109.5t-36 -102q-42 -114 -89 -222z" />
<glyph unicode="0" horiz-adv-x="592" d="M564 310q0 -73 -20 -130t-55.5 -96t-83.5 -59.5t-104 -20.5t-104.5 20.5t-83.5 59.5t-55 96t-20 130t10 144t38.5 127t80 90.5t134.5 34.5q90 0 142.5 -34.5t79 -90.5t34 -127t7.5 -144zM308 382q-18 0 -28.5 -11t-10.5 -33q0 -17 10 -27.5t29 -10.5q21 0 28.5 11.5 t7.5 25.5q0 23 -10 34t-26 11z" />
<glyph unicode="1" horiz-adv-x="492" d="M206 454q-34 -24 -67 -35q-19 -6 -38 -6q-9 0 -19 1q-29 5 -46 40q-12 24 -14 46q-1 5 -1 11q0 15 5 29q5 19 15.5 35.5t23.5 30.5q30 33 77 58q51 25 92 28q14 1 27 1q25 0 44 -4q34 -7 61 -25q24 -17 41 -47t27.5 -67.5t16.5 -80t8 -84.5q2 -33 2 -67q0 -69 -7 -144 q-3 -35 -10 -60.5t-17.5 -44.5t-23 -31.5t-25.5 -19.5q-30 -18 -66 -18q-39 0 -63.5 18.5t-38.5 41.5q-16 26 -23 60q-11 55 -11 110v10q1 59 8 107q8 56 22 107z" />
<glyph unicode="2" horiz-adv-x="582" d="M226 706q18 1 35 1q47 0 81 -10q46 -14 73 -34q32 -23 48 -54q18 -33 24 -65q5 -25 4 -48v-16q-2 -31 -10.5 -60t-19.5 -54q-27 -59 -73 -112q45 -1 81 -15q15 -6 29.5 -16t25.5 -24.5t18 -34.5q6 -18 6 -40v-7q-1 -26 -13.5 -45t-33 -32t-46 -21.5t-51.5 -13.5 q-52 -9 -116 -9h-24q-80 0 -124 18.5t-66 40.5q-26 26 -31 59q-2 14 -2 26q0 26 7 46q11 31 31 55t47 45l57 46q14 12 26 26t19.5 29.5t7.5 31t-10 29.5q-13 17 -30 22q-12 5 -24 5q-4 0 -8 -1q-18 -2 -37 -9q-12 -3 -22 -3q-19 0 -31 8q-19 13 -29 31q-11 20 -16 49v6 q0 21 7 40q8 20 21.5 35.5t31 27.5t36.5 20q44 19 101 27z" />
<glyph unicode="3" horiz-adv-x="618" d="M246 709q18 1 35 1q39 0 74 -5q43 -6 84.5 -22t60.5 -49q18 -33 18 -63v-8q-3 -34 -14 -60q-13 -31 -36 -58q38 -18 61.5 -46t35.5 -55q14 -32 19 -65q2 -21 2 -39q0 -46 -12 -80q-17 -48 -42 -77q-29 -34 -68 -55q-75 -32 -143 -33h-10q-62 0 -110 11q-61 14 -112 43 q-23 15 -36 30.5t-19 30.5q-7 16 -7 33q0 12 3 22q7 28 31 54q21 21 46 23q8 1 16 1q16 0 30 -3q25 -6 50 -21q23 -14 41 -17q11 -1 19 -1q7 0 13 1q15 3 26 11q11 10 14.5 21t2.5 20q-1 11 -7 20q-7 11 -18 16.5t-22 7.5q-13 3 -27 2q-48 0 -71 15t-33 33q-11 21 -11 49 t17.5 47t39.5 30q25 13 57 21q-29 -4 -53 -4q-9 0 -18 1q-30 2 -51.5 7.5t-35.5 14t-23 18.5q-19 22 -19 52q0 25 9 42.5t23.5 30t32.5 21.5t37 15q44 13 100 16z" />
<glyph unicode="4" horiz-adv-x="649" d="M613 288q0 -31 -12.5 -48t-26.5 -25q-17 -10 -38 -13q3 -23 3 -44q0 -33 -7 -61q-5 -20 -14.5 -38.5t-25.5 -33t-39.5 -23.5t-56.5 -9q-30 0 -52 9t-37 23.5t-24 33t-13 38.5q-7 30 -7 65q0 19 2 40q-40 0 -70 3t-51 7q-25 4 -42 11q-30 8 -45.5 26t-20.5 42q-4 17 -4 35 v16q3 28 11 56q18 65 59 142q23 40 48 68.5t50.5 47t50 29t47.5 15.5q25 5 50 5q27 0 54 -6q29 -8 50.5 -26.5t36.5 -42.5t24.5 -52.5t14.5 -56.5q9 -49 9 -106q0 -19 -1 -39q29 -1 44 -14.5t23 -30.5q9 -19 10 -43zM250 432q-17 0 -30 -13q-10 -11 -10 -25q0 -23 12 -33 q11 -8 28 -8t28 10t11 27q0 16 -10 29t-29 13z" />
<glyph unicode="5" horiz-adv-x="591" d="M159 682q32 13 70 17q30 3 57 3h13q38 -1 74 -7q57 -9 86 -29.5t41 -40.5q13 -22 13 -47q0 -28 -9.5 -45.5t-24 -30.5t-33.5 -21t-38 -12q-39 -9 -86 -9h-18q63 -4 105 -19.5t68 -33.5q30 -21 46 -47q32 -52 35 -100q1 -14 1 -27q0 -33 -6 -60q-11 -45 -34 -84 q-17 -26 -39.5 -43.5t-48.5 -28t-53.5 -16t-54.5 -6.5q-15 -1 -30 -1q-48 0 -101 10q-37 10 -62.5 24t-43 30t-27 32.5t-14.5 32.5q-6 19 -6 40q0 18 5 37q13 36 34 48t41 12q24 0 50 -12q33 -17 52 -17.5t29 6.5q11 8 14 24q2 6 2 12q0 11 -7 21q-10 13 -25 22 q-18 11 -42 17q-32 11 -57.5 24t-43 35t-26.5 54q-7 27 -7 65v18q2 46 17.5 75.5t34.5 46.5q22 20 49 31z" />
<glyph unicode="6" horiz-adv-x="614" d="M576 234q0 -46 -11 -80.5t-28.5 -60t-40 -43t-46.5 -28.5q-55 -26 -125 -28q-46 0 -82 10.5t-64.5 27.5t-49 39t-35.5 45q-34 54 -47 122q-4 29 -4 57q0 18 2 36q4 44 15 82.5t27.5 71.5t34.5 60q42 62 99 110q42 37 79 45q21 4 41 4q12 0 24 -2q33 -6 62 -27 q17 -13 26.5 -27t13 -27.5t2.5 -26.5t-5 -25q-9 -27 -32 -54l-28 -33q-11 -13 -18 -22q-8 -11 -12 -17q39 0 68.5 -9t51 -24t36 -34t23.5 -38q21 -46 23 -104zM315 274q-17 0 -29 -13q-11 -11 -11 -25q0 -23 13 -33q10 -8 27 -8t28 10t11 27q0 16 -10 29t-29 13z" />
<glyph unicode="7" horiz-adv-x="600" d="M295 465q-67 -17 -120 -17h-6q-24 0 -47 4.5t-41 15.5t-29.5 29.5t-12.5 47.5v11q0 31 9 54q12 28 31.5 47t45 31t52.5 19q47 12 106 12q18 0 38 -1q63 -3 103.5 -18.5t65.5 -33.5q28 -21 44 -47q17 -26 22 -61q4 -23 4 -48q0 -13 -1 -28q-3 -40 -13 -82.5t-23 -83.5 q-31 -96 -81 -201q-12 -29 -26 -49.5t-30 -34t-32 -21.5t-31 -11q-16 -4 -32 -4q-20 0 -41 6q-38 12 -55.5 33.5t-24.5 42.5q-6 18 -6 37q0 8 1 15q4 57 25 116.5t44 108.5q27 57 61 111z" />
<glyph unicode="8" horiz-adv-x="625" d="M587 214q0 -57 -20.5 -100.5t-57 -72.5t-86.5 -44t-110 -15t-110 15t-86 44t-56.5 72.5t-20.5 100.5q0 65 23.5 113t74.5 77q-28 25 -40 56q-12 30 -12 63v5q0 43 17 77t46.5 57.5t70 35.5t88.5 12q47 0 87 -12t69.5 -35t46 -57t16.5 -78q0 -83 -45 -125q54 -32 79.5 -81 t25.5 -108zM316 273q-17 0 -30 -13q-10 -11 -10 -25q0 -23 12 -33q11 -8 28 -8t28 10t11 27q0 16 -10 29t-29 13zM316 537q-17 0 -30 -13q-10 -11 -10 -25q0 -23 12 -33q11 -8 28 -8t28 10t11 27q0 16 -10 29t-29 13z" />
<glyph unicode="9" horiz-adv-x="609" d="M35 468q0 46 11.5 80.5t30.5 60t43 43t49 28.5q59 26 134 29q46 0 81.5 -10.5t63 -27.5t47.5 -39t34 -44q33 -53 43 -120q3 -28 3 -55q0 -19 -1 -39q-5 -44 -17 -83t-29 -72t-35 -60q-44 -64 -103 -112q-45 -39 -82 -48q-25 -6 -45 -6q-11 0 -21 2q-33 6 -60 27 q-17 13 -26 27t-12 28.5t-2 28.5t5 26q9 29 32 56l27 32l18 23q8 11 12 17q-39 0 -68.5 9t-51 23.5t-36 33t-23.5 38.5q-21 46 -22 104zM311 472q-17 0 -29 -13q-11 -11 -11 -25q0 -23 13 -33q10 -8 27 -8t28 10t11 27q0 16 -10 29t-29 13z" />
<glyph unicode=":" horiz-adv-x="339" d="M278 408q0 -48 -28.5 -80t-85.5 -32q-54 0 -83 32t-29 80q0 47 29 80t83 33q28 0 49.5 -9t35.5 -24.5t21.5 -36t7.5 -43.5zM278 94q0 -48 -28.5 -80t-85.5 -32q-54 0 -83 32t-29 80q0 24 7.5 44.5t22 36t35 24.5t47.5 9q56 0 85 -33.5t29 -80.5z" />
<glyph unicode=";" horiz-adv-x="337" d="M273 399q0 -48 -28 -79.5t-83 -31.5q-53 0 -81.5 31.5t-28.5 79.5q0 45 28.5 78t81.5 33q55 0 83 -33t28 -78zM269 97q-2 43 -29.5 73.5t-79.5 30.5q-54 0 -82 -31.5t-28 -77.5q0 -45 25.5 -75.5t75.5 -34.5q1 -9 0 -18.5t-13 -9.5q-5 0 -9 -2t-7.5 -5t-5.5 -9 q-2 -9 -1 -15t5.5 -10.5t17.5 -6.5q9 -1 17 -1q30 0 53 14q13 7 24.5 20.5t20.5 34.5t13 52q4 21 4 47q0 11 -1 24z" />
<glyph unicode="&#x3c;" horiz-adv-x="474" d="M243 106q-1 1 -17 11.5t-39 28.5t-50 42t-50 52.5t-38 59.5t-15 64q0 31 15 62.5t38 60.5t50 54t50 43.5t39 29t17 11.5q16 12 38 15q9 1 18 1l26 -3q22 -4 41.5 -16.5t32.5 -32.5q19 -30 19 -58q0 -12 -4 -24q-11 -39 -48 -66l-24 -20l-26 -24l-30 -31q22 -22 42 -40 l34 -30q18 -15 32 -28q19 -18 27 -41q5 -13 5 -30q0 -8 -2 -17q-3 -27 -30 -59q-13 -15 -32.5 -24t-40.5 -11q-6 -1 -12 -1l-30 4q-21 5 -36 17z" />
<glyph unicode="=" horiz-adv-x="536" d="M398 550q34 -8 52.5 -21t26.5 -26q10 -15 11 -32v-9q0 -14 -4 -27q-5 -14 -20 -28.5t-47 -21.5q-74 -16 -137.5 -16t-134.5 9q-35 5 -54 17.5t-27 26.5q-10 16 -11 36q-1 5 -1 10q0 14 7 28q8 15 27 30t58 22q50 9 96 10q20 1 37 1q24 0 44 -1q41 -3 77 -8zM398 328 q34 -8 52.5 -21t26.5 -26q10 -15 11 -32v-9q0 -14 -4 -27q-5 -14 -20 -28.5t-47 -21.5q-74 -16 -137.5 -16t-134.5 9q-35 5 -54 17.5t-27 26.5q-10 16 -11 36q-1 5 -1 10q0 14 7 28q8 15 27 30t58 22q50 9 96 10q20 1 37 1q24 0 44 -1q41 -3 77 -8z" />
<glyph unicode="&#x3e;" horiz-adv-x="468" d="M224 620q1 -1 17 -11.5t39 -28.5t50 -42t50 -52.5t38 -60t15 -63.5q0 -31 -15 -62.5t-38 -60.5t-50 -54t-50 -43.5t-39 -29.5t-17 -11q-17 -12 -38 -15q-9 -1 -18 -1q-13 0 -26 3q-22 4 -41.5 16.5t-32.5 32.5q-19 30 -19 58q0 12 3 24q12 39 49 66l24 20q11 10 25 24 l31 31l-41 39l-35 31q-18 15 -32 28q-19 18 -27 41q-5 14 -5 31q0 8 1 16q3 27 31 59q13 15 32.5 24t40.5 11q6 1 12 1l30 -4q21 -5 36 -17z" />
<glyph unicode="?" horiz-adv-x="646" d="M509 61q0 -52 -37 -80.5t-95 -28.5t-92.5 32.5t-34.5 78.5q0 54 34.5 83t92.5 29t95 -31.5t37 -82.5zM525 290q-24 -39 -57 -61q-14 -9 -31.5 -16t-38.5 -8h-5q-18 0 -39 5q-23 7 -49 24q-17 10 -25.5 25.5t-11.5 32.5q-1 8 -1 16q0 10 2 20q3 19 9 37q13 42 41 89 q-33 -31 -67 -47q-29 -14 -66 -15h-2q-35 0 -70 29q-35 33 -48 73q-6 17 -7 38v6q0 18 5 39q6 24 21.5 50.5t43.5 55.5q45 38 102 56q24 7 53 11q13 1 27 1q18 0 37 -3q33 -4 70.5 -17.5t78.5 -39.5q38 -24 57.5 -59t25.5 -74q5 -25 5 -50q0 -15 -2 -31q-4 -41 -13.5 -77.5 t-22 -65.5t-22.5 -44z" />
<glyph unicode="@" horiz-adv-x="710" d="M231 477q4 11 11 21q6 8 17 14.5t28 6.5q27 0 41.5 -20t21.5 -43q8 -27 10 -62v-18q0 -43 -8 -66q-10 -28 -24 -40q-15 -13 -35 -13h-3q-14 0 -25 4q-10 4 -19 13t-11 28q-6 -14 -18 -25q-11 -9 -31 -15q-11 -4 -27 -4q-11 0 -24 2q-27 2 -47 15q-17 11 -31.5 34.5 t-14.5 65.5v11q0 30 9 55q9 26 30 48t64 26q8 1 15 1q17 0 29 -4q17 -5 26 -13q11 -9 16 -22zM206 395q-8 0 -13 -5t-5 -15q0 -9 5 -13.5t13 -4.5t13 4.5t5 13.5q0 10 -5 15t-13 5zM448 542q-1 9 -1 18q0 14 3 25q5 16 19 29t46 13q30 0 44.5 -13.5t20.5 -29.5q5 -16 5 -36 v-7q7 1 13 1q18 0 33 -5q17 -5 31.5 -19t14.5 -42q0 -26 -13.5 -38.5t-29.5 -17.5t-36 -5h-7q2 -23 2 -43.5t-2 -38.5q-4 -31 -18 -56t-45 -25q-32 0 -47.5 13.5t-21.5 36.5q-5 20 -5 45v8q1 30 3 63q-14 -2 -26 -2t-23 2q-19 4 -34 16.5t-15 41.5q0 20 9 33t22.5 20.5 t29 10t28.5 2.5zM612 238q-90 2 -180 3h-80q-43 0 -85.5 -0.5t-84.5 -1.5t-79 -2q-20 -1 -30.5 -9t-15.5 -17q-6 -11 -6 -25q1 -11 6 -21q5 -8 14.5 -15.5t28.5 -8.5q34 -2 79 -3.5t94 -1.5h100q51 0 97.5 1t86 2.5t65.5 4.5q14 1 22 8.5t12 15.5q4 10 5 21q0 13 -5 24 q-5 9 -14.5 17t-29.5 8z" />
<glyph unicode="A" d="M622 9q-24 -8 -50 -10q-7 -1 -15 -1q-16 0 -33 3q-27 4 -53 19q-30 18 -48.5 41.5t-29.5 46t-15 41t-5 24.5q-1 -6 -5 -24.5t-15 -41t-29.5 -46t-48.5 -41.5q-26 -15 -53 -19q-17 -3 -33 -3q-8 0 -15 1q-26 2 -50 10q-20 7 -34.5 18.5t-24 26t-16 31t-9.5 32.5 q-6 30 -6 64v17q3 71 16 130.5t32.5 109t42.5 89t45 71.5q33 48 67.5 73t64 36.5t49 13t22.5 1.5t22.5 -1.5t49 -13t64.5 -36.5t68 -73q22 -32 44.5 -71.5t42 -89t32.5 -109t16 -130.5q1 -12 1 -23q0 -30 -6 -58q-3 -16 -9.5 -32.5t-16.5 -31t-24.5 -26t-34.5 -18.5z M377 369q-17 0 -29 -13q-11 -11 -11 -25q0 -23 13 -33q10 -8 27 -8t28 10t11 27q0 16 -10 29t-29 13z" />
<glyph unicode="B" horiz-adv-x="668" d="M373 714q71 -3 114.5 -24.5t68.5 -46.5q29 -29 42 -66q9 -32 9 -58q0 -19 -5 -35q-11 -37 -31 -61q-23 -28 -57 -46q46 -14 71 -39t36 -49q13 -28 15 -60v-13q0 -33 -8 -60q-10 -32 -28 -55.5t-42 -40.5t-49 -28q-60 -26 -137 -32q-18 -1 -35 -1q-22 0 -42 2 q-35 4 -63 12t-50 18.5t-38 22.5q-39 27 -59 63q-30 51 -39 110t-9 110q0 52 6 94t14 71q9 34 20 61q13 34 33 58.5t43.5 42t49 27.5t49.5 16q39 9 81 9q20 0 40 -2zM338 514q-17 0 -28.5 -10.5t-11.5 -27.5q0 -16 8.5 -29.5t31.5 -13.5q20 0 30 13.5t10 29.5q0 15 -10 26.5 t-30 11.5zM347 274q-17 0 -29 -13q-11 -11 -11 -25q0 -23 13 -33q10 -8 27 -8t28 10t11 27q0 16 -10 29t-29 13z" />
<glyph unicode="C" horiz-adv-x="695" d="M497 426q-17 3 -33 3q-12 0 -23 -2q-21 -4 -39 -17q-20 -15 -20 -49q0 -21 11 -38q11 -15 35 -25q16 -8 44 -8q13 0 28 2q16 2 31 2q27 0 50 -6q15 -4 30.5 -11t28 -19.5t22 -31t12.5 -43.5v-13q0 -23 -5 -45q-6 -24 -22.5 -51t-51.5 -46q-37 -20 -89 -29q-36 -6 -85 -6 h-25q-65 2 -153 26q-62 20 -110 64q-21 19 -40.5 44.5t-34.5 60t-24 78.5q-6 36 -6 78v20q1 78 28 146q12 29 30.5 58.5t47 55.5t67 47t90.5 33q51 12 106 13h9q42 0 92 -9q56 -9 108 -40q27 -19 43 -46q7 -12 12 -26.5t7 -31.5v-12q0 -12 -2 -25q-3 -20 -13 -43 q-11 -23 -31 -38q-17 -13 -48 -21q-14 -4 -32 -4q-20 0 -45 5z" />
<glyph unicode="D" horiz-adv-x="684" d="M624 180q-12 -40 -33 -69.5t-47 -50.5t-55.5 -34t-58.5 -21q-62 -16 -131 -16h-16h-8q-55 0 -91 13q-39 13 -63 30q-28 19 -45 43q-15 25 -22.5 56t-10.5 62.5t-3 62.5v56q0 53 3 97.5t8 77.5q4 39 11 70q5 31 17 54t27.5 39.5t33 27.5t35.5 17q36 13 79 13h12 q48 0 88 -6.5t72 -17t57.5 -24.5t45.5 -28q46 -34 72 -77q25 -43 37 -99q5 -24 8 -54q3 -22 3 -49v-15q-1 -35 -6.5 -74.5t-18.5 -83.5zM347 384q-17 0 -28.5 -8.5t-11.5 -33.5q0 -24 11.5 -30.5t28.5 -6.5t28 10t11 27q0 16 -10 29t-29 13z" />
<glyph unicode="E" horiz-adv-x="668" d="M343 711q56 -2 97.5 -8t72 -15.5t50.5 -20.5t32 -23q28 -26 28 -58t-11 -53.5t-29 -36.5t-42 -24t-49 -14q-43 -8 -95 -8q-19 0 -39 1q57 -10 86 -27.5t40 -34.5t11 -38v-6q0 -32 -17 -51.5t-37 -31.5q-24 -14 -54 -21h15q38 0 67 -4q35 -5 60.5 -14t42.5 -20.5t28 -23.5 q25 -28 25 -65q-2 -24 -14 -41.5t-30.5 -30.5t-42.5 -21.5t-48 -14.5q-57 -13 -130 -14h-27q-39 0 -70 4q-42 6 -74 16t-55 23t-38 27q-36 33 -45 75q-13 66 -15 139v38q0 51 3 95q4 71 14 140q6 34 21.5 59.5t37 43.5t47 29.5t51.5 17.5q50 13 109 13q12 0 24 -1z" />
<glyph unicode="F" horiz-adv-x="638" d="M354 257q11 -53 11 -91q0 -42 -9 -72q-9 -29 -23.5 -47t-30.5 -28q-31 -20 -74 -20q-10 0 -21 1q-28 0 -50 7.5t-39 20.5t-29 29.5t-21 33.5q-20 40 -28 92q-13 66 -14 134v33q0 49 2 90q4 64 12 125q6 36 23.5 62t41.5 44.5t52 30t57 17.5q53 12 114 12q16 0 33 -1 q48 -3 84.5 -10t62.5 -16.5t44 -21t29 -23.5q26 -27 27 -61v-5q0 -24 -8 -43q-10 -20 -26 -34t-37 -23.5t-43 -14.5q-45 -10 -101 -10h-19q50 -8 75.5 -23.5t36.5 -32.5q13 -19 13 -41q0 -42 -23 -65t-50 -34q-32 -13 -72 -15z" />
<glyph unicode="G" horiz-adv-x="754" d="M446 279q-23 10 -31.5 23t-10.5 24q-2 13 3 27q7 18 32.5 26.5t58.5 11.5q20 2 40 2q14 0 28 -1q36 -2 62 -6q17 -3 29 -8.5t20 -10.5q9 -6 15 -14q9 -12 15 -31t9.5 -41.5t5 -47t1.5 -48.5q0 -56 -6 -120q-3 -41 -19.5 -63t-35.5 -32q-22 -12 -49 -13q-22 0 -43 4.5 t-38 16t-27 31t-10 48.5q-11 -14 -31.5 -28t-49.5 -23.5t-67 -11.5q-9 -1 -19 -1q-30 0 -66 6q-72 14 -127 57q-24 18 -46.5 44t-40 62.5t-28.5 83.5t-11 107q1 76 27 145q11 29 29 59.5t45 58.5t64.5 51.5t87.5 40.5q53 13 106 13h14q25 -1 53.5 -5.5t57 -15t56.5 -28 t53 -43.5q16 -19 25 -43q9 -21 9 -50q0 -27 -15 -59q-12 -23 -35 -35q-20 -11 -54 -13h-6q-32 0 -80 18q-26 7 -48 7q-9 0 -17 -1q-25 -4 -45 -22.5t-21 -66.5q2 -36 16 -60q6 -10 15.5 -18.5t23.5 -13.5q11 -3 26 -3h6q19 1 44 10z" />
<glyph unicode="H" horiz-adv-x="766" d="M366 489h38q1 64 19 114q7 21 19 42t30 37t42 26t57 10q38 -3 71 -25q28 -19 53.5 -59.5t34.5 -113.5q8 -71 9 -134v-40q0 -39 -1 -71q-3 -56 -8 -104q-6 -49 -25 -88q-8 -17 -20 -32.5t-28.5 -28t-37.5 -19.5t-48 -7q-30 0 -53 10t-40 26.5t-28.5 37t-19.5 41.5 q-18 50 -22 113h-37q-6 -64 -26 -113q-9 -21 -21.5 -41.5t-29.5 -36t-40 -25.5t-52 -10q-41 1 -74 21q-14 9 -28.5 22t-26.5 33.5t-20.5 48t-11.5 64.5q-8 82 -8 146q0 4 1 7q0 67 3 114q4 55 11 95q8 47 27 84q8 16 19.5 31t27 27t35 19t43.5 7q33 0 57 -10t42 -26 t29.5 -36.5t19.5 -41.5q18 -50 18 -114z" />
<glyph unicode="I" horiz-adv-x="420" d="M39 203q-6 41 -7 89q-1 30 -1 56v35q1 49 4 99q5 62 25 111q9 21 22 41t31.5 35.5t43.5 25.5t58 10q40 -3 73 -24q14 -9 28.5 -23t27 -35t22 -49t14.5 -64q8 -70 9 -132v-41q0 -38 -1 -70q-3 -55 -8 -103q-7 -49 -26 -87q-9 -16 -21 -31.5t-29 -28t-39 -19.5t-50 -7 q-31 0 -55 9.5t-42.5 24.5t-31 34t-21.5 39q-20 47 -26 105z" />
<glyph unicode="J" horiz-adv-x="547" d="M175 255q-3 40 -4.5 83.5t-1.5 79.5q0 42 1 83q1 58 18 105q7 19 18.5 38t28 34t39 24.5t52.5 9.5q43 0 79 -18q15 -8 30 -21t27.5 -32.5t21.5 -47t12 -64.5q5 -69 7 -123q1 -36 1 -65v-27q-1 -45 -3 -79q-2 -35 -11 -69q-8 -29 -23.5 -62.5t-44.5 -61.5 q-16 -15 -45.5 -27t-65.5 -18q-33 -6 -70 -6q-3 0 -6 1q-40 0 -77 8.5t-68 26t-49 46.5q-12 18 -13 39v6q0 18 6 34q8 19 22.5 32t34.5 15q35 3 52.5 12t24.5 19q8 11 7 25z" />
<glyph unicode="K" horiz-adv-x="732" d="M380 541q3 18 12 36q8 16 20.5 34.5t33.5 36.5q37 32 70 36q12 1 22 1q20 0 37 -5q29 -10 54 -32q23 -24 33 -48q8 -22 8 -43q0 -26 -10 -51q-8 -23 -20 -43q-29 -47 -82 -90q47 -51 75.5 -93t43.5 -76.5t19 -61.5q1 -15 1 -27q0 -11 -1 -21q-8 -48 -50 -75 q-35 -21 -66 -26q-13 -2 -25 -2q-17 0 -32 3q-27 7 -49.5 22t-41.5 34q-44 44 -77 114q1 -12 1 -23q0 -27 -7 -51q-9 -29 -33 -56t-75 -37q-17 -4 -32 -4q-10 0 -19 2q-23 4 -41 13.5t-31.5 24t-23.5 29.5q-24 36 -36 86q-11 48 -16 105q-4 41 -4 93v22q1 66 13 143 t38.5 118t54.5 60q32 22 69 24h10q33 0 57 -5q28 -7 46.5 -19t30 -28t17.5 -32q9 -25 9 -54q0 -16 -3 -34z" />
<glyph unicode="L" horiz-adv-x="651" d="M355 284q43 23 78 32q32 8 57 8h5q27 -1 47.5 -10.5t34.5 -22.5q33 -31 47 -85q2 -7 2 -21v-7q-1 -19 -8.5 -42.5t-24 -48.5t-47 -46t-77.5 -35.5t-114 -16.5h-18q-36 0 -67 6q-37 8 -66.5 21.5t-52 31.5t-38.5 37q-38 44 -55 101q-18 51 -22 114q-2 35 -2 68q0 25 1 49 q3 64 13 129q11 64 37 98t53 48q31 17 67 17h5q39 0 66 -17q29 -17 47.5 -46.5t28 -68t12.5 -78.5q3 -30 3 -63q0 -70 -12 -152z" />
<glyph unicode="M" horiz-adv-x="987" d="M492 500q7 61 30 109q10 20 24 39.5t33 35t44 25t57 9.5q49 0 85.5 -24t60.5 -53q28 -33 48 -76q27 -63 41.5 -125.5t21.5 -113.5q8 -60 9 -115v-13q0 -34 -4 -61q-6 -32 -16 -55t-23.5 -38.5t-28.5 -25.5q-34 -23 -78 -24q-39 0 -68.5 13.5t-51 36t-36 51t-23.5 58.5 q-22 70 -23 159q-5 -59 -20.5 -89t-32.5 -42q-18 -13 -38 -13h-6q-39 0 -61 22.5t-33 50.5q-13 32 -16 73q0 -61 -7.5 -107.5t-19.5 -80t-27.5 -56.5t-31.5 -38q-38 -34 -86 -38q-38 0 -65.5 9t-47.5 23.5t-33 33.5t-21 39q-18 47 -18 106q0 81 11.5 148.5t25.5 116.5 q17 57 38 103q26 60 62 89.5t68 41.5q33 12 67 12h10q34 0 60.5 -9.5t45.5 -24.5t32 -34.5t21 -39.5q19 -48 21 -108z" />
<glyph unicode="N" horiz-adv-x="823" d="M55 552q10 43 34 78q20 30 56.5 55.5t95.5 28.5h13q34 0 60 -8q32 -11 56 -29t40.5 -42t27.5 -49q26 -59 29 -136v13q0 43 5 77q7 38 18 65.5t25.5 46t29.5 29.5q35 26 81 26h5q44 0 71 -17q28 -17 43 -39q18 -26 24 -58q17 -88 17 -167.5t-5 -141.5q-7 -72 -20 -136 q-7 -32 -17.5 -55.5t-23 -40t-26.5 -27t-27 -16.5q-26 -12 -54 -12q-6 0 -12 1h-6q-37 0 -67 11q-33 12 -58 33t-43 48t-31 55q-31 66 -42 151q1 -23 1 -44q0 -35 -3 -64q-5 -45 -16 -77.5t-25.5 -53.5t-30.5 -33q-34 -26 -76 -26h-11h-9q-37 0 -61 16q-27 17 -42 38 q-18 25 -26 57q-19 79 -21 157q-1 27 -1 51q0 49 3 92q5 74 19 143z" />
<glyph unicode="O" horiz-adv-x="748" d="M393 704q60 0 105.5 -14.5t79.5 -38.5t57 -54.5t38 -62.5q35 -75 40 -169q0 -71 -14 -124.5t-36.5 -93t-51 -66.5t-58.5 -45q-70 -41 -160 -47q-68 0 -119 14.5t-89 38t-64 54t-43 62.5q-40 74 -45 169q0 78 15.5 135t41 98.5t57.5 68t66 42.5q71 33 161 33h19zM378 383 q-17 0 -30 -13q-10 -11 -10 -25q0 -23 12 -33q11 -8 28 -8t28 10t11 27q0 16 -10 29t-29 13z" />
<glyph unicode="P" horiz-adv-x="737" d="M693 463v-15q0 -46 -10 -80q-12 -41 -33 -69.5t-48.5 -46.5t-56.5 -28q-55 -20 -122 -20q-16 0 -33 1q8 -37 8 -65t-6 -49t-16 -35.5t-22 -24.5q-28 -23 -69 -28q-13 -1 -25 -1q-43 0 -73 16q-39 21 -62 49q-27 33 -42 76q-23 78 -25 149q-1 19 -1 36q0 49 5 90 q8 63 25 119q13 39 33.5 67.5t44 49t49.5 33t51 20.5q48 15 101 15q12 0 24 -1q56 -2 98.5 -14t74 -30.5t53.5 -41.5t37 -47q33 -55 40 -125zM388 483q-17 0 -30 -13q-10 -11 -10 -25q0 -23 12 -33q11 -8 28 -8t28 10t11 27q0 16 -10 29t-29 13z" />
<glyph unicode="Q" horiz-adv-x="833" d="M722 206q20 -15 39 -33.5t29 -41.5q8 -18 8 -40v-11q-3 -29 -27 -65q-28 -42 -61 -55q-24 -8 -46 -8q-10 0 -19 2q-31 5 -56 22t-35 35q-26 -11 -49.5 -16.5t-40.5 -8.5q-21 -4 -38 -4q-69 0 -122 14.5t-92 38.5t-65.5 54.5t-43.5 62.5q-40 75 -46 171q0 78 16 135.5 t41.5 99t58.5 68t68 42.5q73 33 165 33h20q61 0 108 -15t81.5 -39t58.5 -54.5t39 -62.5q36 -75 41 -170q0 -55 -9 -90t-23 -64zM426 370q-17 0 -30 -13q-10 -11 -10 -25q0 -23 12 -33q11 -8 28 -8t28 10t11 27q0 16 -10 29t-29 13z" />
<glyph unicode="R" horiz-adv-x="687" d="M618 519q6 -32 6 -59q0 -20 -3 -37q-7 -42 -18 -71q-14 -34 -34 -59q36 -31 57.5 -59.5t31.5 -53.5q11 -26 11 -51q0 -19 -4 -35q-11 -42 -49 -76q-29 -23 -56 -28q-12 -3 -24 -3q-14 0 -27 3q-24 7 -45.5 23.5t-39.5 37.5q-42 48 -77 126q4 -24 4 -43q0 -8 -1 -15 q-2 -25 -9 -44t-17 -32.5t-22 -22.5q-27 -22 -66 -28q-14 -2 -26 -2q-33 0 -57 14q-33 18 -52 42q-23 28 -34 66q-26 88 -30 160q-2 33 -2 61q0 36 3 66q6 62 22 113q10 41 28 71t40.5 52t47.5 36t49 22q49 16 104 16h18q44 0 79 -8.5t62.5 -22t48 -30t34.5 -34.5 q33 -41 47 -95zM347 450q-17 0 -29 -13q-11 -11 -11 -25q0 -23 13 -33q10 -8 27 -8t28 10t11 27q0 16 -10 29t-29 13z" />
<glyph unicode="S" horiz-adv-x="625" d="M306 460q56 -8 98 -21t72.5 -30t50.5 -36t33 -38q30 -44 31 -96q0 -45 -11 -80t-29.5 -60.5t-42 -43t-47.5 -29.5q-57 -27 -130 -32q-28 -2 -52.5 -2t-46.5 2q-43 4 -74.5 13.5t-53 22.5t-34.5 28q-33 34 -35 80q0 33 9 56t25 38.5t36.5 25t41.5 14.5q29 6 63 6 q24 0 51 -3q-44 10 -75.5 25.5t-53.5 35t-35.5 40.5t-21.5 41q-13 36 -13 75q0 14 1 27q5 37 17.5 65t29.5 48t36.5 33.5t39.5 21.5q47 19 103 19q21 1 41 1q64 0 106 -11q55 -13 82.5 -35t33.5 -49q5 -20 5 -37v-11q-3 -25 -15 -42.5t-30 -29.5t-40.5 -19.5t-45.5 -10.5 q-30 -5 -65 -5q-26 0 -55 3z" />
<glyph unicode="T" horiz-adv-x="736" d="M239 415q-14 -1 -28 -1q-40 0 -74 9q-19 5 -37 14.5t-32.5 24t-23 35.5t-8.5 50q0 50 20.5 79.5t45.5 44.5q29 18 66 24q80 17 156 19q29 1 56 1q43 0 81 -2q70 -4 135 -15q46 -10 69.5 -31t34.5 -43q12 -26 12 -55q-1 -32 -9.5 -55t-22 -39.5t-30.5 -26.5t-34 -16 q-31 -10 -68 -10q-11 0 -23 1q13 -76 15 -135v-37q0 -35 -2 -62q-4 -48 -13 -82q-10 -48 -32.5 -71t-45.5 -34q-27 -12 -58 -12h-6q-31 0 -59 10q-26 10 -50 34t-35 73q-11 51 -13 105v36q0 34 2 64q4 53 11 103z" />
<glyph unicode="U" horiz-adv-x="767" d="M202 711q36 -2 64 -19q24 -14 44.5 -45t20.5 -88q0 -43 -1 -81v-19q0 -27 2 -49q3 -30 11.5 -47.5t26.5 -17.5t26.5 17.5t11.5 47.5q2 22 2 49v19q-1 38 -2 81v8q0 23 4 41q6 22 16 38t22.5 26.5t25.5 16.5q31 15 71 15h15q41 0 68 -14q31 -17 49 -38q20 -26 30 -58 q17 -76 17 -146q1 -5 1 -10q0 -65 -7 -116q-8 -64 -23 -121q-21 -61 -62 -109q-18 -20 -41.5 -39.5t-55 -34.5t-71 -24t-87.5 -9q-41 0 -74.5 6.5t-61.5 16.5t-50 23t-39 26q-40 31 -63 70q-19 32 -31 67.5t-19.5 72t-11 72t-3.5 68.5v13q0 70 10 139q12 63 39 94.5t55 44.5 q29 13 62 13h9z" />
<glyph unicode="V" horiz-adv-x="806" d="M419 424q13 93 45 163q13 30 32 56.5t44.5 45.5t57.5 27q15 4 32 4q19 0 41 -5q39 -9 62.5 -29.5t35.5 -48.5t15 -61q1 -16 1 -31q0 -18 -2 -36q-7 -78 -42 -172q-35 -96 -83 -171q-20 -32 -45.5 -63t-55.5 -55t-64.5 -38.5t-73.5 -14.5q-56 0 -102 21.5t-83 56.5t-65 78 t-49 85.5t-35 80.5t-22 63q-8 24 -17.5 56t-13.5 66q-3 22 -3 44q0 12 1 24q2 34 16.5 63t44 50t78.5 30q15 2 30 2q20 0 37 -5q31 -8 56 -27t44 -45.5t33 -55.5q33 -68 50 -158z" />
<glyph unicode="W" horiz-adv-x="1012" d="M513 208q-8 -61 -32 -109q-10 -21 -24.5 -40.5t-34 -34.5t-45.5 -24.5t-59 -9.5q-51 0 -88.5 23.5t-62.5 52.5q-29 33 -50 77q-28 62 -42.5 125t-21.5 114q-8 60 -9 115q-1 11 -1 21q0 28 5 51q5 31 15.5 54t24.5 38.5t29 25.5q35 24 81 27q40 0 70.5 -14t52.5 -37 t37 -52.5t24 -59.5q22 -71 23 -162v13q0 50 13 78q16 30 36 44q23 16 53 16q22 0 38.5 -7t28.5 -17.5t20.5 -24t13.5 -27.5q11 -33 12 -75q0 61 7.5 107t20 80.5t28.5 58t33 38.5q40 36 90 41q34 0 60 -9t45 -24t32 -34t21 -40q19 -48 21 -110q0 -82 -11 -148t-25 -114 q-16 -55 -36 -99q-13 -29 -28.5 -50t-32.5 -36.5t-34.5 -26t-33.5 -16.5q-38 -15 -78 -15q-36 0 -63 9.5t-47 24.5t-33.5 34.5t-21.5 39.5q-20 48 -21 108z" />
<glyph unicode="X" horiz-adv-x="833" d="M402 539q36 80 83 128q20 20 44 35.5t51 19.5q9 1 17 1q20 0 42 -7q31 -9 65 -39q27 -24 39 -51q13 -27 13 -57q0 -26 -8 -51q-9 -27 -22 -51q-31 -57 -88 -114q61 -49 94 -102q14 -23 23 -49q8 -22 8 -47v-5q-1 -28 -13.5 -57t-42.5 -57q-40 -38 -77 -46q-15 -2 -30 -2 q-21 0 -42 6q-34 12 -63 37.5t-51 53t-36 52t-18 35.5q-37 -82 -83 -130q-20 -21 -43 -36t-50 -19q-7 -1 -15 -1q-20 0 -42 8q-30 10 -63 41q-31 29 -44 58.5t-14 58.5v5q0 26 8 49q10 27 25 50q34 55 99 105q-74 49 -113 103q-17 23 -27 49q-10 24 -10 49q0 31 16 62 q16 28 52 57q33 26 64 34q18 5 36 5q12 0 24 -2q28 -6 53.5 -21t46.5 -35q50 -47 92 -123z" />
<glyph unicode="Y" horiz-adv-x="792" d="M415 547q21 76 53.5 113.5t64.5 51.5q29 13 59 13q9 0 18 -1q32 -4 54.5 -14t37.5 -23.5t23.5 -29.5t13.5 -32q6 -21 6 -45q0 -19 -4 -39q-13 -55 -43 -95.5t-61 -66.5q-36 -31 -78 -52q18 -57 18 -104v-9q-2 -50 -11 -85q-11 -41 -31 -73q-23 -32 -52 -45.5t-68 -13.5 q-32 0 -55.5 7t-38.5 16q-18 10 -30 23q-16 18 -26.5 39t-16.5 44t-8 46.5t-2 44.5q0 50 11 103q-51 22 -93 55q-18 14 -35.5 31.5t-32.5 38.5t-25.5 45.5t-14.5 52.5q-3 18 -3 34q0 13 2 25q4 25 13 44.5t21.5 33.5t26.5 23q33 22 77 28h14q25 0 47 -5q28 -7 50.5 -19.5 t40 -29t30.5 -34.5q31 -41 48 -96z" />
<glyph unicode="Z" horiz-adv-x="727" d="M244 392h-13q-50 0 -91 13q-20 6 -38.5 16.5t-33 26.5t-23.5 39t-9 54q0 46 33 82q14 15 36 29.5t55.5 26t79.5 17.5q39 5 91 5h17q82 -2 136.5 -11.5t86 -28t42.5 -45.5q8 -19 8 -42q0 -11 -2 -22q-9 -40 -30 -83q-18 -38 -50.5 -84.5t-86.5 -95.5q26 3 50 3q38 0 71 -7 q23 -5 45 -14t39 -25t27.5 -39t10.5 -55q0 -64 -29 -99t-74.5 -51t-101 -18.5t-107.5 -2.5t-102 1t-92 11t-73 32.5t-46 66.5q-8 24 -8 48v10q2 28 12.5 54.5t27 50.5t35.5 45q44 48 107 92z" />
<glyph unicode="[" horiz-adv-x="617" d="M500 22q35 -3 52.5 -14.5t25.5 -24.5t8 -30q0 -23 -9 -41q-8 -15 -25.5 -29.5t-52.5 -21.5q-79 -15 -143 -15h-19q-71 3 -113 12q-29 6 -50.5 18.5t-37.5 29t-27.5 35.5t-18.5 38q-18 44 -21 96q-3 22 -5 59.5t-3 83.5t-1 97v101q1 117 4 250q-1 8 -1 17q0 13 2 26 q2 19 9 42t22 46q3 7 12 16t21 17.5t25 16t24 10.5q32 10 74.5 16t88.5 7q15 1 31 1q30 0 60 -2q45 -3 83 -11q32 -7 48.5 -19t23.5 -23q8 -13 7 -28q0 -17 -9 -31q-8 -13 -25 -25t-51 -17t-85 -8t-97 -6q2 -11 2.5 -25.5t2.5 -28.5q3 -46 4.5 -106t1.5 -124t-1.5 -128.5 t-3 -119.5t-3.5 -96.5t-3 -60.5q22 2 48 2q13 1 25.5 1t24.5 -1q24 0 44 -0.5t31 -1.5z" />
<glyph unicode="\" horiz-adv-x="495" d="M374 -33q-10 -3 -20 -3q-7 0 -15 2q-15 3 -31 14t-29 38q-49 108 -90 222q-18 48 -36 102t-34.5 109.5t-30 111t-21.5 107.5q-3 17 -3 30q0 15 4 26q7 21 18 31q12 11 31 14q13 4 26 4q8 0 16 -2q17 -4 36.5 -17.5t33.5 -46.5q12 -28 30 -77l39 -109l42 -126 q22 -66 40 -129t31 -117t17 -89q1 -9 1 -16q0 -21 -6 -34q-8 -19 -19 -29q-13 -11 -30 -16z" />
<glyph unicode="]" horiz-adv-x="582" d="M105 720q-35 2 -52.5 14t-25.5 25t-8 30q0 23 9 41q8 15 25.5 29.5t52.5 21.5q79 15 143 15h19q71 -3 113 -12q28 -6 49.5 -19t38 -29.5t27.5 -35t19 -37.5q18 -44 21 -96q3 -23 5 -60.5t3 -83t1 -96.5v-101q-1 -117 -4 -250q1 -8 1 -17q0 -13 -2 -26q-2 -19 -9.5 -42.5 t-21.5 -45.5q-3 -7 -12 -16t-21 -17.5t-25 -16t-24 -10.5q-32 -10 -74.5 -16t-88.5 -7q-15 -1 -31 -1q-30 0 -61 2q-45 3 -82 11q-32 7 -48.5 19t-23.5 23q-8 13 -7 28q0 16 9 31q8 12 25 24.5t51 17.5t85 8t97 6q-2 11 -2.5 25.5t-2.5 28.5q-3 46 -4.5 106t-1.5 124 t1.5 128.5t3 119.5t3.5 96.5t3 60.5q-23 -2 -48 -2q-13 -1 -25.5 -1t-24.5 1q-24 0 -44 0.5t-31 1.5z" />
<glyph unicode="^" horiz-adv-x="635" d="M57 545q1 1 11.5 17t28.5 39t42 50t52.5 50t59.5 38t64 15q32 0 63 -15t60 -38t54 -50t43.5 -50t29 -39t11.5 -17q12 -17 15 -39q1 -8 1 -17q0 -13 -2 -26q-5 -22 -17.5 -41.5t-32.5 -32.5q-30 -19 -58 -19q-12 0 -24 4q-39 11 -66 48l-20 24q-10 11 -24 25l-31 31 q-22 -22 -39 -42l-31 -34q-15 -18 -28 -32q-18 -19 -41 -27q-14 -5 -31 -5q-8 0 -16 1q-27 3 -59 31q-15 13 -24 32.5t-11 40.5q-1 6 -1 12q0 15 4 30q5 21 17 36z" />
<glyph unicode="_" horiz-adv-x="686" d="M557 148q35 -4 53.5 -16.5t26.5 -26.5q10 -17 10 -41q0 -17 -6 -33q-6 -15 -20.5 -29t-44.5 -19q-38 -6 -90 -9.5t-110 -4.5h-38q-38 0 -78 1q-58 2 -107 6q-35 3 -54 16t-27 27q-10 17 -11 37v7q0 18 8 33q8 16 27.5 31t59.5 21q72 10 144 11h46q44 0 82 -1 q67 -3 129 -10z" />
<glyph unicode="`" horiz-adv-x="376" d="M182 768q16 -5 35.5 -15.5t37.5 -23t33.5 -26t23.5 -23.5q9 -12 14 -24q7 -15 7 -29q0 -12 -7 -25q-8 -17 -21 -23t-26 -8q-5 -1 -10 -1q-10 0 -21 3q-31 5 -61 14q-26 8 -53.5 19.5t-48.5 30.5q-19 16 -25 33q-5 13 -5 25q0 3 1 6q1 15 8 28t15 21q7 7 16 13.5t21 10.5 q8 2 20 2h7q16 -1 39 -8z" />
<glyph unicode="a" horiz-adv-x="704" d="M419 435q8 24 23 42q13 16 34.5 29.5t56.5 13.5q28 0 49 -11t37 -29t27 -41t18 -47q17 -56 19 -127q1 -21 1 -41q0 -32 -3 -58q-5 -43 -14.5 -73.5t-22.5 -51t-27 -32.5q-31 -27 -71 -27h-6h-5q-24 0 -46 9q-20 8 -39 27.5t-24 57.5q-10 -30 -36 -51q-22 -18 -62 -31 q-25 -8 -59 -8q-22 0 -47 3q-54 6 -96 32q-18 11 -35.5 28t-31 42t-21.5 58t-8 76v13q0 67 19 123q9 26 24 51.5t38 46.5t55 35.5t76 18.5q17 2 32 2q34 0 58 -9q34 -11 54 -27q23 -18 33 -44zM375 278q-17 0 -29 -13q-11 -11 -11 -25q0 -23 13 -33q10 -8 27 -8t28 10t11 27 q0 16 -10 29t-29 13z" />
<glyph unicode="b" horiz-adv-x="680" d="M201 765q32 -3 54 -16.5t36 -34t21 -45.5t9 -50q1 -16 1 -33q0 -46 -10 -101q46 19 94 20q20 0 43 -3t46.5 -12.5t47 -25.5t46.5 -41q21 -24 33.5 -59.5t15.5 -73.5q1 -13 1 -27q0 -25 -3 -49q-6 -39 -20 -69q-17 -37 -38 -61t-40 -38q-22 -17 -44 -26q-57 -26 -116 -30 q-14 -1 -28 -1q-45 0 -86 10q-53 13 -97 39.5t-71 61.5q-23 29 -37 66t-22 78t-10.5 83.5t-2.5 82.5q1 93 17 194q8 48 28 85q9 16 21 30.5t28 25.5t36 17q16 4 34 4q6 0 13 -1zM337 289q-17 0 -29 -13q-11 -11 -11 -25q0 -23 13 -33q10 -8 27 -8t28 10t11 27q0 16 -10 29 t-29 13z" />
<glyph unicode="c" horiz-adv-x="570" d="M384 285q-17 5 -31 5h-4q-14 -1 -24.5 -8t-10.5 -26q1 -14 9 -22q7 -7 21 -10h6q13 0 35 9q29 11 57 11q24 -1 51 -13t49 -47q12 -26 12 -52q0 -23 -12 -51t-50 -55q-40 -27 -90 -39q-35 -9 -81 -9h-22q-60 3 -133 36q-36 18 -64 51q-24 28 -44 74.5t-20 115.5 q1 58 20 109q8 22 21 44t32 42.5t45.5 37t61.5 27.5q49 14 100 15h6q41 0 88 -12q50 -13 94 -53q13 -13 21 -31q7 -16 9 -39q1 -4 1 -9q0 -19 -9 -43q-10 -22 -29 -37q-17 -13 -45 -21q-13 -4 -30.5 -4t-39.5 4z" />
<glyph unicode="d" horiz-adv-x="754" d="M689 30q-26 -27 -55 -32q-14 -2 -26 -2q-16 0 -30 4q-26 5 -43 14l-17 9q-39 -20 -86 -31t-96 -13h-19q-38 0 -75 6q-46 8 -82 27q-24 14 -45 33q-18 17 -36.5 41.5t-26.5 58.5q-8 31 -10 69q-1 11 -1 22q0 26 4 54q6 39 22 75.5t46 64.5q46 43 96.5 57t93.5 14 q50 -1 98 -15q-6 43 -6 81q0 28 3 53t11 49.5t22.5 43.5t37 30.5t54.5 11.5q28 0 50 -8t39 -21t29.5 -29.5t20.5 -33.5q19 -40 25 -92q6 -55 6 -114q0 -51 -6.5 -113.5t-23.5 -125.5q29 -14 43.5 -38t16.5 -51v-10q0 -22 -7 -43q-9 -27 -27 -46zM396 278q-17 0 -30 -13 q-10 -11 -10 -25q0 -23 12 -33q11 -8 28 -8t28 10t11 27q0 16 -10 29t-29 13z" />
<glyph unicode="e" horiz-adv-x="585" d="M359 207q29 -23 61 -28.5t59.5 -9.5t47 -15t24.5 -46v-6q0 -17 -5 -33q-6 -17 -20.5 -34.5t-45.5 -29.5q-44 -14 -95 -18q-19 -2 -39 -2q-29 0 -61 3q-56 6 -117 31q-40 18 -71 51q-13 14 -25.5 32.5t-22 42t-15.5 52.5q-4 21 -4 46q0 9 1 18q3 54 21 103q8 21 20 42.5 t29.5 41.5t41 37t54.5 28q51 15 104 16q22 0 47.5 -2.5t51 -10t51.5 -21.5t50 -35q16 -16 28 -36q11 -18 19 -43.5t9 -60.5q0 -39 -17.5 -64t-46 -38t-63.5 -16h-19q-26 0 -52 5zM333 334q-17 0 -29 -13q-11 -11 -11 -25q0 -23 13 -33q10 -8 27 -8t28 10t11 27q0 16 -10 29 t-29 13z" />
<glyph unicode="f" horiz-adv-x="641" d="M455 513q34 9 62 9h10q27 -2 50 -18q25 -16 25 -60q0 -38 -18 -55q-19 -18 -43 -24q-16 -4 -35 -4q-14 0 -29 2q9 -66 9 -124q0 -33 -3 -63q-3 -35 -12 -69t-25.5 -61t-42 -44t-62.5 -18h-13q-56 0 -86 22q-35 26 -50.5 76t-17.5 121q-1 36 -1 75.5t1 84.5q-28 -8 -51 -8 q-9 0 -17 1q-13 1 -25.5 6t-23 14t-17.5 24q-7 16 -7 40q0 27 13 44q15 18 37 26t47 8q3 1 5 1q22 0 39 -4q-1 9 -1 19q0 19 3 39q4 26 15.5 58t36.5 64q27 32 67 51q35 17 89 23q12 1 25 1q46 0 105 -15q22 -8 40 -20q15 -11 26 -29q9 -13 9 -32q0 -5 -1 -11q-1 -18 -9 -32 q-7 -12 -21 -21q-12 -9 -33 -9h-5q-14 0 -25 -4q-10 -3 -20 -10t-15 -21q-2 -5 -3 -13q-2 -11 -2 -28v-12z" />
<glyph unicode="g" horiz-adv-x="680" d="M223 -266q-25 9 -41.5 20t-26.5 23t-15 24.5t-6 24.5q-1 5 -1 10q0 22 12 46q11 24 31 34.5t40 14.5q13 2 27 2q11 0 22 -1q45 2 67.5 14t32.5 26q11 16 11 36q-42 -9 -83 -9h-15q-42 2 -87.5 16t-81.5 52q-22 23 -36.5 55.5t-20.5 67.5q-5 28 -5 55v17q2 36 13 67 q14 38 32 64.5t35 43.5q19 20 40 34q49 29 105 38q31 5 60 5q25 0 50 -4q54 -7 101.5 -28.5t80.5 -52.5q28 -27 47 -59.5t30.5 -68.5t16.5 -72.5t7 -70.5q1 -13 1 -27q0 -67 -13 -137q-12 -68 -37 -115.5t-57.5 -78.5t-70 -48t-74.5 -24q-38 -8 -78 -8q-54 0 -113 14z M363 259q-17 0 -29 -13q-11 -11 -11 -25q0 -23 13 -33q10 -8 27 -8t28 10t11 27q0 16 -10 29t-29 13z" />
<glyph unicode="h" horiz-adv-x="731" d="M696 230v-16q0 -49 -11 -91q-6 -21 -15.5 -41.5t-25.5 -38t-37.5 -30.5t-51.5 -18l-12 -1q-12 -1 -30.5 1t-40 8.5t-40.5 22t-32.5 41.5t-15.5 66q-4 39 -8 70q-5 26 -11 48.5t-16 22.5q3 -37 3 -64q1 -9 1 -17q0 -16 -1 -29q-1 -22 -2 -38q-5 -38 -23 -67 q-15 -26 -44.5 -46.5t-81.5 -20.5t-82 21.5t-46 47.5q-18 31 -24 70q-8 60 -12 133q-2 42 -2 94q0 25 1 54q1 84 13 185q4 45 22 80q7 15 18 29t27 25t37 17.5t48 6.5q46 -1 78 -21t51.5 -57t27.5 -89q6 -38 6 -83q0 -16 -1 -34q72 35 133 35q12 0 23 -1q30 -3 59.5 -18 t53.5 -46.5t41 -82.5t23 -128z" />
<glyph unicode="i" horiz-adv-x="389" d="M304 663v-9q0 -17 -6 -34q-7 -21 -21.5 -37.5t-35.5 -27t-46 -13.5q-8 -1 -16 -1q-17 0 -33 5q-22 6 -40 19t-29.5 31.5t-14.5 41.5v9q0 17 6 33q7 21 22 37.5t36 27.5t46 14q8 1 16 1q16 0 32 -4q22 -7 40 -20t30 -32t14 -41zM347 101q-8 -45 -31 -68.5t-47 -34.5 q-29 -12 -62 -13h-11q-35 0 -59 11q-27 14 -43 31q-18 19 -29 45q-20 54 -23 112q-2 23 -2 45q0 32 3 60q5 55 18 108q12 46 35.5 69.5t46.5 34.5q27 12 57 13h9q40 0 65 -16q29 -17 46 -40q19 -26 28 -62q7 -33 11 -77q2 -25 2 -58q0 -16 -1 -35q-1 -54 -13 -125z" />
<glyph unicode="j" horiz-adv-x="514" d="M424 603q-11 -20 -29 -34.5t-42 -22.5q-21 -7 -45 -7h-6q-27 1 -50 11.5t-40 26.5t-26 37q-8 19 -8 40v5q1 23 12.5 43t30 34.5t41.5 21.5q21 7 45 7h6q27 -1 50 -11t40 -26.5t26 -37.5q8 -19 8 -39q0 -26 -13 -48zM456 -69q15 94 18 177q2 41 2 77.5t-2 67.5 q-4 73 -12 135q-3 34 -21 60q-15 23 -47 42t-89 19q-38 -1 -68 -13q-26 -11 -48.5 -35t-24.5 -71q-4 -84 -5.5 -142.5t-1.5 -99.5v-70q0 -28 -2 -50q0 -37 -5 -66q-5 -25 -15.5 -46.5t-31.5 -24.5q-20 -4 -34 -15q-12 -9 -21 -27q-7 -13 -7 -33q0 -7 1 -14q1 -20 12 -38 q9 -15 28 -29.5t55 -19.5q28 -4 56 -4q15 0 31 1q37 3 78 16t73 45q25 24 40.5 51.5t24.5 51.5q11 27 16 55z" />
<glyph unicode="k" horiz-adv-x="738" d="M361 543q23 31 46 50t44 28t40 11h10q14 0 26 -3q39 -9 73 -40q18 -20 26 -41q9 -21 9 -44q0 -19 -5 -37q-6 -20 -15 -38q-20 -42 -59 -82q27 -17 53 -43t46.5 -56t33.5 -62.5t15 -63.5v-7q0 -27 -10 -51q-12 -27 -40 -46q-35 -24 -66 -28q-9 -1 -17 -1q-22 0 -41 7 q-27 10 -50.5 30t-42.5 44q-45 57 -78 146q1 -11 1 -22q0 -55 -13 -98q-6 -22 -17.5 -43t-29 -36.5t-42.5 -24.5q-21 -6 -47 -6h-13q-38 2 -63 23t-41 45q-18 28 -29 63q-21 84 -24 171q-1 32 -1 62q0 51 3 96q5 84 20 162q5 20 12.5 44t22.5 45t39 35.5t63 16.5h7 q27 0 48 -7q24 -8 41.5 -22.5t29 -33t18.5 -37.5q17 -46 17 -106z" />
<glyph unicode="l" horiz-adv-x="394" d="M39 202q-7 57 -7 119.5t3 116.5q3 62 9 122q6 55 24 99q8 18 19.5 36t27.5 32t37.5 22.5t48.5 8.5q38 -1 71 -24q13 -10 27 -25t25.5 -38t20 -54t11.5 -72q6 -80 6 -153t-2 -130q-3 -67 -9 -125q-5 -44 -23 -77q-8 -14 -19.5 -28t-28 -24.5t-38.5 -16.5q-19 -5 -42 -5h-8 q-26 1 -46.5 10.5t-36.5 24.5t-27 34.5t-19 39.5q-18 47 -24 107z" />
<glyph unicode="m" horiz-adv-x="994" d="M813 500q37 -12 62 -35t41 -53t24.5 -64.5t11.5 -68.5q2 -27 2 -55q0 -56 -9 -119q-9 -34 -26 -60q-15 -23 -40 -41t-66 -18q-38 0 -64 15t-43 37.5t-26.5 49t-14 50.5t-5 41.5t-0.5 21.5q0 -4 -2 -22t-8 -42t-16.5 -51t-29 -50t-46 -38t-65.5 -15t-65.5 15.5t-46.5 38.5 t-30.5 50.5t-17.5 52.5t-8.5 43t-2.5 22q0 -4 -1 -22t-5 -42t-13 -51.5t-25 -50.5t-40.5 -38t-58.5 -15q-46 0 -73 19.5t-41 43.5q-17 27 -22 63q-5 46 -5 89t5 82q4 33 12 67t22 63.5t35.5 52t52.5 34.5q53 20 97 20h4q46 -1 81.5 -16t61.5 -39.5t44 -50t27.5 -48.5 t12.5 -34q3 11 12.5 33t26.5 46.5t42 48t60 38.5t79 18h11q40 0 89 -16z" />
<glyph unicode="n" horiz-adv-x="716" d="M699 230v-16q0 -49 -11 -91q-6 -21 -15.5 -41.5t-25.5 -38t-37.5 -30.5t-51.5 -18l-12 -1q-12 -1 -30.5 1t-40 8.5t-40.5 22t-32.5 41.5t-15.5 66q-4 39 -8 70q-5 26 -11 48.5t-16 22.5q3 -37 4 -64v-17q0 -16 -1 -29q-1 -22 -2 -38q-5 -37 -23 -66q-15 -25 -44.5 -46 t-81.5 -22q-25 0 -44.5 5.5t-34.5 15.5t-26.5 22.5t-19.5 25.5q-19 31 -27 70q-7 27 -11 62q-4 30 -5 72v14q0 37 4 82q5 42 23 76q7 14 18 28t26 25.5t34.5 19t44.5 9.5q13 1 25 1q28 0 47 -5q29 -7 47 -18.5t27.5 -25t16.5 -25.5q85 46 155 46h9q31 -1 62 -13.5t56.5 -42 t43.5 -79.5t24 -127z" />
<glyph unicode="o" horiz-adv-x="586" d="M540 116q-16 -29 -37.5 -50.5t-41.5 -35.5q-23 -17 -47 -27q-20 -8 -38.5 -12.5t-32.5 -6.5q-17 -3 -30 -3q-55 0 -96.5 11t-72.5 28.5t-52.5 40.5t-34.5 47q-33 55 -36 127q0 58 12.5 100.5t33 73t47 50.5t53.5 32q58 25 130 25h16q48 0 85 -11t64.5 -29t46 -40.5 t30.5 -46.5q28 -55 32 -126q0 -47 -8.5 -83t-22.5 -64zM307 274q-17 0 -29 -13q-11 -11 -11 -25q0 -23 13 -33q10 -8 27 -8t28 10t11 27q0 16 -10 29t-29 13z" />
<glyph unicode="p" horiz-adv-x="686" d="M35 -76q-8 68 -8 133q0 30 2 59q2 40 8.5 82.5t18.5 84t30.5 80t45.5 69.5q35 40 88 63t112 29q21 2 42 2q38 0 76 -6q59 -11 107 -38q24 -15 45 -36q18 -18 35.5 -45t27.5 -63q9 -34 9 -78q0 -38 -8 -76q-8 -41 -25 -76.5t-43 -57.5q-24 -20 -49 -32t-49.5 -18t-47.5 -7 h-14q-15 0 -28 1q-47 4 -90 24q9 -51 9 -94q0 -21 -2 -41q-3 -25 -11 -49t-23 -43t-38.5 -30.5t-57.5 -11.5q-27 0 -48 7.5t-37.5 19.5t-28.5 27.5t-21 32.5q-20 39 -27 88zM367 274q-17 0 -29 -13q-11 -11 -11 -25q0 -23 13 -33q10 -8 27 -8t28 10t11 27q0 16 -10 29 t-29 13z" />
<glyph unicode="q" horiz-adv-x="722" d="M541 -244q-32 0 -55.5 11.5t-39 30.5t-25 43t-14.5 49q-7 36 -7 78q0 27 3 57q-43 -22 -91 -28q-17 -3 -36 -3h-7q-23 1 -47.5 6.5t-49.5 17.5t-49 32q-30 24 -48 60.5t-25 77.5q-6 30 -6 61v20q3 41 14 76q12 38 33 65.5t41 46.5q24 22 50 38q56 29 123 37q29 3 57 3 q38 0 74 -5q64 -11 118 -38.5t84 -69.5q21 -30 35.5 -68.5t23 -80t12.5 -84.5t5 -83v-25q0 -83 -11 -170q-8 -44 -27 -78q-17 -29 -49 -53t-86 -24zM377 274q-17 0 -29 -13q-11 -11 -11 -25q0 -23 13 -33q10 -8 27 -8t28 10t11 27q0 16 -10 29t-29 13z" />
<glyph unicode="r" horiz-adv-x="609" d="M317 448q26 37 56.5 52.5t56.5 19.5q12 2 25 2q18 0 36 -4q30 -8 49 -23t29 -33t14 -36t4 -31v-6q0 -28 -9 -49q-9 -24 -20 -38q-13 -18 -31 -28q-30 -18 -59 -18h-4q-30 1 -55 9q-29 10 -55 28q6 -46 6 -83v-22q-3 -45 -12.5 -77.5t-24.5 -54t-32 -34.5q-38 -29 -89 -29 h-7h-10q-36 0 -60 13q-27 15 -44 34q-19 22 -30 50q-18 54 -23 112q-5 43 -5 80q0 13 1 26q1 56 9 110q11 48 35.5 72.5t50.5 35.5q30 12 66 12h10q35 0 58 -12q26 -15 40 -32q17 -20 24 -46z" />
<glyph unicode="s" horiz-adv-x="561" d="M330 318q43 -6 76 -16t56.5 -23t39 -27.5t24.5 -28.5q22 -33 22 -73q0 -33 -9.5 -58.5t-25 -44t-35 -31.5t-39.5 -22q-48 -20 -109 -25q-19 -1 -36 -1q-34 0 -62 3q-41 4 -71 12t-50.5 19t-32.5 23q-29 28 -29 65v6q0 21 7 38q7 19 20.5 33t30.5 23.5t35 15.5 q42 14 97 16q-68 16 -103 41t-50 48q-18 27 -18 57q1 32 13 56t30.5 41.5t41 29t46.5 19.5q55 18 125 18q70 -2 113.5 -11.5t67.5 -26t32 -38.5q7 -19 7 -40v-5q-1 -23 -11 -39t-25 -26.5t-34 -17t-39 -9.5q-25 -4 -54 -4q-24 0 -51 3z" />
<glyph unicode="t" horiz-adv-x="692" d="M205 583q-3 19 -3 37q0 27 7 51q5 16 14 32t25 28t39 19.5t55 7.5q31 0 54 -7.5t38.5 -20.5t25.5 -29t16 -32q11 -32 11 -70q0 -9 -1 -18q11 1 21 1q40 0 74 -10q18 -5 35 -14.5t30.5 -24t21.5 -35.5t8 -50q0 -27 -7.5 -46.5t-20.5 -33.5t-29 -23t-32 -14 q-34 -10 -75 -10h-14q5 -47 5 -89t-5 -78q-4 -31 -12.5 -61t-23.5 -53t-38 -37.5t-55 -14.5q-64 0 -96.5 27.5t-44.5 74.5q-11 41 -11 91v17q2 61 7 129q-27 -4 -51 -4q-27 0 -50 5q-19 4 -37 12t-32 22t-22.5 35t-8.5 51q0 42 18.5 68t46.5 41t59.5 20.5t57.5 5.5z" />
<glyph unicode="u" horiz-adv-x="680" d="M205 514q29 -4 52 -19q20 -13 36.5 -39t18.5 -72q0 -17 0.5 -38t3 -39t9 -30.5t19.5 -12.5q23 0 26.5 28.5t4.5 91.5q0 49 18 76t39 39q25 14 57 16h11q42 0 68 -15q28 -16 44 -37q18 -25 25 -57q8 -40 8 -78q0 -11 -1 -23q-3 -48 -11 -86q-10 -44 -26 -83 q-19 -44 -53 -78q-15 -15 -34 -29t-44 -24.5t-55 -16.5q-26 -5 -57 -5h-10q-78 2 -128.5 18.5t-80.5 35.5q-35 22 -53 50q-31 45 -41 100q-9 50 -9 94v9q0 56 11 113q11 49 36 73t51 32q21 7 45 7q10 0 20 -1z" />
<glyph unicode="v" horiz-adv-x="668" d="M340 303q8 69 34 120q11 21 26.5 40.5t36.5 33t49 18.5q11 2 24 2q18 0 38 -4q31 -7 50.5 -22.5t29 -36t12.5 -44.5q1 -12 1 -23q0 -13 -2 -26q-6 -57 -36 -125q-32 -68 -72 -121q-17 -23 -38 -44.5t-45 -38.5t-51 -27.5t-57 -10.5q-42 0 -78 15.5t-66.5 40.5t-54.5 55.5 t-42.5 61.5t-31 58t-19.5 45q-11 26 -18 64q-4 20 -4 39q0 17 3 34q6 36 30 65t76 40q15 3 29 3t26 -3q25 -6 45.5 -19.5t36 -33t27.5 -40.5q27 -49 41 -116z" />
<glyph unicode="w" horiz-adv-x="875" d="M443 130q-6 -40 -25 -72q-17 -27 -51 -49.5t-93 -22.5q-42 0 -72.5 18t-50.5 40q-24 26 -39 58q-25 48 -39 93.5t-22 82.5q-9 42 -12 81q-1 12 -1 24q0 44 16 70q19 33 45 50q30 18 70 23q36 0 63.5 -10t47 -26.5t32.5 -38t21 -43.5q18 -52 19 -118v11q0 37 12 57 q14 23 32 34q21 12 48 13q40 -1 60.5 -18.5t29.5 -39.5q11 -26 11 -57q0 46 7 81t18 60.5t25.5 42t29.5 27.5q35 25 80 25q28 0 49.5 -7.5t36.5 -19t25.5 -26t16.5 -29.5q14 -36 14 -81q-2 -63 -13 -112.5t-22 -83.5q-14 -40 -30 -70q-24 -44 -52.5 -66t-54.5 -32 q-30 -11 -59 -12q-32 0 -56.5 6t-43 16t-31 22.5t-20.5 26.5q-19 32 -22 72z" />
<glyph unicode="x" horiz-adv-x="624" d="M313 429q30 45 67 70q16 10 34 17t37 7q2 0 3 -1q21 0 44 -9.5t48 -31.5q20 -18 29.5 -37t10.5 -38q1 -5 1 -9q0 -15 -3 -28q-5 -18 -13 -34q-18 -38 -55 -73q44 -38 64 -78q9 -18 14 -38q2 -11 2 -23q0 -9 -2 -19q-3 -21 -16 -43.5t-40 -44.5q-33 -28 -62 -36 q-20 -6 -37 -6q-9 0 -17 2q-25 4 -45.5 18t-35 30.5t-24 32t-12.5 23.5q-27 -49 -60 -76q-14 -12 -31.5 -19.5t-37.5 -8.5h-2q-18 0 -40 9t-46 31q-27 24 -40.5 47t-17.5 45q-1 10 -1 20t1 20q4 19 12 36q18 39 60 72q-35 35 -52 73q-7 16 -11 35q-3 12 -3 25q0 6 1 13 q2 19 11.5 39t30.5 40q26 25 50 35.5t45 11.5h6q18 0 35 -6q19 -7 34 -18q36 -26 64 -75z" />
<glyph unicode="y" horiz-adv-x="711" d="M606 505q31 -14 49 -47q7 -14 12 -33.5t5 -45.5t-6.5 -59.5t-21.5 -75.5q-29 -78 -58.5 -141.5t-54.5 -108.5q-29 -53 -56 -94q-28 -49 -64 -82q-15 -14 -33.5 -25.5t-39.5 -16.5q-16 -5 -33 -5q-6 0 -13 1q-23 2 -49 15q-33 16 -48 41t-18 54q-1 10 -1 19q0 21 4 43 q7 32 16.5 60t19.5 50l17 35q-6 6 -12.5 11.5t-11.5 10.5q-6 5 -11 10q-33 25 -59 51t-43 48q-20 26 -35 49q-23 37 -29 76q-2 12 -2 25v10q1 18 7 37t19.5 38.5t36.5 37.5q32 18 67 20h8q11 0 24 -2q17 -3 35.5 -12t38 -24.5t39.5 -40.5q17 -21 31 -42l28 -40q11 20 32 55 t51 64t70 43q15 5 32 5q27 0 57 -14z" />
<glyph unicode="z" horiz-adv-x="601" d="M180 306h-6q-41 0 -73 12q-15 6 -28.5 15t-24 22.5t-16.5 32.5q-4 15 -4 33v13q2 36 29 64q12 12 30.5 23t46 19.5t65.5 13.5q31 3 70 3h18q68 -2 113.5 -12t72.5 -26.5t37 -40.5q6 -15 6 -32q0 -9 -2 -19q-6 -25 -21 -53q-13 -24 -36.5 -55.5t-63.5 -65.5q48 -1 87 -14 q16 -6 32 -15.5t28.5 -23t20 -33t7.5 -44.5q0 -51 -23 -79t-59.5 -40.5t-81 -15t-87.5 -2.5t-85.5 1.5t-78 10t-61.5 26.5t-35 51q-5 19 -5 37v10q2 22 9.5 42.5t19.5 39t25 34.5q31 37 74 68z" />
<glyph unicode="{" horiz-adv-x="568" d="M433 58q27 -6 37 -20t12 -29v-8q0 -14 -5 -30q-6 -19 -23 -30.5t-35 -18.5q-21 -8 -46 -11q-15 -1 -28 -1q-23 0 -39 4q-27 7 -44 16q-19 11 -31 25q-20 26 -24 56q-2 15 -2 29t2 27q4 30 16 60q9 25 11 46v7q0 14 -6 26q-7 16 -30 21q-25 2 -45 15q-17 11 -31.5 34.5 t-15.5 65.5v2v2q1 42 15.5 65t31.5 34q20 12 45 15q23 4 30 20q6 13 6 27v7q-2 21 -11 46q-12 30 -16 60q-2 13 -2 27t2 29q4 30 24 56q12 15 31 26q17 9 44 16q18 4 43 4q11 0 24 -1q25 -4 46 -12q18 -7 35 -18.5t23 -30.5q5 -16 5 -30v-8q-2 -15 -12 -29t-37 -19 q-19 -6 -29 -23q-8 -13 -8 -38q0 -29 23 -76q13 -27 13 -50v-8q-3 -26 -13 -44.5t-23 -30.5t-19 -16q6 -4 19 -16t23 -31t13 -45v-7q0 -23 -13 -50q-23 -48 -23 -77q0 -25 8 -38q10 -17 29 -22z" />
<glyph unicode="|" horiz-adv-x="258" d="M200 8q-5 -29 -18 -43.5t-27 -20.5q-17 -7 -36 -7h-9q-16 0 -30 5q-15 6 -27.5 20.5t-14.5 45.5q-5 91 -6 191v40q0 79 2 153q2 93 5.5 170t8.5 122q4 35 17 54t28 27q17 10 38 10q22 -1 40 -12q15 -9 28.5 -27.5t15.5 -53.5q7 -120 7 -226v-39q-2 -122 -7 -213 q-5 -106 -15 -196z" />
<glyph unicode="}" horiz-adv-x="517" d="M123 67q19 5 29 22q8 13 8 38q0 29 -23 76q-13 27 -13 50v8q3 26 13.5 44.5t23.5 30.5t19 16q-6 4 -19 16t-23.5 31t-13.5 45v7q0 23 13 50q23 47 23 77q0 25 -8 38q-10 17 -29 22q-27 5 -37 19.5t-12 29.5v7q0 15 6 31q5 19 22 30.5t35 18.5q21 8 46 12q12 1 23 1 q25 0 44 -5q28 -7 45 -16q19 -11 31 -25q20 -26 24 -56q1 -14 1 -27q0 -15 -2 -29q-4 -30 -16 -60q-10 -25 -11 -46v-7q0 -14 6 -27q7 -16 30 -20q26 -3 46 -16q17 -11 31.5 -34t15.5 -65v-2v-2q-1 -42 -15.5 -65t-31.5 -34q-20 -13 -46 -15q-23 -5 -30 -20q-6 -13 -6 -27 v-7q1 -21 11 -46q12 -30 16 -60q2 -14 2 -29q0 -13 -1 -27q-4 -30 -24 -56q-12 -15 -31 -26q-17 -9 -45 -16q-17 -4 -40 -4q-12 0 -27 1q-25 4 -46 12q-18 7 -35 18.5t-22 30.5q-6 16 -6 31v7q2 15 12 29t37 20z" />
<glyph unicode="~" horiz-adv-x="496" d="M425 214q-15 -27 -34 -41t-39 -19q-12 -3 -25 -3q-8 0 -15 1q-21 3 -40 10q-45 17 -92 56q-9 -34 -25.5 -47.5t-33.5 -16.5q-7 -1 -14 -1q-13 0 -27 4q-13 4 -23.5 14t-16.5 23t-8 27v6q0 11 4 21q18 54 52 80q15 11 34 18q14 4 30 4q7 0 16 -1q25 -3 57 -17.5t71 -44.5 q1 -1 1 -2t1 -2q10 29 33 45q14 11 32 11q10 0 22 -4q25 -9 40 -25q13 -14 17 -38v-7q0 -21 -17 -51z" />
<glyph unicode="&#xa1;" horiz-adv-x="446" d="M387 105q-8 45 -28 80q-17 30 -49.5 55t-84.5 25q-48 0 -78 -19.5t-48 -42.5q-21 -27 -33 -61q-8 -34 -12 -74q-2 -23 -2 -50v-28q2 -44 14 -92q12 -51 38.5 -79t53.5 -42q32 -16 67 -18q29 0 52 7t40 18t29.5 25.5t20.5 29.5q19 35 25 80q3 34 4 67v20q0 20 -1 41 q-2 32 -8 58zM96 436q0 22 10 42t28 34.5t41.5 23t50.5 8.5t50.5 -8.5t41 -23t27.5 -34.5t10 -42q0 -23 -10 -42.5t-27.5 -34t-41 -23t-50.5 -8.5t-50.5 8.5t-41.5 23t-28 34t-10 42.5z" />
<glyph unicode="&#xa2;" horiz-adv-x="555" d="M514 314q12 -24 12 -49q0 -22 -12 -47.5t-47 -51.5q-11 -8 -26 -15q-13 -6 -31.5 -12.5t-41.5 -11.5q-1 -12 -1 -22.5t-2 -19.5q-3 -34 -14 -51t-22 -25q-14 -9 -30 -9q-18 1 -32 11q-12 8 -22.5 25.5t-12.5 50.5q-1 11 -1 21.5t-1 21.5l-34 11q-17 6 -35 14 q-34 17 -60 48q-23 26 -41.5 69.5t-18.5 108.5q0 54 18 102q7 20 19.5 41t30.5 40t43 35t58 26q2 1 6 2q3 1 7 1.5t10 2.5q1 9 1 17.5t1 16.5q3 33 13.5 50.5t22.5 25.5q14 9 31 9q18 -1 32 -11q12 -8 22 -26t12 -50q0 -8 0.5 -15t0.5 -14q29 -6 57 -19t54 -37 q12 -12 20 -29q6 -14 8 -35q1 -5 1 -9q0 -19 -8 -41q-9 -21 -27 -35q-15 -12 -41 -20q-13 -4 -30 -4t-37 4q-16 4 -28 4h-5q-13 -1 -23 -7t-10 -24q1 -13 8 -20q6 -7 20 -9h4q13 0 35 8q25 10 49 10h4q23 -1 48.5 -12.5t45.5 -44.5z" />
<glyph unicode="&#xa3;" horiz-adv-x="705" d="M149 265q-18 -2 -33 -2q-4 0 -8 1q-17 0 -34 11q-20 12 -27 29t-8 34v6q0 16 4 33q9 25 25.5 36t33.5 15q13 3 27 3q7 0 14 -1q1 44 7 76.5t14 55.5q9 26 19 45q16 29 37.5 48t46 30.5t51 17t52.5 6.5h19q50 0 106 -13q48 -17 76 -49t43 -61q16 -31 16 -55v-7 q-3 -27 -13 -45q-11 -21 -32 -36q-18 -12 -37 -15q-11 -3 -22 -3q-6 0 -12 1q-16 2 -28 8.5t-18 15.5l-12 18q-7 9 -15 16t-18 10t-24 -1t-20 -14t-8 -21q-3 -13 -1 -28q15 2 28 2q15 0 27 -3q21 -5 34 -13q14 -9 22 -22q13 -20 13 -41q0 -16 -5 -29q-5 -18 -16 -33 q-13 -16 -31 -21t-35 -5q-20 0 -42 5q-3 -20 -2 -31t3 -17q3 -7 7 -9q21 -10 44 -15q17 -5 38 -5q2 0 4 1q23 0 44 12q29 17 51 18q7 1 12 1q15 0 26 -3q18 -5 29 -16q31 -28 37 -54q4 -15 4 -29q0 -10 -2 -19q-5 -25 -23 -47q-18 -20 -39 -33.5t-43.5 -21t-45 -10.5 t-43.5 -3q-48 0 -98 13q-21 8 -47 11q-8 1 -18 1q-16 0 -35 -2q-31 -4 -67 -20q-31 -14 -55 -14q-12 0 -22 4q-30 10 -47 31q-20 25 -30 62q-2 14 -2 25q0 8 1 14q2 18 9 31.5t16.5 23t20.5 15.5q26 15 60 19q-4 8 -4.5 19t-0.5 21q0 11 2 22z" />
<glyph unicode="&#xa5;" d="M715 529q-10 -56 -39 -89.5t-61 -51.5q-37 -21 -82 -29q8 -23 13 -51q23 -1 40 -1h32q15 0 28 -1q20 0 29.5 -8t14.5 -17q5 -11 5 -24q-1 -12 -5 -22q-4 -8 -12 -15t-22 -9q-20 -2 -46.5 -3t-58.5 -2q-1 -6 -1.5 -12t-1.5 -11q22 -1 40 -1h31q15 0 27 -1q20 0 29.5 -8 t14.5 -17q5 -11 5 -24q-1 -11 -5 -21q-4 -8 -12 -15.5t-22 -8.5q-23 -2 -56 -3l-76 -4q-3 -9 -6 -15.5t-5 -11.5q-3 -5 -4 -9q-17 -31 -49 -45t-71 -14q-32 0 -55.5 7t-38.5 16q-18 10 -30 23q-19 22 -29 49q-29 1 -54.5 1.5t-47.5 2.5q-19 1 -28.5 8t-14.5 15q-5 10 -6 21 q0 14 5 25q5 10 15.5 18t31.5 9q19 1 38 1.5t39 0.5q0 6 -0.5 12t-0.5 11q-22 1 -42 1.5t-37 1.5q-19 1 -28.5 8.5t-14.5 15.5q-5 10 -6 21q0 16 6 27q5 10 16 18t33 8q19 0 37.5 0.5t39.5 0.5q1 11 2 19t2 14q1 7 2 12q-54 10 -97 33q-18 10 -36 23t-32.5 31t-24 40.5 t-11.5 51.5q-1 10 -1 19q0 21 3 38q5 25 14.5 44t22 32.5t26.5 22.5q32 21 74 28h9q29 0 54 -6q28 -7 50.5 -19.5t39 -29t28.5 -34.5q28 -41 40 -95q21 76 55.5 114t67.5 52q32 14 65 14q8 0 16 -1q29 -4 50 -13.5t35.5 -23t23.5 -29.5t14 -32q8 -26 8 -56q0 -13 -2 -27z " />
<glyph unicode="&#xaa;" horiz-adv-x="234" d="M129.444 632.574q2.35742 7.03809 6.77637 12.3174q3.83008 4.69238 10.1641 8.65137t16.6455 3.95898q8.25 0 14.4365 -3.22559q6.1875 -3.22559 10.9014 -8.50488t7.9541 -12.0244q3.24121 -6.74512 5.30273 -13.7842q5.00879 -16.4229 5.59863 -37.2451 q0.293945 -6.15918 0.293945 -12.0244q0 -9.38477 -0.883789 -17.0098q-1.47266 -12.6113 -4.27148 -21.5557q-2.79883 -8.94531 -6.62891 -14.957t-7.95508 -9.53125q-9.13281 -7.91895 -20.918 -7.91895h-1.76758h-1.47266q-7.07129 0 -13.5527 2.63965 q-5.89258 2.34668 -11.4902 8.06543t-7.07031 16.8633q-2.94629 -8.79883 -10.6064 -14.957q-6.48145 -5.2793 -18.2656 -9.0918q-7.36621 -2.3457 -17.3828 -2.3457q-6.48145 0 -13.8467 0.879883q-15.9092 1.75879 -28.2832 9.38477q-5.30371 3.22559 -10.459 8.21094 q-5.15625 4.98633 -9.13379 12.3174q-3.97656 7.33203 -6.33398 17.0107q-2.35645 9.67773 -2.35645 22.2881v3.8125q0 19.6494 5.59766 36.0732q2.65137 7.625 7.07031 15.1035t11.1953 13.6367q6.77637 6.15918 16.2041 10.4121q9.42773 4.25195 22.3906 5.4248 q5.00879 0.586914 9.42773 0.586914q10.0176 0 17.0879 -2.63965q10.0176 -3.22559 15.9092 -7.91797q6.77637 -5.2793 9.72266 -12.9043zM116.481 586.53q-5.00879 0 -8.54395 -3.8125q-3.24121 -3.22656 -3.24121 -7.33203q0 -6.74512 3.83008 -9.67773 q2.94629 -2.34668 7.95508 -2.34668t8.24902 2.93262q3.24121 2.93262 3.24121 7.91895q0 4.69238 -2.94629 8.50488t-8.54395 3.8125z" />
<glyph unicode="&#xad;" horiz-adv-x="526" d="M395 404q34 -9 53 -26t27 -34q10 -20 11 -42v-12q0 -18 -4 -34q-5 -19 -20.5 -37t-47.5 -27q-74 -20 -138 -20t-135 11q-35 5 -54.5 22t-27.5 35q-11 21 -11 46v9q0 21 7 40q8 20 26.5 39t58.5 28q51 11 97 12q20 1 37 1q24 0 44 -1q41 -3 77 -10z" />
<glyph unicode="&#xb0;" horiz-adv-x="390" d="M350 570q0 -31 -11 -58t-31 -47.5t-47 -32t-60 -11.5t-60.5 11.5t-47.5 32t-31 47.5t-11 58t11 58t31 47t47.5 32t60.5 12t60 -12t47 -32t31 -47t11 -58zM201 654q-21 0 -37 -8t-26.5 -20.5t-16 -28t-5.5 -30.5q0 -32 21 -54t64 -22q42 0 62 22t20 54q0 40 -23 63.5 t-59 23.5z" />
<glyph unicode="&#xb2;" horiz-adv-x="194" d="M76.5215 716.65q5.69629 0.31543 11.0762 0.31543q14.874 0 25.6338 -3.1543q14.5576 -4.41504 23.1025 -10.7217q10.127 -7.25391 15.1904 -17.0303q5.69629 -10.4072 7.59473 -20.499q1.58301 -7.88379 1.2666 -15.1377v-5.0459q-0.632812 -9.77637 -3.32324 -18.9219 q-2.68945 -9.14551 -6.1709 -17.0303q-8.54492 -18.6064 -23.1025 -35.3213q14.2412 -0.31543 25.6338 -4.73047q4.74707 -1.89258 9.33594 -5.0459t8.07031 -7.72656q3.48047 -4.57324 5.69629 -10.8799q1.89844 -5.67676 1.89844 -12.6152v-2.20703 q-0.316406 -8.2002 -4.27246 -14.1914q-3.95508 -5.99219 -10.4434 -10.0918q-6.4873 -4.10059 -14.5576 -6.78125q-8.06934 -2.68066 -16.2979 -4.25684q-16.4561 -2.83887 -36.71 -2.83887h-7.5957q-25.3164 0 -39.2412 5.83496q-13.9248 5.83398 -20.8867 12.7725 q-8.22852 8.19922 -9.81055 18.6064q-0.632812 4.41504 -0.632812 8.19922q0 8.2002 2.21484 14.5068q3.48145 9.77637 9.81055 17.3457q6.3291 7.56836 14.874 14.1914l18.0381 14.5068q4.43066 3.78418 8.22852 8.2002q3.79785 4.41504 6.1709 9.30273 q2.37402 4.88867 2.37402 9.77637q0 4.88867 -3.16504 9.30371q-4.11426 5.36133 -9.49414 6.93848q-3.79688 1.57617 -7.59473 1.57617q-1.2666 0 -2.53223 -0.31543q-5.69629 -0.630859 -11.709 -2.83789q-3.79785 -0.946289 -6.96191 -0.946289 q-6.01367 0 -9.81055 2.52344q-6.01367 4.09961 -9.17773 9.77637q-3.48145 6.30664 -5.06348 15.4531v1.8916q0 6.62305 2.21484 12.6152q2.53223 6.30762 6.80469 11.1953q4.27148 4.88867 9.81055 8.67285q5.53809 3.78418 11.5508 6.30762 q13.9248 5.99121 31.9629 8.51465z" />
<glyph unicode="&#xb3;" horiz-adv-x="210" d="M102.917 709.037q5.40918 0.300781 10.5166 0.300781q11.7188 0 22.2354 -1.50195q12.9209 -1.80273 25.3906 -6.61035t18.1787 -14.7236q5.4082 -9.91602 5.4082 -18.9297v-2.4043q-0.901367 -10.2158 -4.20703 -18.0283q-3.90527 -9.31543 -10.8164 -17.4277 q11.418 -5.4082 18.4795 -13.8223q7.06055 -8.41309 10.666 -16.5264q4.20703 -9.61523 5.70996 -19.5303q0.600586 -6.31055 0.600586 -11.7188q0 -13.8223 -3.60547 -24.0381q-5.1084 -14.4229 -12.6201 -23.1367q-8.71387 -10.2158 -20.4326 -16.5264 q-22.5361 -9.61523 -42.9678 -9.91504h-3.00488q-18.6299 0 -33.0527 3.30469q-18.3291 4.20703 -33.6533 12.9209q-6.91113 4.50684 -10.8174 9.16406q-3.90527 4.65723 -5.70898 9.16504q-2.10254 4.80762 -2.10254 9.91504q0 3.60645 0.901367 6.61035 q2.10254 8.41406 9.31445 16.2266q6.30957 6.30957 13.8223 6.91016q2.40332 0.300781 4.80762 0.300781q4.80762 0 9.01367 -0.901367q7.51172 -1.80273 15.0244 -6.30957q6.91016 -4.20703 12.3193 -5.1084q3.30469 -0.300781 5.70898 -0.300781 q2.10352 0 3.90625 0.300781q4.50684 0.901367 7.8125 3.30469q3.30469 3.00488 4.35645 6.31055q1.05176 3.30469 0.750977 6.00977q-0.299805 3.30469 -2.10352 6.00879q-2.10254 3.30566 -5.4082 4.95801q-3.30469 1.65332 -6.61035 2.25391 q-3.90625 0.901367 -8.11328 0.600586q-14.4229 0 -21.333 4.50781q-6.91113 4.50684 -9.91602 9.91504q-3.30566 6.31055 -3.30566 14.7236t5.25879 14.1221q5.25781 5.70898 11.8691 9.01465q7.51172 3.90625 17.127 6.30957q-8.71387 -1.20117 -15.9258 -1.20117 q-2.7041 0 -5.4082 0.299805q-9.01465 0.601562 -15.4746 2.25391t-10.667 4.20703q-4.20605 2.55371 -6.91113 5.55859q-5.70898 6.61035 -5.70898 15.625q0 7.51172 2.7041 12.7695q2.70508 5.25879 7.06152 9.01465q4.35742 3.75586 9.76562 6.45996t11.1172 4.50684 q13.2217 3.90625 30.0479 4.80762z" />
<glyph unicode="&#xb4;" horiz-adv-x="342" d="M49 667q8 10 23.5 23.5t33.5 26t37.5 23t35.5 15.5q22 7 39 8h7q12 0 21 -3q11 -3 19.5 -9.5t16.5 -13.5q8 -8 15 -21t9 -28v-6q0 -12 -5 -26q-6 -16 -25 -32q-21 -19 -49 -30.5t-54 -19.5q-30 -9 -60 -14q-11 -3 -21 -3q-5 0 -10 1q-13 2 -26 8t-21 23q-7 13 -7 26 q0 15 6 28q5 12 15 24z" />
<glyph unicode="&#xb5;" horiz-adv-x="833" d="M95 361q5 37 22 66q14 25 42 45.5t77 20.5q25 0 43.5 -6.5t31 -17t19.5 -23.5t11 -27q6 -21 6 -45q0 -14 -2 -28q0 -31 -1 -58v-7q0 -22 4 -39q3 -20 12 -31.5t27 -11.5q19 0 26 23t9 52q1 9 1 20q0 25 -4 55q-1 14 -1 26q0 40 12 62q16 29 37 42q25 14 57 14 q25 -4 44 -15.5t32.5 -28t22 -36t13.5 -38.5q10 -42 10 -93v-9q-2 -63 -14.5 -108t-32 -75.5t-44.5 -49t-50 -28.5q-38 -15 -83 -15q-25 0 -52 5q0 -46 -6 -86.5t-22 -70.5t-45 -47.5t-75 -17.5q-41 0 -65 23t-37 51q-15 33 -21 74q-11 94 -13 173q-1 39 -1 73.5t1 63.5 q3 68 9 123z" />
<glyph unicode="&#x3bc;" horiz-adv-x="833" d="M95 361q5 37 22 66q14 25 42 45.5t77 20.5q25 0 43.5 -6.5t31 -17t19.5 -23.5t11 -27q6 -21 6 -45q0 -14 -2 -28q0 -31 -1 -58v-7q0 -22 4 -39q3 -20 12 -31.5t27 -11.5q19 0 26 23t9 52q1 9 1 20q0 25 -4 55q-1 14 -1 26q0 40 12 62q16 29 37 42q25 14 57 14 q25 -4 44 -15.5t32.5 -28t22 -36t13.5 -38.5q10 -42 10 -93v-9q-2 -63 -14.5 -108t-32 -75.5t-44.5 -49t-50 -28.5q-38 -15 -83 -15q-25 0 -52 5q0 -46 -6 -86.5t-22 -70.5t-45 -47.5t-75 -17.5q-41 0 -65 23t-37 51q-15 33 -21 74q-11 94 -13 173q-1 39 -1 73.5t1 63.5 q3 68 9 123z" />
<glyph unicode="&#xb6;" horiz-adv-x="702" d="M411 681q69 -3 107 -16.5t56 -27.5q21 -18 25 -38q1 -7 1 -14q0 -18 -8 -31q-10 -19 -24 -30q-17 -13 -40 -21q12 -175 12 -311q0 -58 -3 -114t-9.5 -99.5t-18 -70t-29.5 -26.5t-30.5 26.5t-21 70t-13.5 99.5t-7 114q-2 68 -2 146t2 165h-24q2 -70 2 -134q0 -95 -4 -177 q-3 -58 -8 -114t-13 -99.5t-20 -70t-29 -26.5q-18 0 -30.5 18.5t-21 48.5t-13 68.5t-6.5 79.5q-3 47 -3 101t3 114q-36 0 -63 7t-47.5 18.5t-34 26.5t-22.5 31q-21 37 -24 84q0 45 15.5 77.5t41 55t57.5 36.5t66 22q57 13 126 13q26 0 55 -2z" />
<glyph unicode="&#xb9;" horiz-adv-x="170" d="M68.5703 635.88q-10.4922 -7.39453 -20.6758 -10.7842q-5.86328 -1.84766 -11.7266 -1.84766q-2.77734 0 -5.86328 0.307617q-8.94922 1.54004 -14.1953 12.3242q-3.70312 7.39453 -4.32031 14.1729q-0.308594 1.54102 -0.308594 3.38867q0 4.62207 1.54297 8.93555 q1.54297 5.85352 4.7832 10.9375t7.25195 9.39746q9.25781 10.167 23.7617 17.8701q15.7383 7.70312 28.3906 8.62695q4.32031 0.308594 8.33203 0.308594q7.71484 0 13.5781 -1.23242q10.4922 -2.15723 18.8242 -7.70312q7.40625 -5.23828 12.6523 -14.4805 q5.24609 -9.24414 8.48633 -20.7979t5.0918 -24.6484t2.46875 -26.0342q0.617188 -10.168 0.617188 -20.6436q0 -21.2588 -2.16016 -44.3672q-0.925781 -10.7842 -3.08594 -18.6406t-5.40039 -13.71q-3.24023 -5.85449 -7.09766 -9.70605 q-3.85742 -3.85059 -7.86914 -6.00781q-9.25781 -5.5459 -20.3672 -5.5459q-12.0352 0 -19.5957 5.7002t-11.8809 12.7861q-4.9375 8.01074 -7.09766 18.4863q-3.39453 16.9453 -3.39453 33.8916v3.08105q0.308594 18.1777 2.46875 32.9668q2.46875 17.2539 6.78906 32.9678 z" />
<glyph unicode="&#xba;" horiz-adv-x="586" d="M540 116q-16 -29 -37.5 -50.5t-41.5 -35.5q-23 -17 -47 -27q-20 -8 -38.5 -12.5t-32.5 -6.5q-17 -3 -30 -3q-55 0 -96.5 11t-72.5 28.5t-52.5 40.5t-34.5 47q-33 55 -36 127q0 58 12.5 100.5t33 73t47 50.5t53.5 32q58 25 130 25h16q48 0 85 -11t64.5 -29t46 -40.5 t30.5 -46.5q28 -55 32 -126q0 -47 -8.5 -83t-22.5 -64zM307 274q-17 0 -29 -13q-11 -11 -11 -25q0 -23 13 -33q10 -8 27 -8t28 10t11 27q0 16 -10 29t-29 13z" />
<glyph unicode="&#xbc;" horiz-adv-x="1569" d="M1533 288q0 -31 -12.5 -48t-26.5 -25q-17 -10 -38 -13q3 -23 3 -44q0 -33 -7 -61q-5 -20 -14.5 -38.5t-25.5 -33t-39.5 -23.5t-56.5 -9q-30 0 -52 9t-37 23.5t-24 33t-13 38.5q-7 30 -7 65q0 19 2 40q-40 0 -70 3t-51 7q-25 4 -42 11q-30 8 -45.5 26t-20.5 42 q-4 17 -4 35v16q3 28 11 56q18 65 59 142q23 40 48 68.5t50.5 47t50 29t47.5 15.5q25 5 50 5q27 0 54 -6q29 -8 50.5 -26.5t36.5 -42.5t24.5 -52.5t14.5 -56.5q9 -49 9 -106q0 -19 -1 -39q29 -1 44 -14.5t23 -30.5q9 -19 10 -43zM1170 432q-17 0 -30 -13q-10 -11 -10 -25 q0 -23 12 -33q11 -8 28 -8t28 10t11 27q0 16 -10 29t-29 13zM678 26q-13 -27 -29.5 -38t-30.5 -14q-8 -2 -16 -2q-10 0 -19 3q-17 5 -30 16q-11 10 -19 29q-6 12 -6 31q0 9 1 19q4 35 17 89t31 117t39 129l43 126l39 109q18 49 30 77q14 33 33.5 46.5t36.5 17.5q8 2 16 2 q13 0 26 -4q19 -3 31 -14q11 -10 17 -31q4 -11 4 -28q0 -12 -2 -28q-8 -52 -22 -107.5t-30.5 -111t-34.5 -109.5t-36 -102q-42 -114 -89 -222zM206 454q-34 -24 -67 -35q-19 -6 -38 -6q-9 0 -19 1q-29 5 -46 40q-12 24 -14 46q-1 5 -1 11q0 15 5 29q5 19 15.5 35.5 t23.5 30.5q30 33 77 58q51 25 92 28q14 1 27 1q25 0 44 -4q34 -7 61 -25q24 -17 41 -47t27.5 -67.5t16.5 -80t8 -84.5q2 -33 2 -67q0 -69 -7 -144q-3 -35 -10 -60.5t-17.5 -44.5t-23 -31.5t-25.5 -19.5q-30 -18 -66 -18q-39 0 -63.5 18.5t-38.5 41.5q-16 26 -23 60 q-11 55 -11 110v10q1 59 8 107q8 56 22 107z" />
<glyph unicode="&#xbd;" horiz-adv-x="1502" d="M1146 706q18 1 35 1q47 0 81 -10q46 -14 73 -34q32 -23 48 -54q18 -33 24 -65q5 -25 4 -48v-16q-2 -31 -10.5 -60t-19.5 -54q-27 -59 -73 -112q45 -1 81 -15q15 -6 29.5 -16t25.5 -24.5t18 -34.5q6 -18 6 -40v-7q-1 -26 -13.5 -45t-33 -32t-46 -21.5t-51.5 -13.5 q-52 -9 -116 -9h-24q-80 0 -124 18.5t-66 40.5q-26 26 -31 59q-2 14 -2 26q0 26 7 46q11 31 31 55t47 45l57 46q14 12 26 26t19.5 29.5t7.5 31t-10 29.5q-13 17 -30 22q-12 5 -24 5q-4 0 -8 -1q-18 -2 -37 -9q-12 -3 -22 -3q-19 0 -31 8q-19 13 -29 31q-11 20 -16 49v6 q0 21 7 40q8 20 21.5 35.5t31 27.5t36.5 20q44 19 101 27zM678 26q-13 -27 -29.5 -38t-30.5 -14q-8 -2 -16 -2q-10 0 -19 3q-17 5 -30 16q-11 10 -19 29q-6 12 -6 31q0 9 1 19q4 35 17 89t31 117t39 129l43 126l39 109q18 49 30 77q14 33 33.5 46.5t36.5 17.5q8 2 16 2 q13 0 26 -4q19 -3 31 -14q11 -10 17 -31q4 -11 4 -28q0 -12 -2 -28q-8 -52 -22 -107.5t-30.5 -111t-34.5 -109.5t-36 -102q-42 -114 -89 -222zM206 454q-34 -24 -67 -35q-19 -6 -38 -6q-9 0 -19 1q-29 5 -46 40q-12 24 -14 46q-1 5 -1 11q0 15 5 29q5 19 15.5 35.5 t23.5 30.5q30 33 77 58q51 25 92 28q14 1 27 1q25 0 44 -4q34 -7 61 -25q24 -17 41 -47t27.5 -67.5t16.5 -80t8 -84.5q2 -33 2 -67q0 -69 -7 -144q-3 -35 -10 -60.5t-17.5 -44.5t-23 -31.5t-25.5 -19.5q-30 -18 -66 -18q-39 0 -63.5 18.5t-38.5 41.5q-16 26 -23 60 q-11 55 -11 110v10q1 59 8 107q8 56 22 107z" />
<glyph unicode="&#xbe;" horiz-adv-x="1695" d="M1659 288q0 -31 -12.5 -48t-26.5 -25q-17 -10 -38 -13q3 -23 3 -44q0 -33 -7 -61q-5 -20 -14.5 -38.5t-25.5 -33t-39.5 -23.5t-56.5 -9q-30 0 -52 9t-37 23.5t-24 33t-13 38.5q-7 30 -7 65q0 19 2 40q-40 0 -70 3t-51 7q-25 4 -42 11q-30 8 -45.5 26t-20.5 42 q-4 17 -4 35v16q3 28 11 56q18 65 59 142q23 40 48 68.5t50.5 47t50 29t47.5 15.5q25 5 50 5q27 0 54 -6q29 -8 50.5 -26.5t36.5 -42.5t24.5 -52.5t14.5 -56.5q9 -49 9 -106q0 -19 -1 -39q29 -1 44 -14.5t23 -30.5q9 -19 10 -43zM1296 432q-17 0 -30 -13q-10 -11 -10 -25 q0 -23 12 -33q11 -8 28 -8t28 10t11 27q0 16 -10 29t-29 13zM804 26q-13 -27 -29.5 -38t-30.5 -14q-8 -2 -16 -2q-10 0 -19 3q-17 5 -30 16q-11 10 -19 29q-6 12 -6 31q0 9 1 19q4 35 17 89t31 117t39 129l43 126l39 109q18 49 30 77q14 33 33.5 46.5t36.5 17.5q8 2 16 2 q13 0 26 -4q19 -3 31 -14q11 -10 17 -31q4 -11 4 -28q0 -12 -2 -28q-8 -52 -22 -107.5t-30.5 -111t-34.5 -109.5t-36 -102q-42 -114 -89 -222zM246 709q18 1 35 1q39 0 74 -5q43 -6 84.5 -22t60.5 -49q18 -33 18 -63v-8q-3 -34 -14 -60q-13 -31 -36 -58q38 -18 61.5 -46 t35.5 -55q14 -32 19 -65q2 -21 2 -39q0 -46 -12 -80q-17 -48 -42 -77q-29 -34 -68 -55q-75 -32 -143 -33h-10q-62 0 -110 11q-61 14 -112 43q-23 15 -36 30.5t-19 30.5q-7 16 -7 33q0 12 3 22q7 28 31 54q21 21 46 23q8 1 16 1q16 0 30 -3q25 -6 50 -21q23 -14 41 -17 q11 -1 19 -1q7 0 13 1q15 3 26 11q11 10 14.5 21t2.5 20q-1 11 -7 20q-7 11 -18 16.5t-22 7.5q-13 3 -27 2q-48 0 -71 15t-33 33q-11 21 -11 49t17.5 47t39.5 30q25 13 57 21q-29 -4 -53 -4q-9 0 -18 1q-30 2 -51.5 7.5t-35.5 14t-23 18.5q-19 22 -19 52q0 25 9 42.5 t23.5 30t32.5 21.5t37 15q44 13 100 16z" />
<glyph unicode="&#xbf;" horiz-adv-x="646" d="M138 442q0 52 37 80.5t95 28.5t92.5 -32.5t34.5 -78.5q0 -54 -34.5 -83t-92.5 -29t-95 31.5t-37 82.5zM122 213q-10 -16 -22.5 -44.5t-22 -65t-13.5 -77.5q-2 -16 -2 -31q0 -25 4 -49q7 -40 26.5 -75t57.5 -59q41 -26 78.5 -40t71.5 -18q20 -3 38 -3q13 0 24 1 q30 3 54 11q57 17 102 57q28 29 43.5 55.5t21.5 50.5q5 21 5 39v6q-1 21 -7 38q-13 40 -48 73q-18 15 -36.5 21.5t-36.5 6.5q-2 1 -4 1q-16 0 -30 -5q-17 -4 -32 -11q-34 -16 -66 -46q28 47 41 89q6 18 9 36q1 11 1 21q0 8 -1 15q-2 18 -10.5 33t-25.5 26q-27 16 -50 23 q-22 6 -42 6h-2q-21 -1 -38 -8t-31 -16q-33 -22 -57 -61z" />
<glyph unicode="&#xc0;" d="M355 945q16 -5 35.5 -15.5t37.5 -23t33.5 -26t23.5 -23.5q9 -12 14 -24q5 -11 6.5 -25t-6.5 -29q-8 -17 -21 -23t-26 -8q-5 -1 -10 -1q-10 0 -21 3q-31 5 -61 14q-26 8 -53.5 19.5t-48.5 30.5q-19 16 -25 32q-5 14 -5 26v6q2 15 9 28t15 21q7 7 16 13.5t20 9.5q9 3 21 3 h7q16 -1 39 -8zM622 9q-24 -8 -50 -10q-7 -1 -15 -1q-16 0 -33 3q-27 4 -53 19q-30 18 -48.5 41.5t-29.5 46t-15 41t-5 24.5q-1 -6 -5 -24.5t-15 -41t-29.5 -46t-48.5 -41.5q-26 -15 -53 -19q-17 -3 -33 -3q-8 0 -15 1q-26 2 -50 10q-20 7 -34.5 18.5t-24 26t-16 31 t-9.5 32.5q-6 30 -6 64v17q3 71 16 130.5t32.5 109t42.5 89t45 71.5q33 48 67.5 73t64 36.5t49 13t22.5 1.5t22.5 -1.5t49 -13t64.5 -36.5t68 -73q22 -32 44.5 -71.5t42 -89t32.5 -109t16 -130.5q1 -12 1 -23q0 -30 -6 -58q-3 -16 -9.5 -32.5t-16.5 -31t-24.5 -26 t-34.5 -18.5zM377 369q-17 0 -29 -13q-11 -11 -11 -25q0 -23 13 -33q10 -8 27 -8t28 10t11 27q0 16 -10 29t-29 13z" />
<glyph unicode="&#xc1;" d="M241 852q8 10 23.5 23.5t33.5 26t37.5 23t35.5 15.5q22 7 39 8h7q12 0 21 -2q11 -4 19.5 -10.5t16.5 -13.5q8 -8 15 -21t9 -28v-6q0 -12 -5 -25q-6 -17 -25 -33q-21 -19 -49 -30.5t-54 -19.5q-30 -9 -60 -14q-11 -3 -21 -3q-5 0 -10 1q-13 2 -26 8t-21 23q-8 15 -7 29 t6 25q5 12 15 24zM622 9q-24 -8 -50 -10q-7 -1 -15 -1q-16 0 -33 3q-27 4 -53 19q-30 18 -48.5 41.5t-29.5 46t-15 41t-5 24.5q-1 -6 -5 -24.5t-15 -41t-29.5 -46t-48.5 -41.5q-26 -15 -53 -19q-17 -3 -33 -3q-8 0 -15 1q-26 2 -50 10q-20 7 -34.5 18.5t-24 26t-16 31 t-9.5 32.5q-6 30 -6 64v17q3 71 16 130.5t32.5 109t42.5 89t45 71.5q33 48 67.5 73t64 36.5t49 13t22.5 1.5t22.5 -1.5t49 -13t64.5 -36.5t68 -73q22 -32 44.5 -71.5t42 -89t32.5 -109t16 -130.5q1 -12 1 -23q0 -30 -6 -58q-3 -16 -9.5 -32.5t-16.5 -31t-24.5 -26 t-34.5 -18.5zM377 369q-17 0 -29 -13q-11 -11 -11 -25q0 -23 13 -33q10 -8 27 -8t28 10t11 27q0 16 -10 29t-29 13z" />
<glyph unicode="&#xc2;" d="M221 842q1 1 14 16t34 32t48 31.5t56 14.5q28 0 54 -14.5t47 -32.5t33.5 -33.5t13.5 -16.5q11 -15 11 -32q0 -5 -1 -10q-4 -23 -24 -37q-16 -11 -33 -11q-5 0 -10 1q-23 4 -37 24h1l-4 5l-12.5 12.5t-17 16t-21.5 14.5q-14 -9 -26 -18t-20 -17q-10 -9 -17 -16 q-11 -12 -23 -18q-11 -5 -25.5 -5t-31.5 14q-19 15 -22 38v7q0 20 13 35zM622 9q-24 -8 -50 -10q-7 -1 -15 -1q-16 0 -33 3q-27 4 -53 19q-30 18 -48.5 41.5t-29.5 46t-15 41t-5 24.5q-1 -6 -5 -24.5t-15 -41t-29.5 -46t-48.5 -41.5q-26 -15 -53 -19q-17 -3 -33 -3 q-8 0 -15 1q-26 2 -50 10q-20 7 -34.5 18.5t-24 26t-16 31t-9.5 32.5q-6 30 -6 64v17q3 71 16 130.5t32.5 109t42.5 89t45 71.5q33 48 67.5 73t64 36.5t49 13t22.5 1.5t22.5 -1.5t49 -13t64.5 -36.5t68 -73q22 -32 44.5 -71.5t42 -89t32.5 -109t16 -130.5q1 -12 1 -23 q0 -30 -6 -58q-3 -16 -9.5 -32.5t-16.5 -31t-24.5 -26t-34.5 -18.5zM377 369q-17 0 -29 -13q-11 -11 -11 -25q0 -23 13 -33q10 -8 27 -8t28 10t11 27q0 16 -10 29t-29 13z" />
<glyph unicode="&#xc3;" d="M550 815q-15 -27 -34 -41t-39 -19q-12 -3 -25 -3q-8 0 -16 1q-20 3 -39 10q-45 17 -92 56q-9 -34 -25.5 -47.5t-33.5 -16.5q-7 -1 -14 -1q-13 0 -27 4q-13 4 -23.5 14t-16.5 23t-7.5 27t3.5 27q18 54 52 80q15 11 35 17q13 5 29 5q7 0 15 -1q26 -3 58 -17.5t71 -44.5 q1 -1 1 -2t1 -2q10 29 33 46q14 10 32 10q10 0 22 -4q25 -9 40 -25q13 -14 16 -37q1 -4 1 -8q0 -21 -17 -51zM622 9q-24 -8 -50 -10q-7 -1 -15 -1q-16 0 -33 3q-27 4 -53 19q-30 18 -48.5 41.5t-29.5 46t-15 41t-5 24.5q-1 -6 -5 -24.5t-15 -41t-29.5 -46t-48.5 -41.5 q-26 -15 -53 -19q-17 -3 -33 -3q-8 0 -15 1q-26 2 -50 10q-20 7 -34.5 18.5t-24 26t-16 31t-9.5 32.5q-6 30 -6 64v17q3 71 16 130.5t32.5 109t42.5 89t45 71.5q33 48 67.5 73t64 36.5t49 13t22.5 1.5t22.5 -1.5t49 -13t64.5 -36.5t68 -73q22 -32 44.5 -71.5t42 -89 t32.5 -109t16 -130.5q1 -12 1 -23q0 -30 -6 -58q-3 -16 -9.5 -32.5t-16.5 -31t-24.5 -26t-34.5 -18.5zM377 369q-17 0 -29 -13q-11 -11 -11 -25q0 -23 13 -33q10 -8 27 -8t28 10t11 27q0 16 -10 29t-29 13z" />
<glyph unicode="&#xc4;" d="M355 823q0 -32 -19.5 -55t-57.5 -23t-57.5 23t-19.5 55t19.5 54.5t57.5 22.5t57.5 -22.5t19.5 -54.5zM538 823q0 -32 -19.5 -55t-57.5 -23t-57.5 23t-19.5 55t19.5 54.5t57.5 22.5t57.5 -22.5t19.5 -54.5zM622 9q-24 -8 -50 -10q-7 -1 -15 -1q-16 0 -33 3q-27 4 -53 19 q-30 18 -48.5 41.5t-29.5 46t-15 41t-5 24.5q-1 -6 -5 -24.5t-15 -41t-29.5 -46t-48.5 -41.5q-26 -15 -53 -19q-17 -3 -33 -3q-8 0 -15 1q-26 2 -50 10q-20 7 -34.5 18.5t-24 26t-16 31t-9.5 32.5q-6 30 -6 64v17q3 71 16 130.5t32.5 109t42.5 89t45 71.5q33 48 67.5 73 t64 36.5t49 13t22.5 1.5t22.5 -1.5t49 -13t64.5 -36.5t68 -73q22 -32 44.5 -71.5t42 -89t32.5 -109t16 -130.5q1 -12 1 -23q0 -30 -6 -58q-3 -16 -9.5 -32.5t-16.5 -31t-24.5 -26t-34.5 -18.5zM377 369q-17 0 -29 -13q-11 -11 -11 -25q0 -23 13 -33q10 -8 27 -8t28 10t11 27 q0 16 -10 29t-29 13z" />
<glyph unicode="&#xc5;" d="M492 802q0 -24 -9.5 -45t-26 -36.5t-39 -24.5t-47.5 -9q-26 0 -48 9t-39 24.5t-26.5 36.5t-9.5 45t9.5 44.5t26.5 36.5t39 25t48 9q25 0 47.5 -9t39 -25t26 -36.5t9.5 -44.5zM370 854q-27 0 -39.5 -15.5t-12.5 -38.5q0 -25 14.5 -37.5t37.5 -12.5q21 0 36.5 12.5 t15.5 37.5q0 31 -16 42.5t-36 11.5zM622 9q-24 -8 -50 -10q-7 -1 -15 -1q-16 0 -33 3q-27 4 -53 19q-30 18 -48.5 41.5t-29.5 46t-15 41t-5 24.5q-1 -6 -5 -24.5t-15 -41t-29.5 -46t-48.5 -41.5q-26 -15 -53 -19q-17 -3 -33 -3q-8 0 -15 1q-26 2 -50 10q-20 7 -34.5 18.5 t-24 26t-16 31t-9.5 32.5q-6 30 -6 64v17q3 71 16 130.5t32.5 109t42.5 89t45 71.5q33 48 67.5 73t64 36.5t49 13t22.5 1.5t22.5 -1.5t49 -13t64.5 -36.5t68 -73q22 -32 44.5 -71.5t42 -89t32.5 -109t16 -130.5q1 -12 1 -23q0 -30 -6 -58q-3 -16 -9.5 -32.5t-16.5 -31 t-24.5 -26t-34.5 -18.5zM377 369q-17 0 -29 -13q-11 -11 -11 -25q0 -23 13 -33q10 -8 27 -8t28 10t11 27q0 16 -10 29t-29 13z" />
<glyph unicode="&#xc6;" horiz-adv-x="1139" d="M888 266h14q34 0 62 -4q33 -5 57 -14t40 -21t27 -24q24 -30 26 -68q-1 -24 -12 -42.5t-28 -32.5t-38.5 -23.5t-43.5 -15.5q-52 -15 -118 -18q-33 -3 -62 -3q-37 0 -66 4q-53 8 -91 22q-17 -17 -42 -26q-24 -8 -50 -10q-7 -1 -15 -1q-16 0 -34 3q-26 4 -52 19 q-30 18 -48.5 41.5t-29.5 46t-15 41t-5 24.5q-1 -6 -5 -24.5t-15 -41t-29.5 -46t-48.5 -41.5q-26 -15 -52 -19q-18 -3 -34 -3q-8 0 -15 1q-26 2 -50 10q-20 7 -34.5 18.5t-24 26t-16 31t-9.5 32.5q-6 30 -6 64v17q3 71 16 130.5t32.5 109t42.5 89t45 71.5q33 48 67.5 73 t64 36.5t49 13t22.5 1.5t21 -1.5t45.5 -11t60.5 -31.5t65 -64q12 25 32 43t44 31t51 21.5t53 13.5q57 10 120 10h11h17q38 0 67 -4q36 -4 62 -12.5t43.5 -19t28.5 -21.5q26 -26 27 -61q0 -30 -9.5 -52t-26 -38t-38 -26t-43.5 -16q-46 -12 -103 -12h-17q56 -5 83.5 -20.5 t39.5 -32.5q13 -20 13 -43q0 -33 -15.5 -52.5t-36.5 -30t-41.5 -14t-29.5 -3.5zM367 354q-17 0 -29 -13q-11 -11 -11 -25q0 -23 13 -33q10 -8 27 -8t28 10t11 27q0 16 -10 29t-29 13z" />
<glyph unicode="&#xc7;" horiz-adv-x="670" d="M639 170v-12q0 -22 -5 -43q-6 -23 -21.5 -48.5t-48.5 -43.5q-22 -12 -52 -20q-26 -7 -64 -11q-19 -3 -40 -3q-23 0 -50 3v-33q20 0 40.5 -4t36.5 -15q14 -10 28.5 -30t14.5 -51q0 -29 -10 -46.5t-26 -30.5q-17 -14 -37.5 -19.5t-39.5 -7.5q-9 -1 -18 -1q-13 0 -27 2 q-19 0 -33 13q-12 11 -12 29v5q2 17 12.5 26.5t32.5 9.5q13 -2 25 -2h7q12 1 22.5 5.5t10.5 16.5q0 19 -14 24.5t-53 5.5q-8 0 -16.5 2t-16 6t-12.5 11.5t-5 19.5v77q-9 2 -19 4.5t-20 5.5q-58 19 -104 61q-20 18 -38 42.5t-32.5 57t-22.5 74.5q-7 36 -7 81v11q1 75 27 139 q11 27 29 55t44.5 53t63.5 45t86 31t100 12h9q40 0 88 -8q52 -9 102 -38q26 -18 41 -44q13 -22 17 -55q1 -6 1 -13q0 -28 -14 -63q-11 -22 -30 -36q-17 -13 -45 -20q-13 -3 -30 -3q-19 0 -43 4q-16 3 -31 3q-11 0 -22 -2q-20 -4 -37.5 -16.5t-19.5 -42.5q0 -22 11 -39 q10 -14 33 -24q16 -8 41 -8q12 0 27 2q17 2 33 2q24 0 44 -5q15 -4 29.5 -11t26.5 -19t21 -29.5t12 -41.5z" />
<glyph unicode="&#xc8;" horiz-adv-x="668" d="M303 947q16 -5 35.5 -15.5t37.5 -23t33.5 -26t23.5 -23.5q9 -12 14 -24q5 -11 6.5 -25t-6.5 -29q-8 -17 -21 -23t-26 -8q-5 -1 -10 -1q-10 0 -21 3q-31 5 -61 14q-26 8 -53.5 19.5t-48.5 30.5q-19 16 -25 32q-5 14 -5 26v6q2 15 9 28t15 21q7 7 16 13.5t20 9.5q9 3 21 3 h7q16 -1 39 -8zM343 711q56 -2 97.5 -8t72 -15.5t50.5 -20.5t32 -23q28 -26 28 -58t-11 -53.5t-29 -36.5t-42 -24t-49 -14q-43 -8 -95 -8q-19 0 -39 1q57 -10 86 -27.5t40 -34.5t11 -38v-6q0 -32 -17 -51.5t-37 -31.5q-24 -14 -54 -21h15q38 0 67 -4q35 -5 60.5 -14 t42.5 -20.5t28 -23.5q25 -28 25 -65q-2 -24 -14 -41.5t-30.5 -30.5t-42.5 -21.5t-48 -14.5q-57 -13 -130 -14h-27q-39 0 -70 4q-42 6 -74 16t-55 23t-38 27q-36 33 -45 75q-13 66 -15 139v38q0 51 3 95q4 71 14 140q6 34 21.5 59.5t37 43.5t47 29.5t51.5 17.5q50 13 109 13 q12 0 24 -1z" />
<glyph unicode="&#xc9;" horiz-adv-x="668" d="M231 852q8 10 23.5 23.5t33.5 26t37.5 23t35.5 15.5q22 7 39 8h7q12 0 21 -2q11 -4 19.5 -10.5t16.5 -13.5q8 -8 15 -21t9 -28v-6q0 -12 -5 -25q-6 -17 -25 -33q-21 -19 -49 -30.5t-54 -19.5q-30 -9 -60 -14q-11 -3 -21 -3q-5 0 -10 1q-13 2 -26 8t-21 23q-8 15 -7 29 t6 25q5 12 15 24zM343 711q56 -2 97.5 -8t72 -15.5t50.5 -20.5t32 -23q28 -26 28 -58t-11 -53.5t-29 -36.5t-42 -24t-49 -14q-43 -8 -95 -8q-19 0 -39 1q57 -10 86 -27.5t40 -34.5t11 -38v-6q0 -32 -17 -51.5t-37 -31.5q-24 -14 -54 -21h15q38 0 67 -4q35 -5 60.5 -14 t42.5 -20.5t28 -23.5q25 -28 25 -65q-2 -24 -14 -41.5t-30.5 -30.5t-42.5 -21.5t-48 -14.5q-57 -13 -130 -14h-27q-39 0 -70 4q-42 6 -74 16t-55 23t-38 27q-36 33 -45 75q-13 66 -15 139v38q0 51 3 95q4 71 14 140q6 34 21.5 59.5t37 43.5t47 29.5t51.5 17.5q50 13 109 13 q12 0 24 -1z" />
<glyph unicode="&#xca;" horiz-adv-x="668" d="M190 834q1 1 14 16t34 32t48 31.5t56 14.5q28 0 54 -14.5t47 -32.5t33.5 -33.5t13.5 -16.5q11 -15 11 -32q0 -5 -1 -10q-4 -23 -24 -37q-16 -11 -33 -11q-5 0 -10 1q-23 4 -37 24h1l-5 5q-4 5 -11.5 12.5t-17 16t-21.5 14.5q-14 -9 -26 -18t-20 -17q-10 -9 -17 -16 q-11 -12 -23 -18q-11 -5 -25.5 -5t-31.5 14q-19 15 -21 38q-1 4 -1 7q0 20 13 35zM343 711q56 -2 97.5 -8t72 -15.5t50.5 -20.5t32 -23q28 -26 28 -58t-11 -53.5t-29 -36.5t-42 -24t-49 -14q-43 -8 -95 -8q-19 0 -39 1q57 -10 86 -27.5t40 -34.5t11 -38v-6q0 -32 -17 -51.5 t-37 -31.5q-24 -14 -54 -21h15q38 0 67 -4q35 -5 60.5 -14t42.5 -20.5t28 -23.5q25 -28 25 -65q-2 -24 -14 -41.5t-30.5 -30.5t-42.5 -21.5t-48 -14.5q-57 -13 -130 -14h-27q-39 0 -70 4q-42 6 -74 16t-55 23t-38 27q-36 33 -45 75q-13 66 -15 139v38q0 51 3 95q4 71 14 140 q6 34 21.5 59.5t37 43.5t47 29.5t51.5 17.5q50 13 109 13q12 0 24 -1z" />
<glyph unicode="&#xcb;" horiz-adv-x="668" d="M307 822q0 -32 -19.5 -55t-57.5 -23t-57.5 23t-19.5 55t19.5 54.5t57.5 22.5t57.5 -22.5t19.5 -54.5zM490 822q0 -32 -19.5 -55t-57.5 -23t-57.5 23t-19.5 55t19.5 54.5t57.5 22.5t57.5 -22.5t19.5 -54.5zM343 711q-12 1 -24 1q-59 0 -109 -13q-26 -6 -51.5 -17.5 t-47 -29.5t-37 -43.5t-21.5 -59.5q-10 -69 -14 -140q-3 -44 -3 -95v-38q2 -73 15 -139q9 -42 45 -75q15 -14 38 -27t55 -23t74 -16q31 -5 70 -5q13 0 27 1q73 1 130 14q24 6 48 14.5t42.5 21.5t30.5 30.5t14 41.5q0 37 -25 65q-11 12 -28 23.5t-42.5 20.5t-60.5 14 q-29 4 -67 4h-15q30 7 54 21q20 12 37 31.5t17 51.5v6q0 21 -11 38t-40 34.5t-86 27.5q20 -1 39 -1q52 0 95 8q25 5 49 14t42 24t29 36.5t11 53.5t-28 58q-12 12 -32 23t-50.5 20.5t-72 15.5t-97.5 8z" />
<glyph unicode="&#xcc;" horiz-adv-x="420" d="M200 942q16 -5 35.5 -15.5t37.5 -23t33.5 -26t23.5 -23.5q9 -12 14 -24q5 -11 6.5 -25t-6.5 -29q-8 -17 -21 -23t-26 -8q-5 -1 -10 -1q-10 0 -21 3q-31 5 -61 14q-26 8 -53.5 19.5t-48.5 30.5q-19 16 -25 33q-5 13 -5 25q0 3 1 6q1 15 8 28t15 21q7 7 16 13.5t21 10.5 q8 2 20 2h7q16 -1 39 -8zM39 203q-6 41 -7 89q-1 30 -1 56v35q1 49 4 99q5 62 25 111q9 21 22 41t31.5 35.5t43.5 25.5t58 10q40 -3 73 -24q14 -9 28.5 -23t27 -35t22 -49t14.5 -64q8 -70 9 -132v-41q0 -38 -1 -70q-3 -55 -8 -103q-7 -49 -26 -87q-9 -16 -21 -31.5t-29 -28 t-39 -19.5t-50 -7q-31 0 -55 9.5t-42.5 24.5t-31 34t-21.5 39q-20 47 -26 105z" />
<glyph unicode="&#xcd;" horiz-adv-x="420" d="M97 851q8 10 23.5 23.5t33.5 26t37.5 23t35.5 15.5q22 7 39 8h7q12 0 21 -3q11 -3 19.5 -9.5t16.5 -13.5q8 -8 15 -21t9 -28v-6q0 -12 -5 -26q-6 -16 -25 -32q-21 -19 -49 -30.5t-54 -19.5q-30 -9 -60 -14q-11 -3 -21 -3q-5 0 -10 1q-13 2 -26 8t-21 23q-8 15 -7 29t6 25 q5 12 15 24zM39 203q-6 41 -7 89q-1 30 -1 56v35q1 49 4 99q5 62 25 111q9 21 22 41t31.5 35.5t43.5 25.5t58 10q40 -3 73 -24q14 -9 28.5 -23t27 -35t22 -49t14.5 -64q8 -70 9 -132v-41q0 -38 -1 -70q-3 -55 -8 -103q-7 -49 -26 -87q-9 -16 -21 -31.5t-29 -28t-39 -19.5 t-50 -7q-31 0 -55 9.5t-42.5 24.5t-31 34t-21.5 39q-20 47 -26 105z" />
<glyph unicode="&#xce;" horiz-adv-x="420" d="M59 833q1 1 14 16t34 32t48 31.5t56 14.5q28 0 54 -14.5t47 -32.5t33.5 -33.5t13.5 -16.5q11 -15 11 -32q0 -5 -1 -10q-4 -23 -24 -37q-16 -11 -33 -11q-5 0 -10 1q-23 4 -37 24h1l-4 5l-12.5 12.5t-17 16t-21.5 14.5q-14 -9 -26 -18t-20 -17q-10 -9 -17 -16 q-11 -12 -23 -18q-11 -5 -25.5 -5t-31.5 14q-19 15 -22 39v6q0 20 13 35zM39 203q-6 41 -7 89q-1 30 -1 56v35q1 49 4 99q5 62 25 111q9 21 22 41t31.5 35.5t43.5 25.5t58 10q40 -3 73 -24q14 -9 28.5 -23t27 -35t22 -49t14.5 -64q8 -70 9 -132v-41q0 -38 -1 -70 q-3 -55 -8 -103q-7 -49 -26 -87q-9 -16 -21 -31.5t-29 -28t-39 -19.5t-50 -7q-31 0 -55 9.5t-42.5 24.5t-31 34t-21.5 39q-20 47 -26 105z" />
<glyph unicode="&#xcf;" horiz-adv-x="420" d="M190 803q0 -32 -19.5 -55t-57.5 -23t-57.5 23t-19.5 55t19.5 54.5t57.5 22.5t57.5 -22.5t19.5 -54.5zM373 803q0 -32 -19.5 -55t-57.5 -23t-57.5 23t-19.5 55t19.5 54.5t57.5 22.5t57.5 -22.5t19.5 -54.5zM39 203q6 -58 26 -105q9 -20 21.5 -39t31 -34t42.5 -24.5 t55 -9.5q28 0 50 7t39 19.5t29 28t21 31.5q19 38 26 87q5 48 8 103q1 32 1 70v41q-1 62 -9 132q-5 36 -14.5 64t-22 49t-27 35t-28.5 23q-33 21 -73 24q-33 0 -58 -10t-43.5 -25.5t-31.5 -35.5t-22 -41q-20 -49 -25 -111q-3 -50 -4 -99v-35q0 -26 1 -56q1 -48 7 -89z" />
<glyph unicode="&#xd0;" horiz-adv-x="835" d="M766 560q25 -43 37 -99q5 -24 9 -53q2 -23 2 -50v-15q-1 -35 -6.5 -74.5t-18.5 -83.5q-12 -40 -33 -69.5t-47 -50.5t-55.5 -34t-58.5 -21q-62 -16 -131 -16h-16h-8q-55 0 -91 12q-39 14 -63 31q-28 19 -45 43q-17 31 -23.5 71t-8.5 78q-12 0 -19 1h-14q-6 1 -14 2t-20 3 q-35 5 -54.5 22t-27.5 35q-11 21 -11 46v9q0 21 7 40q8 20 26.5 39t58.5 28q13 3 22 4t16 1h15q8 0 20 1q2 22 4 40l5 33q2 16 4 29q5 31 17 54t27.5 39.5t33 27.5t35.5 17q36 13 79 13h12q48 0 88 -6.5t72 -17t57.5 -24.5t45.5 -28q46 -34 72 -77zM493 377 q-17 0 -28.5 -8.5t-11.5 -33.5q0 -14 3 -21.5t8.5 -11t13 -4t15.5 -0.5q17 0 28 10t11 27q0 16 -10 29t-29 13z" />
<glyph unicode="&#xd1;" horiz-adv-x="833" d="M599 814q-15 -27 -34 -41t-39 -19q-12 -3 -25 -3q-8 0 -15 1q-21 3 -40 10q-45 17 -92 56q-9 -34 -25.5 -47.5t-33.5 -16.5q-7 -1 -14 -1q-13 0 -27 4q-13 4 -23.5 14t-16.5 23t-7.5 27t3.5 27q18 54 52 80q15 11 34 18q14 4 30 4q7 0 16 -1q25 -3 57 -17.5t71 -44.5 q1 -1 1 -2t1 -2q10 29 33 45q14 11 32 11q10 0 22 -4q25 -9 40 -25q13 -14 17 -38v-7q0 -21 -17 -51zM65 552q-14 -69 -19 -143q-3 -43 -3 -92q0 -24 1 -51q2 -78 21 -157q8 -32 26 -57q15 -21 42 -38q24 -16 61 -16h9h11q42 0 76 26q16 12 30.5 33t25.5 53.5t16 77.5 q3 29 3 64q0 21 -1 44q11 -85 42 -151q13 -28 31 -55t43 -48t58 -33q30 -11 67 -11h6q6 -1 12 -1q28 0 54 12q13 6 27 16.5t26.5 27t23 40t17.5 55.5q13 64 20 136q5 62 5 141.5t-17 167.5q-6 32 -24 58q-15 22 -43 39q-27 17 -71 17h-5q-46 0 -81 -26q-15 -11 -29.5 -29.5 t-25.5 -46t-18 -65.5q-5 -34 -5 -77v-13q-3 77 -29 136q-11 25 -27.5 49t-40.5 42t-56 29q-26 8 -60 8h-13q-59 -3 -95.5 -28.5t-56.5 -55.5q-24 -35 -34 -78z" />
<glyph unicode="&#xd2;" horiz-adv-x="771" d="M365 945q16 -5 35.5 -15.5t37.5 -23t33.5 -26t23.5 -23.5q9 -12 14 -24q5 -11 6.5 -25t-6.5 -29q-8 -17 -21 -23t-26 -8q-5 -1 -10 -1q-10 0 -21 3q-31 5 -61 14q-26 8 -53.5 19.5t-48.5 30.5q-19 16 -25 32q-5 14 -5 26v6q2 15 9 28t15 21q7 7 16 13.5t20 9.5q9 3 21 3 h7q16 -1 39 -8zM404 704q60 0 105.5 -14.5t79.5 -38.5t57 -54.5t38 -62.5q35 -75 40 -169q0 -71 -14 -124.5t-36.5 -93t-51 -66.5t-58.5 -45q-70 -41 -160 -47q-68 0 -119 14.5t-89 38t-64 54t-43 62.5q-40 74 -45 169q0 78 15.5 135t41 98.5t57.5 68t66 42.5q71 33 161 33 h19zM389 383q-17 0 -29 -13q-11 -11 -11 -25q0 -23 13 -33q10 -8 27 -8t28 10t11 27q0 16 -10 29t-29 13z" />
<glyph unicode="&#xd3;" horiz-adv-x="771" d="M249 852q8 10 23.5 23.5t33.5 26t37.5 23t35.5 15.5q22 7 39 8h7q12 0 21 -2q11 -4 19.5 -10.5t16.5 -13.5q8 -8 15 -21t9 -28v-6q0 -12 -5 -25q-6 -17 -25 -33q-21 -19 -49 -30.5t-54 -19.5q-30 -9 -60 -14q-11 -3 -21 -3q-5 0 -10 1q-13 2 -26 8t-21 23q-8 15 -7 29 t6 25q5 12 15 24zM404 704q60 0 105.5 -14.5t79.5 -38.5t57 -54.5t38 -62.5q35 -75 40 -169q0 -71 -14 -124.5t-36.5 -93t-51 -66.5t-58.5 -45q-70 -41 -160 -47q-68 0 -119 14.5t-89 38t-64 54t-43 62.5q-40 74 -45 169q0 78 15.5 135t41 98.5t57.5 68t66 42.5 q71 33 161 33h19zM389 383q-17 0 -29 -13q-11 -11 -11 -25q0 -23 13 -33q10 -8 27 -8t28 10t11 27q0 16 -10 29t-29 13z" />
<glyph unicode="&#xd4;" horiz-adv-x="771" d="M246 831q1 1 14 16t34 32t48 31.5t56 14.5q28 0 54 -14.5t47 -32.5t33.5 -33.5t13.5 -16.5q11 -15 11 -32q0 -5 -1 -10q-4 -23 -24 -37q-16 -11 -33 -11q-5 0 -10 1q-23 4 -37 24h1l-5 5q-4 5 -11.5 12.5t-17 16t-21.5 14.5q-14 -9 -26 -18t-20 -17q-10 -9 -17 -16 q-11 -12 -23 -18q-11 -5 -25.5 -5t-31.5 14q-19 15 -21 39q-1 3 -1 6q0 20 13 35zM404 704q60 0 105.5 -14.5t79.5 -38.5t57 -54.5t38 -62.5q35 -75 40 -169q0 -71 -14 -124.5t-36.5 -93t-51 -66.5t-58.5 -45q-70 -41 -160 -47q-68 0 -119 14.5t-89 38t-64 54t-43 62.5 q-40 74 -45 169q0 78 15.5 135t41 98.5t57.5 68t66 42.5q71 33 161 33h19zM389 383q-17 0 -29 -13q-11 -11 -11 -25q0 -23 13 -33q10 -8 27 -8t28 10t11 27q0 16 -10 29t-29 13z" />
<glyph unicode="&#xd5;" horiz-adv-x="771" d="M560 807q-15 -27 -34 -41t-39 -19q-12 -3 -25 -3q-8 0 -16 1q-20 3 -39 10q-45 17 -92 56q-9 -34 -25.5 -47.5t-33.5 -16.5q-7 -1 -14 -1q-13 0 -27 4q-13 4 -23.5 14t-16.5 23t-7.5 27t3.5 27q18 54 52 80q15 11 35 17q13 5 29 5q7 0 15 -1q26 -3 58 -17.5t71 -44.5 q1 -1 1 -2t1 -2q10 29 33 46q14 10 32 10q10 0 22 -4q25 -9 40 -25q13 -14 16 -37q1 -4 1 -8q0 -21 -17 -51zM404 704h-19q-90 0 -161 -33q-34 -16 -66 -42.5t-57.5 -68t-41 -98.5t-15.5 -135q5 -95 45 -169q17 -32 43 -62.5t64 -54t89 -38t119 -14.5q90 6 160 47 q30 18 58.5 45t51 66.5t36.5 93t14 124.5q-5 94 -40 169q-15 32 -38 62.5t-57 54.5t-79.5 38.5t-105.5 14.5zM389 383q19 0 29 -13t10 -29q0 -17 -11 -27t-28 -10t-27 8q-13 10 -13 33q0 14 11 25q12 13 29 13z" />
<glyph unicode="&#xd6;" horiz-adv-x="771" d="M365 820q0 -32 -19.5 -55t-57.5 -23t-57.5 23t-19.5 55t19.5 54.5t57.5 22.5t57.5 -22.5t19.5 -54.5zM548 820q0 -32 -19.5 -55t-57.5 -23t-57.5 23t-19.5 55t19.5 54.5t57.5 22.5t57.5 -22.5t19.5 -54.5zM404 704h-19q-90 0 -161 -33q-34 -16 -66 -42.5t-57.5 -68 t-41 -98.5t-15.5 -135q5 -95 45 -169q17 -32 43 -62.5t64 -54t89 -38t119 -14.5q90 6 160 47q30 18 58.5 45t51 66.5t36.5 93t14 124.5q-5 94 -40 169q-15 32 -38 62.5t-57 54.5t-79.5 38.5t-105.5 14.5zM389 383q19 0 29 -13t10 -29q0 -17 -11 -27t-28 -10t-27 8 q-13 10 -13 33q0 14 11 25q12 13 29 13z" />
<glyph unicode="&#xd7;" horiz-adv-x="536" d="M471 177q-19 -19 -41 -30q-20 -9 -46 -10h-2q-24 0 -54 19l-24 16l-23 16q-12 -11 -21.5 -18.5t-16.5 -12.5q-8 -6 -14 -9q-28 -21 -53 -21q-1 0 -2 1q-25 0 -45 9q-23 11 -43 31q-13 16 -22 34q-8 16 -11 37q-1 5 -1 10q0 17 8 37q12 29 40 67q-10 11 -16 20t-11 15 l-9 13q-21 28 -21 53t10 46q11 23 32 43q15 13 33 22q16 7 37 10q5 1 10 1q17 0 37 -8q15 -5 32 -15t35 -23q29 22 52 36q28 17 52 18h4q21 0 38 -6q21 -8 38 -23q19 -19 29 -41q9 -21 9 -48q0 -24 -18 -53l-15 -24l-16 -23q24 -32 39 -57q17 -29 18 -53v-7q0 -20 -5 -35 q-7 -21 -23 -37z" />
<glyph unicode="&#xd8;" horiz-adv-x="735" d="M600 623q38 -38 58.5 -83t30.5 -84q11 -46 13 -92q0 -71 -14 -124.5t-36.5 -93t-51 -66.5t-58.5 -45q-70 -41 -160 -47q-18 0 -35 1.5t-33 3.5l-16 -33l-13 -24l-11 -20q-15 -26 -32.5 -35.5t-32.5 -11.5h-8q-14 0 -26 5q-18 6 -29 19q-11 11 -17 30q-3 10 -3 22.5 t3 27.5q4 17 9.5 37.5t13.5 45.5q-49 37 -75.5 83.5t-38.5 88.5q-14 48 -16 98q0 78 15.5 135t41 98.5t57.5 68t66 42.5q71 33 161 33h19q29 0 56 -3q9 17 17.5 31t14.5 25q19 31 40 41.5t39 11.5h4q19 0 37 -8q17 -6 28 -19q9 -11 14 -32q1 -7 1 -14q0 -18 -8 -43l-12 -35 q-6 -17 -13 -35zM386 368q-17 0 -30 -13q-10 -11 -10 -25q0 -23 12 -33q11 -8 28 -8t28 10t11 27q0 16 -10 29t-29 13z" />
<glyph unicode="&#xd9;" horiz-adv-x="767" d="M331 937q16 -5 35.5 -15.5t37.5 -23t33.5 -26t23.5 -23.5q9 -12 14 -24q5 -11 6.5 -25t-6.5 -29q-8 -17 -21 -23t-26 -8q-5 -1 -10 -1q-10 0 -21 3q-31 5 -61 14q-26 8 -53.5 19.5t-48.5 30.5q-19 16 -25 32q-5 14 -5 26v6q2 15 9 28t15 21q7 7 16 13.5t20 9.5q9 3 21 3 h7q16 -1 39 -8zM202 711q36 -2 64 -19q24 -14 44.5 -45t20.5 -88q0 -43 -1 -81v-19q0 -27 2 -49q3 -30 11.5 -47.5t26.5 -17.5t26.5 17.5t11.5 47.5q2 22 2 49v19q-1 38 -2 81v8q0 23 4 41q6 22 16 38t22.5 26.5t25.5 16.5q31 15 71 15h15q41 0 68 -14q31 -17 49 -38 q20 -26 30 -58q17 -76 17 -146q1 -5 1 -10q0 -65 -7 -116q-8 -64 -23 -121q-21 -61 -62 -109q-18 -20 -41.5 -39.5t-55 -34.5t-71 -24t-87.5 -9q-41 0 -74.5 6.5t-61.5 16.5t-50 23t-39 26q-40 31 -63 70q-19 32 -31 67.5t-19.5 72t-11 72t-3.5 68.5v13q0 70 10 139 q12 63 39 94.5t55 44.5q29 13 62 13h9z" />
<glyph unicode="&#xda;" horiz-adv-x="767" d="M271 852q8 10 23.5 23.5t33.5 26t37.5 23t35.5 15.5q22 7 39 8h7q12 0 21 -2q11 -4 19.5 -10.5t16.5 -13.5q8 -8 15 -21t9 -28v-6q0 -12 -5 -25q-6 -17 -25 -33q-21 -19 -49 -30.5t-54 -19.5q-30 -9 -60 -14q-11 -3 -21 -3q-5 0 -10 1q-13 2 -26 8t-21 23q-8 15 -7 29 t6 25q5 12 15 24zM202 711q36 -2 64 -19q24 -14 44.5 -45t20.5 -88q0 -43 -1 -81v-19q0 -27 2 -49q3 -30 11.5 -47.5t26.5 -17.5t26.5 17.5t11.5 47.5q2 22 2 49v19q-1 38 -2 81v8q0 23 4 41q6 22 16 38t22.5 26.5t25.5 16.5q31 15 71 15h15q41 0 68 -14q31 -17 49 -38 q20 -26 30 -58q17 -76 17 -146q1 -5 1 -10q0 -65 -7 -116q-8 -64 -23 -121q-21 -61 -62 -109q-18 -20 -41.5 -39.5t-55 -34.5t-71 -24t-87.5 -9q-41 0 -74.5 6.5t-61.5 16.5t-50 23t-39 26q-40 31 -63 70q-19 32 -31 67.5t-19.5 72t-11 72t-3.5 68.5v13q0 70 10 139 q12 63 39 94.5t55 44.5q29 13 62 13h9z" />
<glyph unicode="&#xdb;" horiz-adv-x="767" d="M227 830q1 1 14 16t34 32t48 31.5t56 14.5q28 0 54 -14.5t47 -32.5t33.5 -33.5t13.5 -16.5q11 -15 11 -32q0 -5 -1 -10q-4 -23 -24 -37q-16 -11 -33 -11q-5 0 -10 1q-23 4 -37 24h1l-4 5l-12.5 12.5t-17 16t-21.5 14.5q-14 -9 -26 -18t-20 -17q-10 -9 -17 -16 q-11 -12 -23 -18q-11 -5 -25.5 -5t-31.5 14q-19 15 -22 38v7q0 20 13 35zM202 711q36 -2 64 -19q24 -14 44.5 -45t20.5 -88q0 -43 -1 -81v-19q0 -27 2 -49q3 -30 11.5 -47.5t26.5 -17.5t26.5 17.5t11.5 47.5q2 22 2 49v19q-1 38 -2 81v8q0 23 4 41q6 22 16 38t22.5 26.5 t25.5 16.5q31 15 71 15h15q41 0 68 -14q31 -17 49 -38q20 -26 30 -58q17 -76 17 -146q1 -5 1 -10q0 -65 -7 -116q-8 -64 -23 -121q-21 -61 -62 -109q-18 -20 -41.5 -39.5t-55 -34.5t-71 -24t-87.5 -9q-41 0 -74.5 6.5t-61.5 16.5t-50 23t-39 26q-40 31 -63 70 q-19 32 -31 67.5t-19.5 72t-11 72t-3.5 68.5v13q0 70 10 139q12 63 39 94.5t55 44.5q29 13 62 13h9z" />
<glyph unicode="&#xdc;" horiz-adv-x="767" d="M354 820q0 -32 -19.5 -55t-57.5 -23t-57.5 23t-19.5 55t19.5 54.5t57.5 22.5t57.5 -22.5t19.5 -54.5zM537 820q0 -32 -19.5 -55t-57.5 -23t-57.5 23t-19.5 55t19.5 54.5t57.5 22.5t57.5 -22.5t19.5 -54.5zM202 711h-9q-33 0 -62 -13q-28 -13 -55 -44.5t-39 -94.5 q-10 -69 -10 -139v-13q0 -33 3.5 -68.5t11 -72t19.5 -72t31 -67.5q23 -39 63 -70q17 -13 39 -26t50 -23t61.5 -16.5t74.5 -6.5q48 0 87.5 9t71 24t55 34.5t41.5 39.5q41 48 62 109q15 57 23 121q7 51 7 116q0 5 -1 10q0 70 -17 146q-10 32 -30 58q-18 21 -49 38 q-27 14 -68 14h-15q-40 0 -71 -15q-13 -6 -25.5 -16.5t-22.5 -26.5t-16 -38q-4 -18 -4 -41v-8q1 -43 2 -81v-19q0 -27 -2 -49q-3 -30 -11.5 -47.5t-26.5 -17.5t-26.5 17.5t-11.5 47.5q-2 22 -2 49v19q1 38 1 81q0 57 -20.5 88t-44.5 45q-28 17 -64 19z" />
<glyph unicode="&#xdd;" horiz-adv-x="833" d="M344 852q8 10 23.5 23.5t33.5 26t37.5 23t35.5 15.5q22 7 38 8h8q12 0 20 -2q12 -4 20.5 -10.5t16.5 -13.5q8 -8 15 -21t8 -28q1 -3 1 -6q0 -12 -5 -25q-6 -17 -25 -33q-21 -19 -49 -30.5t-54 -19.5q-30 -9 -60 -14q-11 -3 -21 -3q-5 0 -10 1q-13 2 -26 8t-21 23 q-8 15 -7 29t6 25q5 12 15 24zM447 547q21 76 53.5 113.5t64.5 51.5q29 13 59 13q9 0 18 -1q32 -4 54.5 -14t37.5 -23.5t23.5 -29.5t13.5 -32q6 -21 6 -45q0 -19 -4 -39q-13 -55 -43 -95.5t-61 -66.5q-36 -31 -78 -52q18 -57 18 -104v-9q-2 -50 -11 -85q-11 -41 -31 -73 q-23 -32 -52 -45.5t-68 -13.5q-32 0 -55.5 7t-38.5 16q-18 10 -30 23q-16 18 -26.5 39t-16.5 44t-8 46.5t-2 44.5q0 50 11 103q-51 22 -93 55q-18 14 -35.5 31.5t-32.5 38.5t-25.5 45.5t-14.5 52.5q-3 18 -3 34q0 13 2 25q4 25 13 44.5t21.5 33.5t26.5 23q33 22 77 28h14 q25 0 47 -5q28 -7 50.5 -19.5t40 -29t30.5 -34.5q31 -41 48 -96z" />
<glyph unicode="&#xde;" horiz-adv-x="708" d="M665 370v-14q0 -38 -9 -67q-12 -34 -32.5 -58t-47 -39t-54.5 -24q-53 -17 -119 -17q-16 0 -32 1q5 -26 5 -46v-10q-2 -25 -9 -43t-18.5 -30t-24.5 -20q-31 -18 -74 -20h-11q-46 0 -77 15q-35 17 -56 39q-25 26 -39 59q-14 40 -22.5 74.5t-12.5 67t-5 64.5t-1 65t1.5 63 t6 61t11.5 64t19 72q13 39 38 68q21 25 56 43q28 15 67 15q11 0 22 -1q43 -4 75 -22q13 -8 25 -20t19.5 -29.5t9.5 -40.5v-12q0 -18 -4 -41q56 -2 98 -12t73 -26t52 -35t35 -39q32 -47 35 -105zM386 401q-17 0 -30 -13q-10 -11 -10 -25q0 -23 12 -33q11 -8 28 -8t28 10 t11 27q0 16 -10 29t-29 13z" />
<glyph unicode="&#xdf;" horiz-adv-x="657" d="M344 522q-17 0 -28.5 -10.5t-11.5 -27.5q0 -16 8.5 -29.5t31.5 -13.5q20 0 30 13.5t10 29.5q0 15 -8 26.5t-32 11.5zM30 322q0 54 4.5 96.5t9.5 72.5q6 35 15 62q12 35 30.5 60.5t39.5 44t44 30.5t45 19q47 15 98 15h12q71 -3 117 -24t73 -45q32 -28 48 -64 q15 -40 15 -72q0 -8 -1 -15q-4 -38 -18 -64q-16 -31 -42 -53q39 -13 62 -34.5t36 -42.5q14 -25 20 -51q3 -22 3 -44q0 -28 -5 -55q-7 -40 -29.5 -80.5t-71.5 -63.5q-39 -18 -71 -19h-6q-29 0 -52 9q-26 11 -44 28.5t-29 36.5q-11 18 -13 39v10q0 16 4 32q6 19 17.5 34.5 t27.5 21.5q14 5 20 15t7 20q1 11 -3 24q-10 29 -46 29q-17 0 -28.5 -11t-11.5 -33q0 -23 1 -34t1 -22t-2 -28.5t-7 -52.5q-6 -35 -17.5 -56t-27 -32.5t-34 -15.5t-37.5 -4q-24 0 -51 12t-50 46.5t-38 96.5t-15 162z" />
<glyph unicode="&#xe0;" horiz-adv-x="704" d="M335 756q16 -5 35.5 -15.5t37.5 -23t33.5 -26t23.5 -23.5q9 -12 14 -24q5 -11 6.5 -25t-6.5 -29q-8 -17 -21 -23t-26 -8q-5 -1 -10 -1q-10 0 -21 3q-31 5 -61 14q-26 8 -53.5 19.5t-48.5 30.5q-19 16 -25 33q-5 13 -5 25v6q2 15 9 28t15 21q7 7 16 13.5t20 10.5q9 2 21 2 h7q16 -1 39 -8zM419 435q8 24 23 42q13 16 34.5 29.5t56.5 13.5q28 0 49 -11t37 -29t27 -41t18 -47q17 -56 19 -127q1 -21 1 -41q0 -32 -3 -58q-5 -43 -14.5 -73.5t-22.5 -51t-27 -32.5q-31 -27 -71 -27h-6h-5q-24 0 -46 9q-20 8 -39 27.5t-24 57.5q-10 -30 -36 -51 q-22 -18 -62 -31q-25 -8 -59 -8q-22 0 -47 3q-54 6 -96 32q-18 11 -35.5 28t-31 42t-21.5 58t-8 76v13q0 67 19 123q9 26 24 51.5t38 46.5t55 35.5t76 18.5q17 2 32 2q34 0 58 -9q34 -11 54 -27q23 -18 33 -44zM375 278q-17 0 -29 -13q-11 -11 -11 -25q0 -23 13 -33 q10 -8 27 -8t28 10t11 27q0 16 -10 29t-29 13z" />
<glyph unicode="&#xe1;" horiz-adv-x="704" d="M251 667q8 10 23.5 23.5t33.5 26t37.5 23t35.5 15.5q22 7 39 8h7q12 0 21 -3q11 -3 19.5 -9.5t16.5 -13.5q8 -8 15 -21t9 -28v-6q0 -12 -5 -26q-6 -16 -25 -32q-21 -19 -49 -30.5t-54 -19.5q-30 -9 -60 -14q-11 -3 -21 -3q-5 0 -10 1q-13 2 -26 8t-21 23q-8 15 -7 29 t6 25q5 12 15 24zM419 435q8 24 23 42q13 16 34.5 29.5t56.5 13.5q28 0 49 -11t37 -29t27 -41t18 -47q17 -56 19 -127q1 -21 1 -41q0 -32 -3 -58q-5 -43 -14.5 -73.5t-22.5 -51t-27 -32.5q-31 -27 -71 -27h-6h-5q-24 0 -46 9q-20 8 -39 27.5t-24 57.5q-10 -30 -36 -51 q-22 -18 -62 -31q-25 -8 -59 -8q-22 0 -47 3q-54 6 -96 32q-18 11 -35.5 28t-31 42t-21.5 58t-8 76v13q0 67 19 123q9 26 24 51.5t38 46.5t55 35.5t76 18.5q17 2 32 2q34 0 58 -9q34 -11 54 -27q23 -18 33 -44zM375 278q-17 0 -29 -13q-11 -11 -11 -25q0 -23 13 -33 q10 -8 27 -8t28 10t11 27q0 16 -10 29t-29 13z" />
<glyph unicode="&#xe2;" horiz-adv-x="704" d="M202 655q1 1 14 16t34 32t48 31.5t56 14.5q28 0 54 -14.5t47 -32.5t33.5 -33.5t13.5 -16.5q11 -15 11 -32q0 -5 -1 -10q-4 -23 -24 -37q-16 -11 -33 -11q-5 0 -10 1q-23 4 -37 24h1l-5 5q-4 5 -11.5 12.5t-17 16t-21.5 14.5q-14 -9 -26 -18t-20 -17q-10 -9 -17 -16 q-11 -12 -23 -18q-11 -5 -25.5 -5t-31.5 14q-19 15 -21 39q-1 3 -1 6q0 20 13 35zM419 435q8 24 23 42q13 16 34.5 29.5t56.5 13.5q28 0 49 -11t37 -29t27 -41t18 -47q17 -56 19 -127q1 -21 1 -41q0 -32 -3 -58q-5 -43 -14.5 -73.5t-22.5 -51t-27 -32.5q-31 -27 -71 -27h-6 h-5q-24 0 -46 9q-20 8 -39 27.5t-24 57.5q-10 -30 -36 -51q-22 -18 -62 -31q-25 -8 -59 -8q-22 0 -47 3q-54 6 -96 32q-18 11 -35.5 28t-31 42t-21.5 58t-8 76v13q0 67 19 123q9 26 24 51.5t38 46.5t55 35.5t76 18.5q17 2 32 2q34 0 58 -9q34 -11 54 -27q23 -18 33 -44z M375 278q-17 0 -29 -13q-11 -11 -11 -25q0 -23 13 -33q10 -8 27 -8t28 10t11 27q0 16 -10 29t-29 13z" />
<glyph unicode="&#xe3;" horiz-adv-x="724" d="M544 625q-15 -27 -34 -41t-39 -19q-12 -3 -25 -3q-8 0 -16 1q-20 3 -39 10q-45 17 -92 56q-9 -34 -25.5 -47.5t-33.5 -16.5q-7 -1 -14 -1q-13 0 -27 4q-13 4 -23.5 14t-16.5 23t-7.5 27t3.5 27q18 54 52 80q15 11 35 17q13 5 29 5q7 0 15 -1q26 -3 58 -17.5t71 -44.5 q1 -1 1 -2t1 -2q10 29 33 46q14 10 32 10q10 0 22 -4q25 -9 40 -25q13 -14 16 -37q1 -4 1 -8q0 -21 -17 -51zM419 435q8 24 23 42q13 16 34.5 29.5t56.5 13.5q28 0 49 -11t37 -29t27 -41t18 -47q17 -56 19 -127q1 -21 1 -41q0 -32 -3 -58q-5 -43 -14.5 -73.5t-22.5 -51 t-27 -32.5q-31 -27 -71 -27h-6h-5q-24 0 -46 9q-20 8 -39 27.5t-24 57.5q-10 -30 -36 -51q-22 -18 -62 -31q-25 -8 -59 -8q-22 0 -47 3q-54 6 -96 32q-18 11 -35.5 28t-31 42t-21.5 58t-8 76v13q0 67 19 123q9 26 24 51.5t38 46.5t55 35.5t76 18.5q17 2 32 2q34 0 58 -9 q34 -11 54 -27q23 -18 33 -44zM375 278q-17 0 -29 -13q-11 -11 -11 -25q0 -23 13 -33q10 -8 27 -8t28 10t11 27q0 16 -10 29t-29 13z" />
<glyph unicode="&#xe4;" horiz-adv-x="704" d="M344 628q0 -32 -19.5 -55t-57.5 -23t-57.5 23t-19.5 55t19.5 54.5t57.5 22.5t57.5 -22.5t19.5 -54.5zM527 628q0 -32 -19.5 -55t-57.5 -23t-57.5 23t-19.5 55t19.5 54.5t57.5 22.5t57.5 -22.5t19.5 -54.5zM419 435q8 24 23 42q13 16 34.5 29.5t56.5 13.5q28 0 49 -11 t37 -29t27 -41t18 -47q17 -56 19 -127q1 -21 1 -41q0 -32 -3 -58q-5 -43 -14.5 -73.5t-22.5 -51t-27 -32.5q-31 -27 -71 -27h-6h-5q-24 0 -46 9q-20 8 -39 27.5t-24 57.5q-10 -30 -36 -51q-22 -18 -62 -31q-25 -8 -59 -8q-22 0 -47 3q-54 6 -96 32q-18 11 -35.5 28t-31 42 t-21.5 58t-8 76v13q0 67 19 123q9 26 24 51.5t38 46.5t55 35.5t76 18.5q17 2 32 2q34 0 58 -9q34 -11 54 -27q23 -18 33 -44zM375 278q-17 0 -29 -13q-11 -11 -11 -25q0 -23 13 -33q10 -8 27 -8t28 10t11 27q0 16 -10 29t-29 13z" />
<glyph unicode="&#xe5;" horiz-adv-x="704" d="M493 650q0 -24 -9.5 -45t-26 -36.5t-39 -24.5t-47.5 -9q-26 0 -48 9t-39 24.5t-26.5 36.5t-9.5 45t9.5 44.5t26.5 36.5t39 25t48 9q25 0 47.5 -9t39 -25t26 -36.5t9.5 -44.5zM371 702q-23 0 -38 -15.5t-15 -38.5q0 -9 2 -18t8 -16.5t16 -12t27 -4.5q29 0 40 17t11 34 q0 22 -12.5 38t-38.5 16zM419 435q8 24 23 42q13 16 34.5 29.5t56.5 13.5q28 0 49 -11t37 -29t27 -41t18 -47q17 -56 19 -127q1 -21 1 -41q0 -32 -3 -58q-5 -43 -14.5 -73.5t-22.5 -51t-27 -32.5q-31 -27 -71 -27h-6h-5q-24 0 -46 9q-20 8 -39 27.5t-24 57.5 q-10 -30 -36 -51q-22 -18 -62 -31q-25 -8 -59 -8q-22 0 -47 3q-54 6 -96 32q-18 11 -35.5 28t-31 42t-21.5 58t-8 76v13q0 67 19 123q9 26 24 51.5t38 46.5t55 35.5t76 18.5q17 2 32 2q34 0 58 -9q34 -11 54 -27q23 -18 33 -44zM375 278q-17 0 -29 -13q-11 -11 -11 -25 q0 -23 13 -33q10 -8 27 -8t28 10t11 27q0 16 -10 29t-29 13z" />
<glyph unicode="&#xe6;" horiz-adv-x="1072" d="M834 206q29 -23 61 -28.5t59.5 -9.5t47 -15t24.5 -46v-6q0 -17 -5 -33q-6 -17 -20.5 -34.5t-45.5 -29.5q-44 -14 -95 -18q-19 -2 -39 -2q-29 0 -61 4q-56 5 -117 30l-4 2l-4 2q-2 1 -5 3q-15 -14 -29.5 -20.5t-25.5 -8.5q-13 -3 -26 -2h-5q-24 0 -46 9q-20 8 -39 27.5 t-24 57.5q-10 -30 -36 -51q-22 -18 -62 -31q-25 -8 -59 -8q-22 0 -47 3q-54 6 -96 32q-18 11 -35.5 28t-31 42t-21.5 58t-8 76v13q0 67 19 123q9 26 24 51.5t38 46.5t55 35.5t76 18.5q17 2 32 2q34 0 58 -9q34 -11 54 -27q23 -18 33 -44q8 24 23 42q13 16 34.5 29.5 t56.5 13.5q29 0 50 -11t37 -29q10 6 20.5 11t22.5 9q51 15 104 16q22 0 47.5 -2.5t51 -10t51.5 -21.5t50 -35q16 -16 28 -36q11 -18 19 -43.5t9 -60.5q0 -39 -17.5 -64t-46 -38t-64.5 -15q-9 -1 -18 -1q-26 0 -52 5zM376 201q16 0 27 9t11 27q0 20 -11 31t-27 11 q-15 0 -26 -11t-11 -31q0 -18 11 -27t26 -9zM806 263q14 0 23 7.5t9 21.5q0 13 -7.5 21.5t-24.5 8.5t-24 -8.5t-7 -21.5q0 -16 8.5 -22.5t22.5 -6.5z" />
<glyph unicode="&#xe7;" horiz-adv-x="570" d="M529 186q12 -26 12 -52q0 -23 -12 -51t-50 -55q-20 -13 -46 -24q-23 -9 -55 -17q-28 -7 -63 -7h-9v-14q20 0 44 -5t44 -19q35 -24 35 -85q0 -29 -10 -49.5t-26 -33.5q-17 -14 -38 -19.5t-41 -6.5q-8 -1 -15 -1q-16 0 -32 3q-19 0 -33 14q-11 13 -11 31v5q2 17 13 28 q8 8 25 8h7q11 -2 20 -2q6 0 12 1q12 1 22.5 5.5t10.5 15.5q0 19 -20.5 24.5t-59.5 5.5q-15 1 -26 4.5t-11 27.5v75l-30 10q-16 5 -33 13q-36 18 -64 51q-24 28 -44 74.5t-20 115.5q1 58 20 109q8 22 21 44t32 42.5t45.5 37t61.5 27.5q49 14 100 15h6q41 0 87 -12 q51 -13 95 -53q13 -13 21 -31q7 -16 10 -39v-9q0 -19 -9 -43q-10 -22 -29 -37q-17 -13 -44 -21q-14 -4 -32 -4t-39 4q-17 5 -31 5h-4q-14 -1 -24.5 -8t-10.5 -26q1 -14 9 -22q7 -7 21 -10h6q13 0 35 9q29 11 57 11q24 -1 51 -13t49 -47z" />
<glyph unicode="&#xe8;" horiz-adv-x="584" d="M279 756q16 -5 35.5 -15.5t37.5 -23t33.5 -26t23.5 -23.5q9 -12 14 -24q5 -11 6.5 -25t-6.5 -29q-8 -17 -21 -23t-26 -8q-5 -1 -10 -1q-10 0 -21 3q-31 5 -61 14q-26 8 -53.5 19.5t-48.5 30.5q-19 16 -25 33q-5 13 -5 25v6q2 15 9 28t15 21q7 7 16 13.5t20 10.5q9 2 21 2 h7q16 -1 39 -8zM365 207q29 -23 61 -28.5t59.5 -9.5t47 -15t24.5 -46v-6q0 -17 -5 -33q-6 -17 -20.5 -34.5t-45.5 -29.5q-44 -14 -95 -18q-19 -2 -39 -2q-29 0 -61 3q-56 6 -117 31q-40 18 -71 51q-13 14 -25.5 32.5t-22 42t-15.5 52.5q-4 21 -4 46q0 9 1 18q3 54 21 103 q8 21 20 42.5t29.5 41.5t41 37t54.5 28q51 15 104 16q22 0 47.5 -2.5t51 -10t51.5 -21.5t50 -35q16 -16 28 -36q11 -18 19 -43.5t9 -60.5q0 -39 -17.5 -64t-46 -38t-63.5 -16h-19q-26 0 -52 5zM339 334q-17 0 -29 -13q-11 -11 -11 -25q0 -23 13 -33q10 -8 27 -8t28 10t11 27 q0 16 -10 29t-29 13z" />
<glyph unicode="&#xe9;" horiz-adv-x="584" d="M178 667q8 10 23.5 23.5t33.5 26t37.5 23t35.5 15.5q22 7 38 8h8q12 0 20 -3q12 -3 20.5 -9.5t16.5 -13.5q8 -8 15 -21t8 -28q1 -3 1 -6q0 -12 -5 -26q-6 -16 -25 -32q-21 -19 -49 -30.5t-54 -19.5q-30 -9 -60 -14q-11 -3 -21 -3q-5 0 -10 1q-13 2 -26 8t-21 23 q-8 15 -7 29t6 25q5 12 15 24zM365 207q29 -23 61 -28.5t59.5 -9.5t47 -15t24.5 -46v-6q0 -17 -5 -33q-6 -17 -20.5 -34.5t-45.5 -29.5q-44 -14 -95 -18q-19 -2 -39 -2q-29 0 -61 3q-56 6 -117 31q-40 18 -71 51q-13 14 -25.5 32.5t-22 42t-15.5 52.5q-4 21 -4 46q0 9 1 18 q3 54 21 103q8 21 20 42.5t29.5 41.5t41 37t54.5 28q51 15 104 16q22 0 47.5 -2.5t51 -10t51.5 -21.5t50 -35q16 -16 28 -36q11 -18 19 -43.5t9 -60.5q0 -39 -17.5 -64t-46 -38t-63.5 -16h-19q-26 0 -52 5zM339 334q-17 0 -29 -13q-11 -11 -11 -25q0 -23 13 -33q10 -8 27 -8 t28 10t11 27q0 16 -10 29t-29 13z" />
<glyph unicode="&#xea;" horiz-adv-x="584" d="M159 655q1 1 14 16t34 32t48 31.5t56 14.5q28 0 54 -14.5t47 -32.5t33.5 -33.5t13.5 -16.5q11 -15 11 -32q0 -5 -1 -10q-4 -23 -24 -37q-16 -11 -33 -11q-5 0 -10 1q-23 4 -37 24h1l-4 5l-12.5 12.5t-17 16t-21.5 14.5q-14 -9 -26 -18t-20 -17q-10 -9 -17 -16 q-11 -12 -23 -18q-11 -5 -25.5 -5t-31.5 14q-19 15 -22 39v6q0 20 13 35zM365 207q29 -23 61 -28.5t59.5 -9.5t47 -15t24.5 -46v-6q0 -17 -5 -33q-6 -17 -20.5 -34.5t-45.5 -29.5q-44 -14 -95 -18q-19 -2 -39 -2q-29 0 -61 3q-56 6 -117 31q-40 18 -71 51q-13 14 -25.5 32.5 t-22 42t-15.5 52.5q-4 21 -4 46q0 9 1 18q3 54 21 103q8 21 20 42.5t29.5 41.5t41 37t54.5 28q51 15 104 16q22 0 47.5 -2.5t51 -10t51.5 -21.5t50 -35q16 -16 28 -36q11 -18 19 -43.5t9 -60.5q0 -39 -17.5 -64t-46 -38t-63.5 -16h-19q-26 0 -52 5zM339 334q-17 0 -29 -13 q-11 -11 -11 -25q0 -23 13 -33q10 -8 27 -8t28 10t11 27q0 16 -10 29t-29 13z" />
<glyph unicode="&#xeb;" horiz-adv-x="584" d="M290 628q0 -32 -19.5 -55t-57.5 -23t-57.5 23t-19.5 55t19.5 54.5t57.5 22.5t57.5 -22.5t19.5 -54.5zM473 628q0 -32 -19.5 -55t-57.5 -23t-57.5 23t-19.5 55t19.5 54.5t57.5 22.5t57.5 -22.5t19.5 -54.5zM365 207q26 -5 52 -5h19q35 3 63.5 16t46 38t17.5 64 q-1 35 -9 60.5t-19 43.5q-12 20 -28 36q-24 21 -50 35t-51.5 21.5t-51 10t-47.5 2.5q-53 -1 -104 -16q-31 -11 -54.5 -28t-41 -37t-29.5 -41.5t-20 -42.5q-18 -49 -21 -103q-1 -9 -1 -18q0 -25 4 -46q6 -29 15.5 -52.5t22 -42t25.5 -32.5q31 -33 71 -51q61 -25 117 -31 q32 -3 61 -3q20 0 39 2q51 4 95 18q31 12 45.5 29.5t20.5 34.5q5 16 5 33v6q-5 35 -24.5 46t-47 15t-59.5 9.5t-61 28.5zM339 334q19 0 29 -13t10 -29q0 -17 -11 -27t-28 -10t-27 8q-13 10 -13 33q0 14 11 25q12 13 29 13z" />
<glyph unicode="&#xec;" horiz-adv-x="389" d="M184 756q16 -5 35.5 -15.5t37.5 -23t33.5 -26t23.5 -23.5q9 -12 14 -24q5 -11 6.5 -25t-6.5 -29q-8 -17 -21 -23t-26 -8q-5 -1 -10 -1q-10 0 -21 3q-31 5 -61 14q-26 8 -53.5 19.5t-48.5 30.5q-19 16 -25 33q-5 13 -5 25q0 3 1 6q1 15 8 28t15 21q7 7 16 13.5t21 10.5 q8 2 20 2h7q16 -1 39 -8zM347 106q-8 -45 -30.5 -69t-47.5 -35q-29 -12 -63 -13h-11q-36 0 -59 11q-28 14 -45 31q-19 19 -29 46q-20 55 -24 113q-1 23 -1 45q0 32 3 60q5 55 18 109q13 46 36.5 70t46.5 35q27 12 58 13h9q41 0 66 -16q29 -18 46 -41q19 -27 28 -62 q7 -33 11 -77q2 -25 2 -58q0 -17 -1 -35q-1 -55 -13 -127z" />
<glyph unicode="&#xed;" horiz-adv-x="389" d="M87 667q8 10 23.5 23.5t33.5 26t37.5 23t35.5 15.5q22 7 39 8h7q12 0 21 -3q11 -3 19.5 -9.5t16.5 -13.5q8 -8 15 -21t9 -28v-6q0 -12 -5 -26q-6 -16 -25 -32q-21 -19 -49 -30.5t-54 -19.5q-30 -9 -60 -14q-11 -3 -21 -3q-5 0 -10 1q-13 2 -26 8t-21 23q-8 15 -7 29t6 25 q5 12 15 24zM347 106q-8 -45 -30.5 -69t-47.5 -35q-29 -12 -63 -13h-11q-36 0 -59 11q-28 14 -45 31q-19 19 -29 46q-20 55 -24 113q-1 23 -1 45q0 32 3 60q5 55 18 109q13 46 36.5 70t46.5 35q27 12 58 13h9q41 0 66 -16q29 -18 46 -41q19 -27 28 -62q7 -33 11 -77 q2 -25 2 -58q0 -17 -1 -35q-1 -55 -13 -127z" />
<glyph unicode="&#xee;" horiz-adv-x="389" d="M41 653q1 1 14 16t34 32t48 31.5t56 14.5q28 0 54 -14.5t47 -32.5t33.5 -33.5t13.5 -16.5q11 -15 11 -32q0 -5 -1 -10q-4 -23 -24 -37q-16 -11 -33 -11q-5 0 -10 1q-23 4 -37 24h1l-4 5l-12.5 12.5t-17 16t-21.5 14.5q-14 -9 -26 -18t-20 -17q-10 -9 -17 -16 q-11 -12 -23 -18q-11 -5 -25.5 -5t-31.5 14q-19 15 -22 39v6q0 20 13 35zM347 106q-8 -45 -30.5 -69t-47.5 -35q-29 -12 -63 -13h-11q-36 0 -59 11q-28 14 -45 31q-19 19 -29 46q-20 55 -24 113q-1 23 -1 45q0 32 3 60q5 55 18 109q13 46 36.5 70t46.5 35q27 12 58 13h9 q41 0 66 -16q29 -18 46 -41q19 -27 28 -62q7 -33 11 -77q2 -25 2 -58q0 -17 -1 -35q-1 -55 -13 -127z" />
<glyph unicode="&#xef;" horiz-adv-x="436" d="M199 628q0 -32 -19.5 -55t-57.5 -23t-57.5 23t-19.5 55t19.5 54.5t57.5 22.5t57.5 -22.5t19.5 -54.5zM382 628q0 -32 -19.5 -55t-57.5 -23t-57.5 23t-19.5 55t19.5 54.5t57.5 22.5t57.5 -22.5t19.5 -54.5zM352 106q-8 -45 -30.5 -69t-47.5 -35q-29 -12 -63 -13h-11 q-36 0 -60 11q-27 14 -44 31q-19 19 -29 46q-20 55 -23 113q-2 23 -2 45q0 32 3 60q5 55 18 109q13 46 36.5 70t46.5 35q27 12 58 13h9q41 0 67 -16q28 -18 45 -41q19 -27 28 -62q7 -33 11 -77q2 -25 2 -58v-35q-2 -55 -14 -127z" />
<glyph unicode="&#xf0;" horiz-adv-x="821" d="M804 625q0 -16 -6 -29t-20.5 -24.5t-44.5 -16.5q-14 -2 -30.5 -3.5t-35.5 -2.5q1 -24 3 -60q1 -24 1 -51v-28q-1 -43 -6.5 -89t-18.5 -91q-8 -33 -20.5 -60t-30.5 -49.5t-42.5 -41.5t-57.5 -38q-39 -20 -86 -31t-95 -13h-20q-38 0 -75 6q-46 8 -82 27q-24 14 -45 33 q-18 17 -36.5 41.5t-26.5 58.5q-8 31 -11 69v22q0 26 4 54q6 39 22 75.5t46 64.5q46 43 96.5 57t93.5 14q50 -1 98 -15l-2 12q-2 10 -3 30q-17 1 -32.5 1.5t-30.5 2.5q-35 2 -54 13t-27 23q-10 14 -11 31v6q0 16 8 29q8 14 27.5 26.5t59.5 17.5q20 2 39.5 3.5t39.5 3.5 q14 30 39.5 50t68.5 20q48 0 78.5 -21t48.5 -50q20 -2 36 -2.5t27 -1.5q13 -1 24 -2q35 -4 53.5 -14.5t26.5 -22.5q10 -14 10 -34zM357 274q-17 0 -29 -13q-11 -11 -11 -25q0 -23 13 -33q10 -8 27 -8t28 10t11 27q0 16 -10 29t-29 13z" />
<glyph unicode="&#xf1;" horiz-adv-x="716" d="M548 625q-15 -27 -34 -41t-39 -19q-12 -3 -25 -3q-8 0 -16 1q-20 3 -39 10q-45 17 -92 56q-9 -34 -25.5 -47.5t-33.5 -16.5q-7 -1 -14 -1q-13 0 -27 4q-13 4 -23.5 14t-16.5 23t-7.5 27t3.5 27q18 54 52 80q15 11 35 17q13 5 29 5q7 0 15 -1q26 -3 58 -17.5t71 -44.5 q1 -1 1 -2t1 -2q10 29 33 46q14 10 32 10q10 0 22 -4q25 -9 40 -25q13 -14 16 -37q1 -4 1 -8q0 -21 -17 -51zM699 230q-6 77 -24 127t-43.5 79.5t-56.5 42t-62 13.5h-9q-70 0 -155 -46q-7 12 -16.5 25.5t-27.5 25t-47 18.5q-19 5 -47 5q-12 0 -25 -1q-25 -2 -44.5 -9.5 t-34.5 -19t-26 -25.5t-18 -28q-18 -34 -23 -76q-4 -45 -4 -82v-14q1 -42 5 -72q4 -35 11 -62q8 -39 27 -70q8 -13 19.5 -25.5t26.5 -22.5t34.5 -15.5t44.5 -5.5q52 1 81.5 22t44.5 46q18 29 23 66q1 16 2 38q1 13 1 29v17q-1 27 -4 64q10 0 16 -22.5t11 -48.5q4 -31 8 -70 q2 -40 15.5 -66t32.5 -41.5t40.5 -22t40 -8.5t30.5 -1l12 1q30 5 51.5 18t37.5 30.5t25.5 38t15.5 41.5q11 42 11 91v16z" />
<glyph unicode="&#xf2;" horiz-adv-x="597" d="M281 756q16 -5 35.5 -15.5t37.5 -23t33.5 -26t23.5 -23.5q9 -12 14 -24q5 -11 6.5 -25t-6.5 -29q-8 -17 -21 -23t-26 -8q-5 -1 -10 -1q-10 0 -21 3q-31 5 -61 14q-26 8 -53.5 19.5t-48.5 30.5q-19 16 -25 33q-5 13 -5 25v6q2 15 9 28t15 21q7 7 16 13.5t20 10.5q9 2 21 2 h7q16 -1 39 -8zM551 116q-16 -29 -37.5 -50.5t-41.5 -35.5q-23 -17 -47 -27q-20 -8 -38.5 -12.5t-32.5 -6.5q-17 -3 -30 -3q-55 0 -96.5 11t-72.5 28.5t-52.5 40.5t-34.5 47q-33 55 -36 127q0 58 12.5 100.5t33 73t47 50.5t53.5 32q58 25 130 25h16q48 0 85 -11t64.5 -29 t46 -40.5t30.5 -46.5q28 -55 32 -126q0 -47 -8.5 -83t-22.5 -64zM318 274q-17 0 -30 -13q-10 -11 -10 -25q0 -23 12 -33q11 -8 28 -8t28 10t11 27q0 16 -10 29t-29 13z" />
<glyph unicode="&#xf3;" horiz-adv-x="597" d="M181 667q8 10 23.5 23.5t33.5 26t37.5 23t35.5 15.5q22 7 39 8h7q12 0 21 -3q11 -3 19.5 -9.5t16.5 -13.5q8 -8 15 -21t9 -28v-6q0 -12 -5 -26q-6 -16 -25 -32q-21 -19 -49 -30.5t-54 -19.5q-30 -9 -60 -14q-11 -3 -21 -3q-5 0 -10 1q-13 2 -26 8t-21 23q-8 15 -7 29 t6 25q5 12 15 24zM551 116q-16 -29 -37.5 -50.5t-41.5 -35.5q-23 -17 -47 -27q-20 -8 -38.5 -12.5t-32.5 -6.5q-17 -3 -30 -3q-55 0 -96.5 11t-72.5 28.5t-52.5 40.5t-34.5 47q-33 55 -36 127q0 58 12.5 100.5t33 73t47 50.5t53.5 32q58 25 130 25h16q48 0 85 -11t64.5 -29 t46 -40.5t30.5 -46.5q28 -55 32 -126q0 -47 -8.5 -83t-22.5 -64zM318 274q-17 0 -30 -13q-10 -11 -10 -25q0 -23 12 -33q11 -8 28 -8t28 10t11 27q0 16 -10 29t-29 13z" />
<glyph unicode="&#xf4;" horiz-adv-x="597" d="M156 663q1 1 14 16t34 32t48 31.5t56 14.5q28 0 54 -14.5t47 -32.5t33.5 -33.5t13.5 -16.5q11 -15 11 -32q0 -5 -1 -10q-4 -23 -24 -37q-16 -11 -33 -11q-5 0 -10 1q-23 4 -37 24h1l-5 5q-4 5 -11.5 12.5t-17 16t-21.5 14.5q-14 -9 -26 -18t-20 -17q-10 -9 -17 -16 q-11 -12 -23 -18q-11 -5 -25.5 -5t-31.5 14q-19 15 -21 39q-1 3 -1 6q0 20 13 35zM551 116q-16 -29 -37.5 -50.5t-41.5 -35.5q-23 -17 -47 -27q-20 -8 -38.5 -12.5t-32.5 -6.5q-17 -3 -30 -3q-55 0 -96.5 11t-72.5 28.5t-52.5 40.5t-34.5 47q-33 55 -36 127q0 58 12.5 100.5 t33 73t47 50.5t53.5 32q58 25 130 25h16q48 0 85 -11t64.5 -29t46 -40.5t30.5 -46.5q28 -55 32 -126q0 -47 -8.5 -83t-22.5 -64zM318 274q-17 0 -30 -13q-10 -11 -10 -25q0 -23 12 -33q11 -8 28 -8t28 10t11 27q0 16 -10 29t-29 13z" />
<glyph unicode="&#xf5;" horiz-adv-x="597" d="M500 625q-15 -27 -34 -41t-39 -19q-12 -3 -25 -3q-8 0 -16 1q-20 3 -39 10q-45 17 -92 56q-9 -34 -25.5 -47.5t-33.5 -16.5q-7 -1 -14 -1q-13 0 -27 4q-13 4 -23.5 14t-16.5 23t-7.5 27t3.5 27q18 54 52 80q15 11 35 17q13 5 29 5q7 0 15 -1q26 -3 58 -17.5t71 -44.5 q1 -1 1 -2t1 -2q10 29 33 46q14 10 32 10q10 0 22 -4q25 -9 40 -25q13 -14 16 -37q1 -4 1 -8q0 -21 -17 -51zM551 116q14 28 22.5 64t8.5 83q-4 71 -32 126q-12 24 -30.5 46.5t-46 40.5t-64.5 29t-85 11h-16q-72 0 -130 -25q-27 -12 -53.5 -32t-47 -50.5t-33 -73 t-12.5 -100.5q3 -72 36 -127q13 -24 34.5 -47t52.5 -40.5t72.5 -28.5t96.5 -11q13 0 30 3q14 2 32.5 6.5t38.5 12.5q24 10 47 27q20 14 41.5 35.5t37.5 50.5zM318 274q19 0 29 -13t10 -29q0 -17 -11 -27t-28 -10t-28 8q-12 10 -12 33q0 14 10 25q13 13 30 13z" />
<glyph unicode="&#xf6;" horiz-adv-x="597" d="M285 635q0 -32 -19.5 -55t-57.5 -23t-57.5 23t-19.5 55t19.5 54.5t57.5 22.5t57.5 -22.5t19.5 -54.5zM468 635q0 -32 -19.5 -55t-57.5 -23t-57.5 23t-19.5 55t19.5 54.5t57.5 22.5t57.5 -22.5t19.5 -54.5zM551 116q14 28 22.5 64t8.5 83q-4 71 -32 126q-12 24 -30.5 46.5 t-46 40.5t-64.5 29t-85 11h-16q-72 0 -130 -25q-27 -12 -53.5 -32t-47 -50.5t-33 -73t-12.5 -100.5q3 -72 36 -127q13 -24 34.5 -47t52.5 -40.5t72.5 -28.5t96.5 -11q13 0 30 3q14 2 32.5 6.5t38.5 12.5q24 10 47 27q20 14 41.5 35.5t37.5 50.5zM318 274q19 0 29 -13t10 -29 q0 -17 -11 -27t-28 -10t-28 8q-12 10 -12 33q0 14 10 25q13 13 30 13z" />
<glyph unicode="&#xf7;" horiz-adv-x="574" d="M376 635q0 -42 -25 -70t-73 -28t-73 28t-25 70q0 41 25 69.5t73 28.5t73 -28.5t25 -69.5zM376 118q0 -42 -25 -70t-73 -28t-73 28t-25 70q0 41 25 69.5t73 28.5t73 -28.5t25 -69.5zM430 485q-42 7 -90 10q-24 1 -52 1h-43q-53 -2 -112 -13q-46 -10 -68.5 -29t-30.5 -39 q-9 -18 -9 -38q0 -5 1 -11q2 -25 13 -46q10 -18 31.5 -35t63.5 -22q42 -6 80 -9q34 -3 66 -3q6 0 11 1q38 0 77.5 5t83.5 15q38 9 55.5 27t23.5 37q5 15 5 31q0 8 -1 15q-2 22 -13 42q-10 17 -31.5 34t-60.5 27z" />
<glyph unicode="&#xf8;" horiz-adv-x="586" d="M488 457q30 -29 46.5 -62t24.5 -62q9 -34 10 -68q0 -47 -8.5 -83t-22.5 -64q-16 -29 -37.5 -50.5t-41.5 -35.5q-23 -17 -47 -27q-20 -8 -38.5 -12.5t-32.5 -6.5q-17 -3 -30 -3h-15q-7 0 -15 1q-8 -15 -14 -27.5t-11 -20.5q-5 -10 -9 -17q-15 -26 -32.5 -35t-32.5 -11 q-4 -1 -9 -1q-13 0 -25 5q-18 6 -29 19q-11 11 -17 30q-3 10 -3 22t3 28l7 29q4 16 10 34q-38 28 -58.5 62.5t-29.5 64.5q-11 35 -12 71q0 58 12.5 100.5t33 73t47 50.5t53.5 32q58 25 130 25h16h9l18 32q8 14 15 25q19 30 40 40.5t39 11.5h4q19 0 37 -8q17 -5 28 -18 q9 -11 13 -33q1 -5 1 -12q0 -18 -8 -44l-9 -28zM303 274q-17 0 -29 -13q-11 -11 -11 -25q0 -23 13 -33q10 -8 27 -8t28 10t11 27q0 16 -10 29t-29 13z" />
<glyph unicode="&#xf9;" horiz-adv-x="680" d="M297 756q16 -5 35.5 -15.5t37.5 -23t33.5 -26t23.5 -23.5q9 -12 14 -24q5 -11 6.5 -25t-6.5 -29q-8 -17 -21 -23t-26 -8q-5 -1 -10 -1q-10 0 -21 3q-31 5 -61 14q-26 8 -53.5 19.5t-48.5 30.5q-19 16 -25 33q-5 13 -5 25v6q2 15 9 28t15 21q7 7 16 13.5t20 10.5q9 2 21 2 h7q16 -1 39 -8zM205 514q29 -4 52 -19q20 -13 36.5 -39t18.5 -72q0 -17 0.5 -38t3 -39t9 -30.5t19.5 -12.5q23 0 26.5 28.5t4.5 91.5q0 49 18 76t39 39q25 14 57 16h11q42 0 68 -15q28 -16 44 -37q18 -25 25 -57q8 -40 8 -78q0 -11 -1 -23q-3 -48 -11 -86q-10 -44 -26 -83 q-19 -44 -53 -78q-15 -15 -34 -29t-44 -24.5t-55 -16.5q-26 -5 -57 -5h-10q-78 2 -128.5 18.5t-80.5 35.5q-35 22 -53 50q-31 45 -41 100q-9 50 -9 94v9q0 56 11 113q11 49 36 73t51 32q21 7 45 7q10 0 20 -1z" />
<glyph unicode="&#xfa;" horiz-adv-x="680" d="M238 667q8 10 23.5 23.5t33.5 26t37.5 23t35.5 15.5q22 7 38 8h8q12 0 20 -3q12 -3 20.5 -9.5t16.5 -13.5q8 -8 15 -21t8 -28q1 -3 1 -6q0 -12 -5 -26q-6 -16 -25 -32q-21 -19 -49 -30.5t-54 -19.5q-30 -9 -60 -14q-11 -3 -21 -3q-5 0 -10 1q-13 2 -26 8t-21 23 q-8 15 -7 29t6 25q5 12 15 24zM205 514q29 -4 52 -19q20 -13 36.5 -39t18.5 -72q0 -17 0.5 -38t3 -39t9 -30.5t19.5 -12.5q23 0 26.5 28.5t4.5 91.5q0 49 18 76t39 39q25 14 57 16h11q42 0 68 -15q28 -16 44 -37q18 -25 25 -57q8 -40 8 -78q0 -11 -1 -23q-3 -48 -11 -86 q-10 -44 -26 -83q-19 -44 -53 -78q-15 -15 -34 -29t-44 -24.5t-55 -16.5q-26 -5 -57 -5h-10q-78 2 -128.5 18.5t-80.5 35.5q-35 22 -53 50q-31 45 -41 100q-9 50 -9 94v9q0 56 11 113q11 49 36 73t51 32q21 7 45 7q10 0 20 -1z" />
<glyph unicode="&#xfb;" horiz-adv-x="680" d="M186 676q1 1 14 16t34 32t48 31.5t56 14.5q28 0 54 -14.5t47 -32.5t33.5 -33.5t13.5 -16.5q11 -15 11 -32q0 -5 -1 -10q-4 -23 -24 -37q-16 -11 -33 -11q-5 0 -10 1q-23 4 -37 24h1l-5 5q-4 5 -11.5 12.5t-17 16t-21.5 14.5q-14 -9 -26 -18t-20 -17q-10 -9 -17 -16 q-11 -12 -23 -18q-11 -5 -25.5 -5t-31.5 14q-19 15 -21 38q-1 4 -1 7q0 20 13 35zM205 514q29 -4 52 -19q20 -13 36.5 -39t18.5 -72q0 -17 0.5 -38t3 -39t9 -30.5t19.5 -12.5q23 0 26.5 28.5t4.5 91.5q0 49 18 76t39 39q25 14 57 16h11q42 0 68 -15q28 -16 44 -37 q18 -25 25 -57q8 -40 8 -78q0 -11 -1 -23q-3 -48 -11 -86q-10 -44 -26 -83q-19 -44 -53 -78q-15 -15 -34 -29t-44 -24.5t-55 -16.5q-26 -5 -57 -5h-10q-78 2 -128.5 18.5t-80.5 35.5q-35 22 -53 50q-31 45 -41 100q-9 50 -9 94v9q0 56 11 113q11 49 36 73t51 32q21 7 45 7 q10 0 20 -1z" />
<glyph unicode="&#xfc;" horiz-adv-x="680" d="M331 645q0 -32 -19.5 -55t-57.5 -23t-57.5 23t-19.5 55t19.5 54.5t57.5 22.5t57.5 -22.5t19.5 -54.5zM514 645q0 -32 -19.5 -55t-57.5 -23t-57.5 23t-19.5 55t19.5 54.5t57.5 22.5t57.5 -22.5t19.5 -54.5zM205 514q-10 1 -20 1q-24 0 -45 -7q-26 -8 -51 -32t-36 -73 q-11 -57 -11 -113v-9q0 -44 9 -94q10 -55 41 -100q18 -28 53 -50q30 -19 80.5 -35.5t128.5 -18.5h10q31 0 57 5q30 6 55 16.5t44 24.5t34 29q34 34 53 78q16 39 26 83q8 38 11 86q1 12 1 23q0 38 -8 78q-7 32 -25 57q-16 21 -44 37q-26 15 -68 15h-11q-32 -2 -57 -16 q-21 -12 -39 -39t-18 -76q-1 -63 -4.5 -91.5t-26.5 -28.5q-13 0 -19.5 12.5t-9 30.5t-3 39t-0.5 38q-2 46 -18.5 72t-36.5 39q-23 15 -52 19z" />
<glyph unicode="&#xfd;" horiz-adv-x="728" d="M251 667q8 10 23.5 23.5t33.5 26t37.5 23t35.5 15.5q22 7 39 8h7q12 0 21 -3q11 -3 19.5 -9.5t16.5 -13.5q8 -8 15 -21t9 -28v-6q0 -12 -5 -26q-6 -16 -25 -32q-21 -19 -49 -30.5t-54 -19.5q-30 -9 -60 -14q-11 -3 -21 -3q-5 0 -10 1q-13 2 -26 8t-21 23q-8 15 -7 29 t6 25q5 12 15 24zM596 505q31 -14 49 -47q7 -14 12 -33.5t5 -45.5t-6.5 -59.5t-21.5 -75.5q-29 -78 -58.5 -141.5t-54.5 -108.5q-29 -53 -56 -94q-28 -49 -64 -82q-15 -14 -33.5 -25.5t-39.5 -16.5q-16 -5 -33 -5q-6 0 -13 1q-23 2 -49 15q-33 16 -48 41t-18 54q-1 10 -1 19 q0 21 4 43q7 32 16.5 60t19.5 50l17 35q-6 6 -12.5 11.5t-11.5 10.5q-6 5 -11 10q-33 25 -59 51t-43 48q-20 26 -35 49q-23 37 -29 76q-2 12 -2 25v10q1 18 7 37t19.5 38.5t36.5 37.5q32 18 67 20h8q11 0 24 -2q17 -3 35.5 -12t38 -24.5t39.5 -40.5q17 -21 31 -42l28 -40 q11 20 32 55t51 64t70 43q15 5 32 5q27 0 57 -14z" />
<glyph unicode="&#xfe;" horiz-adv-x="681" d="M615 426q20 -28 31.5 -65t13.5 -76v-19q0 -30 -4 -58q-6 -38 -20 -68q-17 -37 -38 -61t-40 -38q-22 -17 -44 -26q-42 -19 -83 -19h-7q-44 2 -88 7q2 -13 5 -37t3 -53t-5 -59.5t-18.5 -56t-37 -43t-60.5 -19.5h-11q-18 0 -32 5q-20 6 -36 17t-28 25.5t-21 29.5 q-21 36 -32 84q-12 45 -22 100q-8 48 -14 113q-4 43 -4 93q0 25 1 51q0 68 5.5 132.5t13.5 116.5q9 60 20 115q8 47 27 83q16 31 48 56q30 22 77 22h8q32 -2 54 -15t36 -33t21 -45t9 -51q1 -16 1 -33q0 -48 -10 -103q50 14 98 14h6q22 0 45.5 -4.5t46.5 -14t45 -26t40 -41.5 zM387 274q-17 0 -29 -13q-11 -11 -11 -25q0 -23 13 -33q10 -8 27 -8t28 10t11 27q0 16 -10 29t-29 13z" />
<glyph unicode="&#xff;" horiz-adv-x="728" d="M335 628q0 -32 -19.5 -55t-57.5 -23t-57.5 23t-19.5 55t19.5 54.5t57.5 22.5t57.5 -22.5t19.5 -54.5zM518 628q0 -32 -19.5 -55t-57.5 -23t-57.5 23t-19.5 55t19.5 54.5t57.5 22.5t57.5 -22.5t19.5 -54.5zM596 505q-30 14 -57 14q-17 0 -32 -5q-40 -14 -70 -43t-51 -64 t-32 -55l-28 40q-14 21 -31 42q-20 25 -39.5 40.5t-38 24.5t-35.5 12q-13 2 -24 2h-8q-35 -2 -67 -20q-23 -18 -36.5 -37.5t-19.5 -38.5t-7 -37v-10q0 -13 2 -25q6 -39 29 -76q15 -23 35 -49q17 -22 43 -48t59 -51q5 -5 11 -10q5 -5 11.5 -10.5t12.5 -11.5l-17 -35 q-10 -22 -19.5 -50t-16.5 -60q-4 -22 -4 -43q0 -9 1 -19q3 -29 18 -54t48 -41q26 -13 49 -15q7 -1 13 -1q17 0 33 5q21 5 39.5 16.5t33.5 25.5q36 33 64 82q27 41 56 94q25 45 54.5 108.5t58.5 141.5q15 42 21.5 75.5t6.5 59.5t-5 45.5t-12 33.5q-18 33 -49 47z" />
<glyph unicode="&#x152;" horiz-adv-x="1123" d="M866 266h14q34 0 62 -4q33 -5 57 -14t40 -21t27 -24q24 -30 26 -68q-1 -24 -12 -42.5t-28 -32.5t-38.5 -23.5t-43.5 -15.5q-52 -15 -118 -18q-32 -2 -60 -2q-21 0 -40 1q-43 3 -77 11t-58.5 19.5t-41.5 25.5q-33 -25 -66.5 -38t-60.5 -19q-32 -7 -60 -8q-68 0 -119 14.5 t-89 38t-64 54t-43 62.5q-40 74 -45 169q0 78 15.5 135t41 98.5t57.5 68t66 42.5q71 33 161 33h19q60 0 105.5 -14.5t79.5 -38.5q35 29 82 44t89 20t86 5h15h17q38 0 67 -4q36 -4 62 -12.5t43.5 -19t28.5 -21.5q26 -26 27 -61q0 -30 -9.5 -52t-26 -38t-38 -26t-43.5 -16 q-46 -12 -103 -12h-17q56 -5 83.5 -20.5t39.5 -32.5q13 -20 13 -43q0 -33 -15.5 -52.5t-36.5 -30t-41.5 -14t-29.5 -3.5zM377 382q-17 0 -29 -13q-11 -11 -11 -25q0 -23 13 -33q10 -8 27 -8t28 10t11 27q0 16 -10 29t-29 13z" />
<glyph unicode="&#x153;" horiz-adv-x="938" d="M696 197q29 -23 61 -28.5t59.5 -9.5t47 -15t24.5 -46v-6q0 -17 -5 -33q-6 -17 -20.5 -34.5t-45.5 -29.5q-44 -14 -95 -18q-19 -2 -39 -2q-29 0 -61 3q-56 6 -117 31q-5 1 -11 5l-12 7q-6 4 -14 10q-9 -6 -16.5 -10t-12.5 -7q-6 -4 -12 -5q-20 -8 -38.5 -12.5t-32.5 -6.5 q-17 -3 -30 -3q-55 0 -96.5 11t-72.5 28.5t-52.5 40.5t-34.5 47q-33 55 -36 127q0 58 12.5 100.5t33 73t47 50.5t53.5 32q58 25 130 25h16q52 0 90.5 -12.5t66.5 -32.5q24 16 51 26q51 15 104 16q22 0 47.5 -2.5t51 -10t51.5 -21.5t50 -35q16 -16 28 -36q11 -18 19 -43.5 t9 -60.5q0 -39 -17.5 -64t-46 -38t-64.5 -16h-18q-26 0 -52 5zM679 333q-17 0 -29 -13q-11 -11 -11 -25q0 -23 13 -33q10 -8 27 -8t28 10t11 27q0 16 -10 29t-29 13zM311 284q-17 0 -29 -13q-11 -11 -11 -25q0 -23 13 -33q10 -8 27 -8t28 10t11 27q0 16 -10 29t-29 13z" />
<glyph unicode="&#x178;" horiz-adv-x="833" d="M422 833q0 -32 -19.5 -55t-57.5 -23t-57.5 23t-19.5 55t19.5 54.5t57.5 22.5t57.5 -22.5t19.5 -54.5zM605 833q0 -32 -19.5 -55t-57.5 -23t-57.5 23t-19.5 55t19.5 54.5t57.5 22.5t57.5 -22.5t19.5 -54.5zM447 547q-17 55 -48 96q-13 18 -30.5 34.5t-40 29t-50.5 19.5 q-22 5 -47 5h-14q-44 -6 -77 -28q-14 -9 -26.5 -23t-21.5 -33.5t-13 -44.5q-2 -12 -2 -25q0 -16 3 -34q4 -28 14.5 -52.5t25.5 -45.5t32.5 -38.5t35.5 -31.5q42 -33 93 -55q-11 -53 -11 -103q0 -21 2 -44.5t8 -46.5t16.5 -44t26.5 -39q12 -13 30 -23q15 -9 38.5 -16t55.5 -7 q39 0 68 13.5t52 45.5q20 32 31 73q9 35 11 85v9q0 47 -18 104q42 21 78 52q31 26 61 66.5t43 95.5q4 20 4 39q0 24 -6 45q-5 16 -13.5 32t-23.5 29.5t-37.5 23.5t-54.5 14q-9 1 -18 1q-30 0 -59 -13q-32 -14 -64.5 -51.5t-53.5 -113.5z" />
<glyph unicode="&#x2c6;" horiz-adv-x="393" d="M46 655q1 1 14 16t34 32t48 31.5t56 14.5q28 0 54 -14.5t47 -32.5t33.5 -33.5t13.5 -16.5q11 -15 11 -32q0 -5 -1 -10q-4 -23 -24 -37q-16 -11 -33 -11q-5 0 -10 1q-23 4 -37 24h1l-5 5q-4 5 -11.5 12.5t-17 16t-21.5 14.5q-14 -9 -26 -18t-20 -17q-10 -9 -17 -16 q-11 -12 -23 -18q-11 -5 -25.5 -5t-31.5 14q-19 15 -21 39q-1 3 -1 6q0 20 13 35z" />
<glyph unicode="&#x2dc;" horiz-adv-x="510" d="M440 629q-15 -27 -34 -41t-39 -19q-12 -3 -25 -3q-8 0 -16 1q-20 3 -39 10q-45 17 -92 56q-9 -34 -25.5 -47.5t-33.5 -16.5q-7 -1 -14 -1q-13 0 -27 4q-13 4 -23.5 14t-16.5 23t-7 27q-1 3 -1 6q0 11 4 21q18 54 52 80q15 11 35 17q13 5 29 5q7 0 15 -1q26 -3 58 -17.5 t71 -44.5q1 -1 1 -2t1 -2q10 29 33 46q14 10 32 10q10 0 22 -4q25 -9 40 -25q13 -14 16 -37q1 -4 1 -8q0 -21 -17 -51z" />
<glyph unicode="&#x2000;" horiz-adv-x="477" />
<glyph unicode="&#x2001;" horiz-adv-x="955" />
<glyph unicode="&#x2002;" horiz-adv-x="477" />
<glyph unicode="&#x2003;" horiz-adv-x="955" />
<glyph unicode="&#x2004;" horiz-adv-x="318" />
<glyph unicode="&#x2005;" horiz-adv-x="238" />
<glyph unicode="&#x2006;" horiz-adv-x="159" />
<glyph unicode="&#x2007;" horiz-adv-x="159" />
<glyph unicode="&#x2008;" horiz-adv-x="119" />
<glyph unicode="&#x2009;" horiz-adv-x="191" />
<glyph unicode="&#x200a;" horiz-adv-x="53" />
<glyph unicode="&#x2010;" horiz-adv-x="526" d="M395 404q34 -9 53 -26t27 -34q10 -20 11 -42v-12q0 -18 -4 -34q-5 -19 -20.5 -37t-47.5 -27q-74 -20 -138 -20t-135 11q-35 5 -54.5 22t-27.5 35q-11 21 -11 46v9q0 21 7 40q8 20 26.5 39t58.5 28q51 11 97 12q20 1 37 1q24 0 44 -1q41 -3 77 -10z" />
<glyph unicode="&#x2011;" horiz-adv-x="526" d="M395 404q34 -9 53 -26t27 -34q10 -20 11 -42v-12q0 -18 -4 -34q-5 -19 -20.5 -37t-47.5 -27q-74 -20 -138 -20t-135 11q-35 5 -54.5 22t-27.5 35q-11 21 -11 46v9q0 21 7 40q8 20 26.5 39t58.5 28q51 11 97 12q20 1 37 1q24 0 44 -1q41 -3 77 -10z" />
<glyph unicode="&#x2013;" horiz-adv-x="579" d="M407 409q34 -9 53 -26t27 -34q10 -20 11 -42v-11q0 -17 -4 -32q-5 -17 -20.5 -35t-47.5 -29q-73 -24 -138 -26h-20q-55 0 -115 9q-35 5 -54.5 22t-27.5 35q-11 21 -11 46v9q0 21 7 40q8 20 26.5 39t58.5 28q51 11 97 14q28 2 51 2q16 0 30 -1q41 -2 77 -8z" />
<glyph unicode="&#x2014;" horiz-adv-x="833" d="M531 409q34 -8 53 -24.5t27 -33.5q10 -20 11 -44v-6q0 -21 -6 -40t-21.5 -37.5t-47.5 -29.5q-36 -12 -85.5 -18.5t-103.5 -7.5q-14 -1 -29 -1l-77 3q-54 4 -99 13q-35 7 -53.5 24.5t-27.5 34.5q-11 20 -12 44v9q0 21 7 40q8 20 26.5 38.5t58.5 28.5q63 15 130 18 q36 1 70 1q27 0 52 -1q65 -3 127 -11z" />
<glyph unicode="&#x2018;" horiz-adv-x="285" d="M35 524q-1 12 -1 24q0 25 4 45q4 29 12.5 49.5t20.5 33t24 20.5q23 14 52 14q8 0 16 -1q11 -2 16 -7t6 -10q1 -6 -1 -14q-4 -11 -12 -14q-4 -2 -9 -2q-13 0 -13.5 -9t0.5 -18q48 -3 72.5 -33t24.5 -73q0 -44 -27 -74.5t-78 -30.5t-78 29t-29 71z" />
<glyph unicode="&#x2019;" horiz-adv-x="296" d="M250 623q1 -12 1 -24q0 -25 -3 -45q-5 -29 -13.5 -49.5t-20.5 -33.5t-24 -20q-23 -14 -52 -14q-8 0 -16 1q-12 2 -16.5 7t-5.5 10q-1 6 1 14q3 10 12 14q4 2 9 2q13 0 13.5 9t-0.5 18q-48 3 -72.5 33t-24.5 73q0 44 27 74.5t78 30.5t78 -29t29 -71z" />
<glyph unicode="&#x201a;" horiz-adv-x="296" d="M250 103q1 -12 1 -24q0 -25 -3 -45q-5 -29 -13.5 -49.5t-20.5 -33.5t-24 -20q-23 -14 -52 -14q-8 0 -16 1q-12 2 -16.5 7t-5.5 10q-1 6 1 14q3 10 12 14q4 2 9 2q13 0 13.5 9t-0.5 18q-48 3 -72.5 33t-24.5 73q0 44 27 74.5t78 30.5t78 -29t29 -71z" />
<glyph unicode="&#x201c;" horiz-adv-x="541" d="M280 524q-1 12 -1 24q0 25 3 45q5 29 13.5 49.5t20.5 33t24 20.5q23 14 52 14q8 0 16 -1q11 -2 16 -7t6 -10q1 -6 -1 -14q-4 -11 -12 -14q-4 -2 -9 -2q-13 0 -13.5 -9t0.5 -18q48 -3 72.5 -33t24.5 -73q0 -44 -27 -74.5t-78 -30.5t-78 29t-29 71zM35 524q-1 12 -1 24 q0 25 4 45q4 29 12.5 49.5t20.5 33t24 20.5q23 14 52 14q8 0 16 -1q11 -2 16 -7t6 -10q1 -6 -1 -14q-4 -11 -12 -14q-4 -2 -9 -2q-13 0 -13.5 -9t0.5 -18q48 -3 72.5 -33t24.5 -73q0 -44 -27 -74.5t-78 -30.5t-78 29t-29 71z" />
<glyph unicode="&#x201d;" horiz-adv-x="550" d="M255 623q1 -12 1 -24q0 -25 -4 -45q-4 -29 -12.5 -49.5t-20.5 -33.5t-24 -20q-23 -14 -52 -14q-8 0 -16 1q-12 2 -16.5 7t-5.5 10q-1 6 1 14q3 10 12 14q4 2 9 2q13 0 13.5 9t-0.5 18q-48 3 -72.5 33t-24.5 73q0 44 27 74.5t78 30.5t78 -29t29 -71zM500 623q1 -12 1 -24 q0 -25 -3 -45q-5 -29 -13.5 -49.5t-20.5 -33.5t-24 -20q-23 -14 -52 -14q-8 0 -16 1q-12 2 -16.5 7t-5.5 10q-1 6 1 14q3 10 12 14q4 2 9 2q13 0 13.5 9t-0.5 18q-48 3 -72.5 33t-24.5 73q0 44 27 74.5t78 30.5t78 -29t29 -71z" />
<glyph unicode="&#x201e;" horiz-adv-x="544" d="M255 99q1 -12 1 -24q0 -25 -4 -45q-4 -29 -12.5 -49.5t-20.5 -33.5t-24 -20q-23 -14 -52 -14q-8 0 -16 1q-12 2 -16.5 7t-5.5 10q-1 6 1 14q3 10 12 14q4 2 9 2q13 0 13.5 9t-0.5 18q-48 3 -72.5 33t-24.5 73q0 44 27 74.5t78 30.5t78 -29t29 -71zM500 99q1 -12 1 -24 q0 -25 -3 -45q-5 -29 -13.5 -49.5t-20.5 -33.5t-24 -20q-23 -14 -52 -14q-8 0 -16 1q-12 2 -16.5 7t-5.5 10q-1 6 1 14q3 10 12 14q4 2 9 2q13 0 13.5 9t-0.5 18q-48 3 -72.5 33t-24.5 73q0 44 27 74.5t78 30.5t78 -29t29 -71z" />
<glyph unicode="&#x2022;" horiz-adv-x="541" d="M476 327q0 -42 -13 -79t-38.5 -64.5t-63.5 -43.5t-88 -16q-49 0 -87 16t-63.5 43.5t-39 64.5t-13.5 79t13.5 78.5t39 64.5t63.5 44t87 16q50 0 88 -16t63.5 -44t38.5 -64.5t13 -78.5z" />
<glyph unicode="&#x2026;" horiz-adv-x="1056" d="M1005 116q0 -26 -8 -49t-24 -40t-39.5 -27t-54.5 -10q-30 0 -53.5 10t-39.5 27t-24.5 40t-8.5 49t8.5 49t24.5 40t39.5 27t53.5 10q31 0 54.5 -10t39.5 -27t24 -40t8 -49zM653 116q0 -26 -8 -49t-24 -40t-39.5 -27t-54.5 -10q-30 0 -53.5 10t-39.5 27t-24.5 40t-8.5 49 t8.5 49t24.5 40t39.5 27t53.5 10q31 0 54.5 -10t39.5 -27t24 -40t8 -49zM301 116q0 -26 -8 -49t-24 -40t-39.5 -27t-54.5 -10q-30 0 -53.5 10t-39.5 27t-24.5 40t-8.5 49t8.5 49t24.5 40t39.5 27t53.5 10q31 0 54.5 -10t39.5 -27t24 -40t8 -49z" />
<glyph unicode="&#x202f;" horiz-adv-x="191" />
<glyph unicode="&#x2039;" horiz-adv-x="450" d="M243 11q-1 1 -17 11.5t-39 28.5t-50 42t-50 52.5t-38 59.5t-15 64q0 31 15 62.5t38 60.5t50 54t50 43.5t39 29t17 11.5q16 12 38 15q9 1 18 1l26 -2q22 -5 41.5 -17.5t32.5 -32.5q19 -30 19 -58q0 -12 -4 -24q-11 -39 -48 -66l-24 -20l-26 -24l-30 -31q22 -22 42 -39 l34 -31q18 -15 32 -28q19 -18 27 -41q5 -13 5 -30q0 -8 -2 -17q-3 -27 -30 -59q-13 -15 -32.5 -24t-40.5 -11q-6 -1 -12 -1l-30 4q-21 5 -36 17z" />
<glyph unicode="&#x203a;" horiz-adv-x="471" d="M224 524q1 -1 17 -11.5t39 -28.5t50 -42t50 -52.5t38 -60t15 -63.5q0 -31 -15 -62.5t-38 -60.5t-50 -54t-50 -43.5t-39 -29.5t-17 -11q-17 -12 -38 -15q-9 -1 -18 -1q-13 0 -26 3q-22 4 -41.5 16.5t-32.5 32.5q-19 30 -19 58q0 12 3 24q12 39 49 66l24 20q11 10 25 24 l31 31l-41 39l-35 31q-18 15 -32 28q-19 18 -27 41q-5 14 -5 31q0 8 1 16q3 27 31 59q13 15 32.5 24t40.5 11q6 1 12 1l30 -4q21 -5 36 -17z" />
<glyph unicode="&#x2044;" horiz-adv-x="428" d="M186 26q-13 -27 -29.5 -38t-30.5 -14q-8 -2 -16 -2q-10 0 -19 3q-17 5 -30 16q-11 10 -19 29q-6 12 -6 31q0 9 1 19q4 35 17 89t31 117t39 129l43 126l39 109q18 49 30 77q14 33 33.5 46.5t36.5 17.5q8 2 16 2q13 0 26 -4q19 -3 31 -14q11 -10 17 -31q4 -11 4 -28 q0 -12 -2 -28q-8 -52 -22 -107.5t-30.5 -111t-34.5 -109.5t-36 -102q-42 -114 -89 -222z" />
<glyph unicode="&#x205f;" horiz-adv-x="238" />
<glyph unicode="&#x20ac;" horiz-adv-x="697" d="M138 504q15 58 52 104q16 19 38 38t51.5 33.5t67.5 23.5t85 9q76 -4 133 -22q24 -8 46.5 -19.5t39 -28t24.5 -38.5q5 -14 5 -30q0 -10 -2 -21q-4 -29 -20 -48q-14 -17 -40 -27q-11 -4 -26 -4q-20 0 -45 7q-37 10 -58 10q-3 0 -5 -1q-22 -1 -32 -8q-11 -8 -13 -22 q32 -1 57 -7q21 -5 38 -17q13 -10 13 -27v-7q-3 -22 -23.5 -30t-43.5 -10h-14q-22 0 -48 4q-2 -5 -3 -9t-0.5 -9.5t3.5 -10.5q20 2 37 2q13 0 25 -1q23 -2 43.5 -10t23.5 -27q1 -5 1 -9q0 -18 -14 -28q-16 -13 -37 -19q-25 -7 -58 -8q3 -14 13 -22q8 -7 24 -9h5q15 0 38 9 q13 5 33 10.5t41 5.5t40 -8.5t30 -29.5q12 -24 12 -49q0 -9 -2 -19q-6 -35 -32 -64t-70.5 -48.5t-103.5 -21.5h-23q-50 0 -94 7q-54 9 -96.5 33.5t-72 66t-44.5 103.5q-20 -4 -38 -4q-11 0 -20 1q-22 3 -39.5 17.5t-17.5 49.5q0 32 17 46.5t37 18.5q12 2 25.5 2t28.5 -2 q-2 8 -3 17q-1 8 -0.5 17t3.5 17q-15 -2 -28.5 -2t-25.5 2q-20 4 -37 18t-17 46t18 45.5t40 16.5q9 1 20 1q18 0 38 -4z" />
<glyph unicode="&#x2122;" horiz-adv-x="1723" d="M1228 500q7 61 30 109q10 20 24 39.5t33 35t44 25t57 9.5q49 0 85.5 -24t60.5 -53q28 -33 48 -76q27 -63 41.5 -125.5t21.5 -113.5q8 -60 9 -115v-13q0 -34 -4 -61q-6 -32 -16 -55t-23.5 -38.5t-28.5 -25.5q-34 -23 -78 -24q-39 0 -68.5 13.5t-51 36t-36 51t-23.5 58.5 q-22 70 -23 159q-5 -59 -20.5 -89t-32.5 -42q-18 -13 -38 -13h-6q-39 0 -61 22.5t-33 50.5q-13 32 -16 73q0 -61 -7.5 -107.5t-19.5 -80t-27.5 -56.5t-31.5 -38q-38 -34 -86 -38q-38 0 -65.5 9t-47.5 23.5t-33 33.5t-21 39q-18 47 -18 106q0 81 11.5 148.5t25.5 116.5 q17 57 38 103q26 60 62 89.5t68 41.5q33 12 67 12h10q34 0 60.5 -9.5t45.5 -24.5t32 -34.5t21 -39.5q19 -48 21 -108zM239 415q-14 -1 -28 -1q-40 0 -74 9q-19 5 -37 14.5t-32.5 24t-23 35.5t-8.5 50q0 50 20.5 79.5t45.5 44.5q29 18 66 24q80 17 156 19q29 1 56 1 q43 0 81 -2q70 -4 135 -15q46 -10 69.5 -31t34.5 -43q12 -26 12 -55q-1 -32 -9.5 -55t-22 -39.5t-30.5 -26.5t-34 -16q-31 -10 -68 -10q-11 0 -23 1q13 -76 15 -135v-37q0 -35 -2 -62q-4 -48 -13 -82q-10 -48 -32.5 -71t-45.5 -34q-27 -12 -58 -12h-6q-31 0 -59 10 q-26 10 -50 34t-35 73q-11 51 -13 105v36q0 34 2 64q4 53 11 103z" />
</font>
</defs>
</svg>
